<svg width="1133" height="512" viewBox="0 0 1133 512" fill="none" xmlns="http://www.w3.org/2000/svg">
<g clip-path="url(#clip0)">
<rect width="1133" height="512" fill="#FBFFFE"/>
<path d="M170.245 391.235L300.866 391.455C314.039 351.381 315.045 308.499 321.264 266.777C322.839 256.212 324.892 245.345 330.886 236.504C336.88 227.663 347.83 221.335 358.206 223.874L541.122 223.049C545.806 224.575 549.531 228.74 550.527 233.565C551.011 235.909 550.889 238.33 550.742 240.718C549.952 253.582 548.524 266.407 546.46 279.129C549.937 279.178 552.716 276.049 553.85 272.761C554.985 269.473 556.521 264.799 557.336 261.417C558.174 257.931 558.322 255.827 559.638 252.492C561.398 248.036 562.519 243.311 564.762 239.079C570.036 229.124 582.918 222.139 594.103 223.488L753.422 223.047C756.5 223.032 762.225 223.483 766.84 224.016C772.334 224.649 776.737 225.334 780.468 227.608C787.933 232.156 787.199 244.04 786.489 252.752C784.508 277.056 781.878 300.081 777.124 323.998C772.375 347.904 764.867 371.26 754.8 393.456C759.619 392.548 764.551 392.253 769.445 392.574C788.861 350.186 791.772 303.254 795.063 255.717C795.509 249.275 796.975 242.765 800.193 237.167C805.52 227.898 816.903 222.533 827.442 224.32L998.281 223.421C1019.97 223.421 1020.6 233.208 1022.16 240.826C1023.72 248.447 1023.15 257.412 1022.2 265.131C1014.76 325.898 999.405 385.692 976.637 442.523C974.879 446.913 972.998 451.406 969.669 454.766C966.343 458.127 964.191 459.614 958.274 459.614L752.893 460.248C751.481 459.493 748.611 456.986 747.198 456.23C746.265 455.73 745.268 455.216 744.211 455.284C743.459 455.331 742.761 455.669 742.076 455.985C736.099 458.732 730.942 461.942 724.368 461.727L478.769 459.332L280.642 461.727C257.469 452.925 234.434 440.655 213.002 428.199L140.584 428.114C138.087 428.129 135.905 426.797 135.341 424.257C134.776 421.714 135.596 419.219 137.022 417.042C140.98 410.997 145.008 404.893 150.344 400.022C155.679 395.152 163.021 391.196 170.245 391.235Z" fill="#3A506B"/>
<path d="M590.919 155.432C590.488 158.293 592.54 160.849 593.674 163.512C595.49 167.773 595.052 172.878 597.549 176.78C599.569 179.937 603.193 181.77 605.316 184.858C607.53 188.08 607.823 192.24 607.583 196.141C607.343 200.044 606.646 203.964 607.165 207.839C607.285 208.729 607.547 209.725 608.338 210.151C608.884 210.445 609.545 210.388 610.162 210.322C612.071 210.119 613.981 209.916 615.891 209.713C616.357 209.664 616.839 209.615 617.284 209.766C617.985 210.001 618.435 210.665 618.834 211.289C621.107 214.84 623.379 218.392 625.653 221.943C627.599 224.982 629.742 228.194 633.069 229.59C636.262 230.929 640.001 230.299 643.106 228.767C646.211 227.236 648.826 224.889 651.465 222.648C658.188 225.997 666.278 224.658 673.411 222.305C683.533 218.965 693.025 213.726 701.245 206.941C691.613 197.267 681.654 187.062 677.575 174.034C676.256 169.822 675.59 165.405 673.961 161.302C670.257 151.978 661.751 145.095 652.305 141.719C642.858 138.344 632.536 138.151 622.573 139.326C612.154 140.555 601.423 143.504 593.842 150.758C592.488 152.053 591.198 153.581 590.919 155.432Z" fill="#E9AAA7"/>
<path d="M546.029 345.96C549.422 343.179 551.795 339.386 554.52 335.949C558.108 331.421 562.355 327.462 566.581 323.523C570.367 319.995 574.512 316.292 579.647 315.646C583.958 315.103 588.241 316.846 591.957 319.098C594.646 320.726 597.236 322.72 598.766 325.467C601.345 330.101 600.371 336.025 597.817 340.671C595.261 345.317 591.335 349.023 587.727 352.911C586.199 354.557 584.7 356.276 583.74 358.306C581.471 363.1 582.543 368.724 582.071 374.007C581.926 375.629 581.542 377.394 580.256 378.395C578.97 379.395 576.588 378.931 576.36 377.318C576.233 379.414 576.094 381.564 575.227 383.478C574.887 384.227 574.392 384.97 573.631 385.281C572.871 385.594 571.818 385.275 571.601 384.48C570.915 385.974 569.902 387.697 568.258 387.739C567.002 387.771 565.957 386.744 565.359 385.64C564.76 384.534 564.437 383.283 563.724 382.249C562.992 381.184 561.905 380.427 560.884 379.636C555.521 375.47 551.523 369.835 547.606 364.287C547.04 363.484 546.463 362.662 546.174 361.723C545.694 360.164 546.059 358.48 546.506 356.912C545.089 356.868 543.635 356.817 542.329 356.273C541.02 355.727 539.869 354.571 539.753 353.159C539.639 351.778 540.508 350.507 541.499 349.538C542.875 348.186 544.541 347.179 546.029 345.96Z" fill="#E9AAA7"/>
<path d="M363.199 350.448C363.292 347.253 363.463 343.994 364.626 341.019C367.883 332.695 377.847 328.806 381.981 320.883C385.66 344.066 389.339 367.248 393.018 390.432C390.805 389.183 388.959 387.388 387.14 385.611C386.99 386.394 386.647 387.139 386.146 387.759C386.026 387.908 385.889 388.057 385.707 388.114C385.367 388.223 385.024 387.984 384.733 387.778C382.669 386.314 380.083 385.853 377.737 384.906C371.567 382.414 367.243 376.534 365.175 370.21C363.105 363.885 363.005 357.099 363.199 350.448Z" fill="#E9AAA7"/>
<path d="M550.372 266.816C564.204 258.881 574.75 241.334 588.715 232.258C599.217 225.43 612.928 223.317 620.766 213.547C623.793 219.592 627.377 225.877 633.386 228.973C639.396 232.07 647.139 229.3 650.361 223.699C669.985 226.527 690.81 218.922 703.992 204.115C717.659 211.228 731.782 217.46 746.246 222.765C754.548 225.809 763.497 228.928 768.732 236.053C776.154 246.158 773.385 260.225 769.984 272.293C759.141 310.791 745.18 348.401 728.519 384.762C717.746 381.622 706.974 378.483 696.201 375.342C693.239 374.478 690.254 373.606 687.526 372.164C682.164 369.331 678.176 364.522 673.587 360.558C656.484 345.787 631.714 343.453 609.356 346.734C603.855 347.542 597.804 348.022 592.305 347.2C599.54 341.012 602.491 331.419 596.79 323.794C591.088 316.168 579.264 313.486 571.28 318.675C571.491 311.28 595.812 298.964 611.249 299.914C596.206 281.636 573.897 269.505 550.372 266.816Z" fill="#4392F1"/>
<path d="M460.726 424.757C448.447 422.037 437.272 419.562 424.994 416.842C426.84 420.722 428.686 424.603 430.532 428.482C427.254 429.527 423.59 431.841 420.312 432.886C412.917 427.71 405.298 424.5 397.81 420.313C396.819 419.758 395.707 418.817 395.063 417.882C394.226 416.668 394.691 414.197 394.657 412.721C393.981 383.072 385.686 354.136 382.642 324.634C381.683 315.34 381.306 305.619 384.91 296.999C389.256 286.605 399.532 278.939 410.736 277.738C423.823 276.331 436.264 283.059 447.645 289.672C472.229 303.957 496.511 318.756 520.474 334.059C520.653 324.188 520.832 314.316 521.011 304.442C521.169 295.799 521.476 286.639 526.199 279.399C531.015 272.016 539.862 267.911 548.654 267.276C557.446 266.64 566.204 269.098 574.304 272.577C588.701 278.762 602.234 287.976 612.436 299.87C599.722 298.228 587.317 304.845 576.449 311.642C569.596 315.928 572.063 318.011 570.335 319.59C554.408 334.152 552.726 337.973 550.896 341.424C548.984 345.028 544.023 346.807 541.247 349.876C540.841 350.326 539.634 351.425 539.416 351.989C538.219 355.078 542.395 357.208 546.955 356.509C543.82 359.19 546.443 364.231 549.138 367.355C554.63 373.717 557.016 376.336 562.835 380.797C563.481 381.292 566.711 387.702 567.478 387.978C568.416 388.314 569.454 388.035 570.45 388.111C572.541 388.27 574.165 389.932 575.535 391.519C588.54 406.582 597.807 424.848 602.283 444.239C599.354 447.075 595.973 448.485 592.302 447.56C590.079 444.869 591.72 440.611 590.204 437.469C589.44 435.885 587.962 434.781 586.514 433.783C576.807 427.105 565.806 422.314 554.303 419.757C554.469 422.72 554.219 426.435 554.385 429.399C547.817 428.985 541.544 430.193 536.238 434.086C528.239 432.066 522.326 424.831 519.916 416.941C517.505 409.05 518.079 400.564 519.321 392.408C511.997 392.447 504.672 392.484 497.346 392.523C493.504 392.543 489.369 393.818 485.818 392.352C482.668 391.052 480.265 387.425 477.756 385.121C469.385 377.43 461.015 369.738 452.646 362.049C457.563 381.48 462.871 399.616 467.788 419.047C468.486 421.805 468.797 425.947 468.38 428.76C467.96 431.574 466.131 434.377 463.366 435.045C462.849 431.696 461.598 428.423 460.726 424.757Z" fill="#B28B67"/>
<path d="M425.097 416.968C427.007 420.788 428.968 424.585 430.978 428.354C428.563 429.199 426.186 430.158 423.862 431.228C422.594 431.811 421.309 432.45 420.364 433.479C417.984 436.076 418.49 440.209 416.877 443.339C415.148 446.696 411.344 448.333 407.839 449.734C394.148 455.211 380.583 461 367.158 467.096C364.969 468.09 362.726 469.131 361.069 470.874C358.799 473.259 357.933 476.613 357.151 479.811C356.551 482.264 355.951 484.84 356.588 487.283C357.227 489.725 359.554 491.926 362.043 491.495L601.484 491.287C600.955 483.646 600.427 476.008 599.898 468.367C599.623 464.38 599.095 459.897 595.939 457.442C596.996 456.147 598.086 454.787 598.444 453.154C598.803 451.521 598.174 449.54 596.62 448.921C595.332 448.407 593.825 448.943 592.508 448.507C590.564 447.863 589.872 445.437 589.957 443.39C590.041 441.343 590.591 439.232 589.937 437.289C589.254 435.264 587.411 433.885 585.626 432.709C576.185 426.481 565.473 422.189 554.344 420.174C554.407 423.222 554.467 426.268 554.53 429.316C550.76 428.908 546.923 429.125 543.223 429.953C540.78 430.499 538.314 431.36 536.499 433.084C532.594 436.794 532.934 443.005 533.562 448.355C517.203 457.582 500.591 466.366 483.755 474.694C481.652 475.735 479.021 476.74 477.107 475.38C478.556 470.521 472.881 465.505 474.605 460.735C474.986 459.684 475.701 458.779 476.095 457.733C477.07 455.138 475.613 451.893 473.028 450.895C471.742 450.4 470.268 450.405 469.081 449.7C467.612 448.828 466.933 447.094 466.368 445.481C464.221 439.348 462.277 433.143 460.541 426.882C460.338 426.151 460.114 425.379 459.552 424.872C459.062 424.429 458.391 424.26 457.749 424.104C446.881 421.479 435.963 419.591 425.097 416.968Z" fill="#D7D7D7"/>
<path d="M644.115 346.653C634.178 343.989 623.878 341.867 613.653 343.002C607.764 343.656 602.02 345.385 596.617 347.817C591.727 350.02 586.857 353.049 584.421 357.828C581.761 363.046 582.504 369.299 583.644 375.044C584.747 380.607 586.331 386.412 590.388 390.375C594.007 393.909 599.187 395.49 604.241 395.681C609.211 395.867 615.146 395.226 618.185 399.161C618.425 399.472 618.648 399.815 618.985 400.02C619.742 400.483 620.712 400.079 621.51 399.689C628.023 396.5 635.052 394.371 642.239 393.407C648.373 392.586 654.584 392.609 660.772 392.635C680.562 392.717 700.351 392.799 720.142 392.881C721.32 389.348 723.482 386.149 726.322 383.74C715.725 380.657 705.128 377.575 694.531 374.492C691.032 373.474 687.491 372.438 684.357 370.58C679.411 367.651 675.846 362.909 671.484 359.167C663.805 352.583 653.891 349.271 644.115 346.653Z" fill="#B28B67"/>
<path d="M504.505 302.745C506.177 302.855 507.563 304.158 509.221 304.403C509.422 302.963 510.367 301.721 511.485 300.789C512.602 299.858 513.9 299.175 515.116 298.377C517.416 296.864 519.431 294.917 521.022 292.669C520.102 299.248 520.253 305.923 520.405 312.565C520.564 319.466 520.721 326.367 520.88 333.268C520.483 333.529 519.957 333.349 519.524 333.157C512.31 329.952 506.113 324.879 499.371 320.771C496.3 318.9 493.112 317.227 489.993 315.435C484.623 312.352 479.459 308.918 474.437 305.294C476.47 304.851 478.585 305.188 480.632 305.565C483.791 306.146 486.95 306.824 490.16 306.934C493.37 307.042 496.682 306.547 499.454 304.924C501.063 303.979 502.642 302.623 504.505 302.745Z" fill="#4392F1"/>
<path d="M663.187 165.141C662.767 163.852 662.586 162.562 662.667 161.208C662.76 159.675 663.825 157.68 665.596 157.766C665.787 157.775 665.814 157.494 665.64 157.442C663.967 156.95 662.631 157.751 662.053 159.348C661.379 161.211 662.117 163.569 662.932 165.249C663.003 165.39 663.236 165.29 663.187 165.141Z" fill="#1B2F57" stroke="#1B2F57" stroke-width="0.422596" stroke-miterlimit="10"/>
<path d="M665.66 162.776C667.173 162.908 668.291 163.911 668.801 165.31C668.884 165.537 669.254 165.518 669.242 165.251C669.161 163.378 667.434 162.212 665.649 162.687C665.596 162.699 665.611 162.771 665.66 162.776Z" fill="#1B2F57" stroke="#1B2F57" stroke-width="0.422596" stroke-miterlimit="10"/>
<path d="M665.096 169.186C664.989 169.191 664.954 169.362 665.069 169.381C666.088 169.552 667.041 169.918 667.349 170.997C667.456 171.367 667.368 172.207 667.123 172.505C666.923 172.746 666.698 172.826 666.543 173.118C666.419 173.352 666.685 173.681 666.931 173.507C667.408 173.169 667.942 173.123 668.203 172.54C668.446 171.994 668.38 171.316 668.233 170.755C667.883 169.428 666.242 169.132 665.096 169.186Z" fill="#1B2F57" stroke="#1B2F57" stroke-width="0.422596" stroke-miterlimit="10"/>
<path d="M632.57 186.584C632.72 186.153 632.164 185.717 631.784 185.98C629.079 187.857 625.257 188.849 622.443 186.807C622.245 186.663 622.059 186.9 622.084 187.082C622.696 191.63 631.39 189.961 632.57 186.584Z" fill="#1B2F57" stroke="#1B2F57" stroke-width="0.422596" stroke-miterlimit="10"/>
<path d="M641.279 211.181C637.482 209.299 631.256 209.906 627.654 212.014C627.586 212.054 627.615 212.161 627.695 212.161C630.183 212.154 632.646 211.667 635.148 211.656C635.611 211.654 636.069 211.686 636.529 211.718C635.945 212.181 635.474 212.847 635.32 213.564C634.586 216.967 637.643 218.731 640.489 217.709C643.212 216.732 644.299 212.678 641.279 211.181Z" fill="#1B2F57" stroke="#1B2F57" stroke-width="0.422596" stroke-miterlimit="10"/>
<path d="M509.103 313.929C511.043 316.802 512.593 319.931 516.204 320.912C516.64 321.03 516.897 320.416 516.51 320.188C513.773 318.572 511.231 316.3 509.248 313.817C509.182 313.736 509.045 313.843 509.103 313.929Z" fill="#41004F" stroke="#3F1B4F" stroke-width="0.422596" stroke-miterlimit="10"/>
<path d="M579.529 207.737C583.645 207.327 587.748 207.21 591.879 207.389C592.993 207.438 592.991 205.7 591.879 205.66C588.54 205.536 585.209 205.597 581.88 205.827C584.713 203.119 587.524 200.372 590.476 197.805C591.115 197.248 590.586 196.214 589.813 196.206C587.878 196.184 585.941 196.146 584.005 196.157C582.467 196.165 580.207 195.815 580.007 196.844C579.99 196.936 579.99 197.008 580.007 197.096C580.207 198.192 581.664 197.822 583.037 197.881C584.549 197.947 586.062 197.977 587.575 198.014C584.742 200.817 581.799 203.52 578.915 206.263C578.405 206.75 578.762 207.813 579.529 207.737Z" fill="#1B2F57" stroke="#1B2F57" stroke-width="0.422596" stroke-miterlimit="10"/>
<path d="M711.59 132.16C705.516 131.797 699.443 131.435 693.371 131.07C698.41 127.547 703.337 123.877 708.106 119.99C708.797 119.427 708.205 118.309 707.409 118.309C700.808 118.313 694.201 117.986 687.601 118.084C686.721 118.098 686.768 119.322 687.601 119.418C693.237 120.069 698.934 120.186 704.61 120.246C699.909 124.011 695.102 127.627 690.134 131.036C689.339 131.58 689.642 132.764 690.617 132.821C697.608 133.24 704.598 133.666 711.59 134.089C712.832 134.163 712.824 132.235 711.59 132.16Z" fill="#1B2F57" stroke="#1B2F57" stroke-width="0.422596" stroke-miterlimit="10"/>
<path d="M610.241 56.6036C601.869 56.6036 593.517 56.2012 585.149 56.0897C584.209 56.0778 584.277 57.3862 585.149 57.5028C592.294 58.4528 599.565 58.6979 606.788 58.7013C598.557 64.2103 590.318 69.7091 582.086 75.2164C581.256 75.7708 581.572 77.0386 582.592 77.0825C590.687 77.4223 598.774 77.8939 606.855 78.4534C608.164 78.5447 608.157 76.5061 606.855 76.4199C599.798 75.9517 592.736 75.573 585.672 75.235C594.039 69.677 602.4 64.1089 610.772 58.5576C611.619 57.9964 611.326 56.6036 610.241 56.6036Z" fill="#1B2F57" stroke="#1B2F57" stroke-width="0.422596" stroke-miterlimit="10"/>
<path d="M1039.01 -102.15V-102.343H1036.65V-102.15H28.7363V402.393H130.612C132.659 406.685 134.894 410.887 137.35 414.958C137.046 415.433 136.74 415.908 136.441 416.386C133.942 420.377 132.871 429.612 140.158 428.662L140.16 428.66C140.89 428.692 141.62 428.699 142.349 428.728C148.006 442.401 154.847 456.09 162.19 468.93C166.917 477.196 175.069 491.208 186.072 491.804C186.077 491.804 186.08 491.808 186.086 491.808C198.168 492.688 210.358 492.343 222.469 492.403C234.598 492.462 246.726 492.506 258.853 492.555C267.995 492.592 278.904 493.687 287.175 488.998C290.882 486.897 292.889 482.703 294.671 479.045C297.182 473.893 298.949 468.387 300.753 462.96C300.788 462.853 300.785 462.76 300.788 462.665C301.199 462.66 301.623 462.643 302.027 462.643C309.82 462.655 317.612 462.669 325.405 462.681C333.198 462.692 340.99 462.701 348.783 462.709C354.458 462.716 360.383 463.112 366.164 462.912C366.645 463.815 367.124 464.719 367.609 465.62C361.508 468.69 355.803 473.117 357.066 480.068C354.945 483.119 355.217 489.5 358.773 491.317C358.8 491.581 358.978 491.835 359.343 491.872C369.83 492.939 380.811 492.044 391.355 492.063C402.027 492.083 412.698 492.095 423.368 492.137C444.819 492.222 466.464 492.967 487.903 492.102C497.036 492.668 506.313 492.225 515.456 492.23C524.953 492.237 534.45 492.244 543.946 492.274C562.912 492.337 581.88 492.359 600.846 492.391C601.281 492.521 601.827 492.377 602.029 491.835C603.044 489.122 603.245 486.403 602.67 483.569C602.454 482.5 601.916 481.153 600.995 480.467C600.954 480.283 600.863 480.11 600.709 479.992C602.489 475.144 602.87 467.307 600.442 461.849C600.961 461.895 601.507 461.852 602.053 461.868C602.315 461.876 602.582 461.9 602.849 461.922C602.954 462.092 603.047 462.272 603.152 462.441C605.647 467.294 608.473 471.983 611.474 476.503C614.405 480.918 618.357 486.787 623.609 488.893C631.2 493.628 642.588 492.514 650.993 492.692C668.189 493.053 685.391 493.128 702.59 493.102C710.914 493.091 719.237 493.047 727.559 492.994C734.89 492.949 742.924 493.801 750.154 492.42C756.028 491.297 759.921 488.158 763.217 483.28C767.778 476.528 771.11 468.712 774.868 461.497C774.874 461.486 774.873 461.475 774.878 461.464C775.339 461.465 775.802 461.465 776.262 461.47C784.139 461.545 792.016 461.53 799.894 461.487C807.771 461.445 815.648 461.342 823.524 461.198C827.646 461.122 831.852 461.185 836.044 461.107C838.71 465.821 841.501 470.462 844.393 475.039C847.361 479.737 850.284 484.743 854.681 488.256C854.806 488.356 854.938 488.41 855.069 488.439C858.863 491.931 864.635 493.493 869.975 493.907C883.542 494.958 897.522 494.02 911.129 494.012C924.62 494.003 938.248 494.556 951.722 493.909C963.024 493.366 967.155 482.423 971.865 473.736C983.79 451.744 992.734 428.156 998.727 403.881C998.85 403.384 998.968 402.887 999.085 402.39H1230.88V-99.7923H1230.9V-102.152L1039.01 -102.15ZM635.959 -99.7923H838.323V223.174C835.593 223.186 832.865 223.209 830.138 223.27C824.196 223.404 817.803 223.956 812.347 226.506C803.192 230.782 797.6 239.29 796.3 248.932C794.271 259.422 793.693 270.065 792.838 280.718C791.792 293.735 790.385 306.724 788.479 319.644C786.234 334.852 783.154 349.964 778.992 364.767C775.63 363.907 772.273 363.031 768.914 362.159C777.843 335.985 782.582 308.08 785.404 280.687C786.169 273.25 786.721 265.792 787.145 258.329C787.529 251.587 788.211 244.625 787.442 237.894C786.305 227.941 778.319 224.212 769.506 223.554C768.868 223.382 768.226 223.23 767.58 223.108C764.272 222.482 760.827 222.484 757.479 222.3C754.101 222.112 750.611 221.769 747.221 222.053C742.524 220.315 737.725 218.781 733.132 216.919C723.412 212.981 714.381 207.815 704.879 203.461C704.642 203.295 704.313 203.253 704.03 203.489C703.016 204.343 701.977 205.192 700.922 206.033C694.165 199.118 687.717 192.539 682.869 183.999C680.607 180.015 678.893 175.863 677.61 171.59C679.023 171.724 680.341 171.036 681.119 169.808C681.273 169.567 681.251 169.344 681.148 169.163C681.141 169.144 681.143 169.124 681.134 169.105C679.353 165.217 677.654 161.617 676.64 157.487C677.603 149.236 675.495 140.636 671.073 133.628C670.657 124.212 667.004 113.716 658.421 110.373C660.498 109.463 662.773 108.852 665.387 108.635C665.436 108.632 665.474 108.605 665.51 108.574C665.573 108.542 665.608 108.492 665.606 108.424C665.628 108.324 665.586 108.226 665.469 108.194C662.925 104.862 658.51 103.219 654.318 103.449C655.961 102.866 657.731 102.437 659.683 102.217C659.915 102.191 660.013 101.825 659.742 101.776C659.732 101.774 659.72 101.774 659.71 101.772C656.477 98.8564 652.927 98.618 649.555 99.8148C649.791 98.4523 649.898 97.0814 649.712 95.7274C649.696 95.6108 649.598 95.5821 649.507 95.6057C649.434 95.5736 649.348 95.5669 649.282 95.6311C648.258 96.6268 647.321 97.7323 646.478 98.9172C643.557 95.435 639.995 92.4583 635.955 90.8101V-99.7923H635.959ZM765.08 378.133C768.05 379.007 771.02 379.882 773.997 380.739C772.706 384.5 771.358 388.245 769.903 391.948C769.026 391.969 768.148 391.991 767.271 392.007C769.9 387.766 768.578 381.703 765.08 378.133ZM600.26 397.21C600.966 399.072 601.656 400.953 602.354 402.836C600.189 402.011 597.94 401.364 595.799 400.874C594.751 398.331 593.73 395.78 592.732 393.219C595.052 394.296 597.425 395.256 599.835 396.11C599.976 396.479 600.119 396.844 600.26 397.21ZM461.44 469.995C465.007 466.394 469.534 463.751 474.029 461.494C474.061 461.477 474.076 461.453 474.103 461.437C474.113 461.431 474.123 461.43 474.133 461.425C474.607 464.249 475.411 466.998 475.751 469.863C475.915 471.242 475.871 472.629 475.822 474.013C475.805 474.48 475.095 478.765 475.061 479.032C468.224 479.16 461.388 479.287 454.55 479.41C456.876 476.265 458.604 472.858 461.44 469.995ZM453.492 479.429C445.104 479.579 436.717 479.701 428.329 479.808C425.425 470.84 415.327 468.203 406.904 467.635C400.624 467.213 394.214 467.549 387.927 467.733C385.777 467.796 369.318 469.606 368.299 467.15C372.697 464.696 377.858 463.017 382.366 461.279C385.525 466.295 395.147 464.33 399.826 463.418C409.224 461.584 417.845 456.952 427.109 454.589C432.868 453.118 437.709 453.652 443.022 456.217C446.944 458.11 450.564 460.285 454.731 461.631C458.906 462.978 463.349 463.085 467.681 462.747C467.877 462.731 468.067 462.711 468.261 462.696C461.576 466.423 454.324 472.165 453.492 479.429ZM473.54 459.968C473.156 460.225 472.739 460.436 472.306 460.627C472.237 460.659 472.171 460.689 472.102 460.722C468.712 462.113 464.074 461.67 460.759 461.22C456.543 460.649 452.63 459.305 448.832 457.407C443.081 454.533 437.748 451.244 431.039 452.248C423.572 453.363 416.611 456.321 409.562 458.891C405.759 460.277 401.9 461.418 397.926 462.194C394.379 462.887 386.578 464.104 383.867 460.693C383.887 460.684 383.909 460.676 383.93 460.667C385.103 460.189 386.281 459.717 387.462 459.247C387.481 459.254 387.493 459.266 387.513 459.271C394.163 460.828 400.811 458.319 407.022 456.059C414.512 453.333 421.737 449.967 429.367 447.624C433.563 446.336 437.743 445.493 442.123 446.282C445.997 446.98 449.652 448.924 453.379 450.136C456.648 451.201 460.127 451.514 463.545 451.506C465.22 451.5 466.892 451.252 468.555 451.044L469.378 450.951C474.701 450.429 478.941 456.338 473.54 459.968ZM333.012 327.538C323.328 331.313 320.484 342.405 322.16 351.83C322.665 357.902 324.692 364.101 326.174 369.573C328.132 376.806 330.478 383.936 333.025 390.99C322.351 390.99 312.185 391.03 302.14 391.064C304.47 383.894 306.414 376.613 308.129 369.277C308.429 368.947 308.552 368.501 308.395 368.122C312.345 350.926 314.92 333.387 317.207 315.928C318.98 302.387 320.562 288.82 322.425 275.29C323.96 264.142 325.114 252.548 329.241 241.991C331.257 236.834 334.484 232.175 339.013 228.943C344.523 225.01 351.67 224.644 358.19 224.558C372.009 224.376 385.848 224.631 399.669 224.673C427.683 224.759 455.698 224.854 483.713 224.947L531.615 225.104C534.308 225.505 536.88 225.965 539.184 227.851C542.78 230.796 542.131 237.483 542.202 241.626C542.352 250.409 541.196 259.192 540.128 267.891C540.121 267.942 540.138 267.977 540.138 268.023C536.552 269.162 533.175 270.919 530.203 273.434C524.804 278.003 522.029 284.714 520.648 291.614C520.624 291.639 520.597 291.653 520.575 291.683C518.962 293.97 517.394 296.043 515.081 297.659C513.403 298.832 511.53 299.065 509.964 300.436C508.991 301.29 509.479 304.366 507.226 303.366C505.647 302.666 505.086 301.772 503.298 301.697C502.495 301.663 501.318 302.336 500.732 302.821C497.885 305.176 495.725 306.332 491.972 306.281C486.401 306.207 480.881 304.51 475.298 304.605C468.819 300.603 462.343 296.601 455.892 292.566C446.72 286.829 437.503 281.069 426.864 278.539C416.968 276.184 406.068 277.298 397.054 282.031C382.804 289.515 380.596 304.865 381.57 319.889C379.546 322.56 377.559 325.244 375.611 327.961C371.798 327.421 367.633 327.567 363.571 328.145C354.181 324.377 341.993 324.037 333.012 327.538ZM341.971 413.602C339.74 418.32 337.028 422.784 332.37 425.514C328.879 427.56 324.513 427.558 320.552 427.549C323.585 426.253 326.331 424.167 328.532 421.777C332.518 417.446 336.345 411.864 338.855 406.178C339.873 408.663 340.909 411.138 341.971 413.602ZM579.005 308.918C577.69 309.583 576.185 310.474 574.786 311.537C572.287 303.879 569.441 296.347 566.805 288.737C566.758 288.602 566.553 288.654 566.589 288.796C568.58 296.851 570.627 304.855 573.391 312.686C573.393 312.69 573.394 312.69 573.394 312.693C572.147 313.832 571.09 315.12 570.499 316.52C569.851 315.286 568.969 314.13 568.235 313.019C566.858 310.937 565.407 308.908 564.001 306.846C563.954 306.777 563.845 306.838 563.888 306.912C565.11 309.082 566.2 311.337 567.236 313.603C568.063 315.41 568.709 317.509 569.998 319.051C569.998 319.084 569.993 319.117 569.995 319.149C567.182 321.265 564.608 323.846 562.114 326.214C560.143 328.086 558.167 330.05 556.347 332.138C553.772 334.533 551.763 337.33 550.657 340.76C548.159 343.306 545.762 345.625 542.881 347.828C541.409 348.953 538.586 350.681 538.615 352.894C538.655 355.901 543.071 358.377 545.816 357.378C545.608 358.065 545.41 358.754 545.255 359.456C544.311 363.724 548.438 367.044 550.814 369.967C554.166 374.091 557.348 379.243 562.348 381.519C562.985 382.626 563.622 383.736 564.167 384.898C564.699 386.032 565.355 388.104 566.702 388.613C567.645 388.97 568.426 388.96 569.084 388.733C575.085 404.362 582.715 419.522 589.811 434.717C584.791 430.65 578.9 427.749 573.131 424.894C566.229 421.479 559.236 420.075 551.724 418.594C543.561 416.985 535.307 414.819 527.037 413.901C524.951 413.67 522.417 414.66 521.231 416.337C520.575 413.824 520.228 411.165 520.185 408.418C520.004 397.163 521.314 385.772 521.657 374.514C522.348 351.91 521.599 329.406 521.138 306.814C520.918 296.065 522.262 284.886 529.504 276.436C536.749 267.984 549.027 267.134 559.276 268.706C580.394 271.943 595.021 286.925 611.352 299.2C611.2 299.19 611.044 299.173 610.894 299.165C601.539 298.61 590.146 300.323 583.17 307.191C582.303 307.477 581.459 307.811 580.633 308.17C579.672 302.231 578.427 296.332 577.242 290.436C577.215 290.299 576.981 290.328 576.995 290.47C577.598 296.624 578.151 302.794 579.005 308.918ZM549.303 445.293C546.891 444.348 544.641 443.042 542.349 441.843C542.033 441.678 541.705 442.078 541.965 442.34C543.539 443.933 545.782 445.599 548.196 446.827C545.148 446.664 542.088 446.63 539.112 446.825C537.426 446.935 535.832 447.406 534.292 448.061C535.063 444.766 534.556 441.338 535.173 437.984C536.099 432.955 541.49 431.29 545.843 430.743C550.417 430.166 555.17 430.702 559.652 431.622C561.869 432.076 563.957 432.773 565.965 433.831C571.663 436.831 566.109 442.727 563.976 445.354C563.605 445.351 563.228 445.353 562.831 445.376C560.25 445.527 557.642 446.255 555.06 447.241C553.247 446.385 551.183 446.029 549.303 445.293ZM551.462 448.757C548.27 450.223 545.162 451.884 542.256 453.149C534.617 456.47 526.375 459.259 517.965 458.843C519.774 457.894 521.557 456.945 523.286 456.039C528.011 453.566 532.707 449.955 537.922 448.696C542.149 447.677 546.928 448.358 551.462 448.757ZM468.207 417.39C467.032 411.533 465.254 405.776 463.692 400.013C463.083 397.772 462.473 395.53 461.866 393.289C465.952 393.987 470.33 393.627 474.446 393.657C479.468 393.694 484.492 393.701 489.516 393.694C499.359 393.679 509.204 393.564 519.045 393.377C518.942 395.371 518.846 397.368 518.731 399.362C518.411 404.947 518.044 410.451 519.025 415.992C519.784 420.283 521.797 424.157 524.595 427.379C515.664 427.309 506.734 427.35 497.804 427.348C488.211 427.347 478.229 426.594 468.67 427.59C468.778 424.228 468.722 419.958 468.207 417.39ZM400.426 420.911C399.623 420.592 398.84 420.223 398.081 419.809C396.192 418.82 395.482 417.72 395.541 416.734C395.541 416.724 395.541 416.712 395.541 416.702C395.711 414.528 399.647 412.931 403.009 414.378C404.912 414.875 406.777 415.46 408.697 415.898C412.205 416.699 415.795 417.03 419.377 417.296C421.214 417.433 423.047 417.556 424.874 417.706C425.241 419.165 426.089 420.496 426.744 421.851C427.746 423.934 428.632 426.074 429.644 428.15C426.409 429.274 423.255 430.68 420.457 432.217C420.403 432.247 420.367 432.294 420.315 432.326C414.367 427.478 407.443 423.957 400.426 420.911ZM419.365 433.063C418.403 434.068 417.888 435.454 417.506 436.776C416.598 439.915 416.141 442.65 414.782 445.498C413.477 446.086 412.203 446.705 410.945 447.34C408.263 442.188 405.431 435.241 401.898 429.157C405.551 429.198 409.206 429.258 412.859 429.338C412.901 429.34 412.93 429.323 412.969 429.318C415.102 430.563 417.225 431.826 419.365 433.063ZM420.908 415.563C414.353 415.2 408.371 413.998 402.052 412.339C399.65 411.709 397.18 412.135 395.583 413.671C395.624 392.611 391.357 371.564 387.801 350.911C385.777 339.163 383.495 327.264 383.079 315.33C382.66 303.308 386.23 291.021 396.753 284.197C406.141 278.11 418.826 278.101 429.259 280.934C440.158 283.894 449.797 290.843 459.251 296.76C479.495 309.429 499.548 322.501 520.085 334.693C520.132 336.365 520.196 338.04 520.21 339.705C520.32 352.968 520.125 366.233 519.664 379.487C519.524 383.501 519.343 387.513 519.143 391.524C509.268 391.717 499.393 391.833 489.518 391.865C488.336 391.869 487.153 391.859 485.971 391.859C480.445 386.63 474.854 381.471 469.245 376.331C464.099 371.616 459.035 366.594 453.457 362.384C452.008 357.243 450.405 351.981 448.494 346.807C449.689 343.274 450.14 339.633 449.821 335.907C449.79 335.555 449.271 335.545 449.266 335.907C449.227 339.019 448.702 341.977 447.743 344.873C447.359 343.884 447.001 342.885 446.592 341.906C446.283 339.609 445.82 337.329 445.224 335.07C447.163 326.268 444.695 316.245 440.62 308.575C440.606 308.548 440.561 308.567 440.571 308.596C442.398 313.543 443.524 318.653 443.899 323.917C444.058 326.138 443.972 328.309 443.806 330.472C439.009 316.547 429.582 303.606 420.472 292.99C420.4 292.905 420.252 293.017 420.317 293.11C425.903 301.146 431.534 309.18 436.205 317.798C439.029 323.011 441.073 328.304 442.74 333.759C438.228 325.329 432.325 317.84 424.105 312.603C423.941 312.499 423.748 312.744 423.897 312.874C439.896 326.816 446.989 345.896 452.5 365.851C455.394 376.334 458.193 386.845 461.036 397.342C462.461 402.604 464.757 409.371 466.126 414.647C467.243 418.954 467.394 422.324 467.257 425.949C464.764 423.817 459.831 423.3 457.47 422.857C451.093 421.66 444.984 420.668 438.831 418.525C432.966 416.484 427.07 415.904 420.908 415.563ZM378.069 373.068C378.133 372.945 378.172 372.805 378.143 372.637C377.868 371.016 377.298 368.479 376.024 366.97C377.646 367.01 379.455 366.498 381.027 365.656C381.933 366.478 382.802 367.233 383.505 368.325C384.682 370.151 384.849 372.478 384.361 374.541C383.732 374.204 383.03 373.931 382.234 373.753C382.116 373.726 382.028 373.902 382.148 373.958C387.474 376.466 388.013 382.46 385.581 387.219C383.984 385.919 382.319 384.626 380.606 383.483C382.821 379.637 381.629 375.146 378.069 373.068ZM385.622 365.665C387.429 366.946 388.328 368.518 388.972 370.337C389.364 372.898 389.738 375.462 390.103 378.026C389.65 377.551 389.116 377.139 388.473 376.824C388.335 376.757 388.23 376.941 388.353 377.029C389.302 377.71 389.9 378.623 390.338 379.631C390.774 382.751 391.186 385.875 391.563 389.004C391.171 388.691 390.776 388.383 390.395 388.067C389.486 387.312 388.632 386.448 387.679 385.738C388.871 381.941 388.424 377.609 385.454 375.246C385.532 375.17 385.596 375.077 385.625 374.941C386.362 371.527 385.108 366.765 381.605 365.315C382.613 364.696 383.497 363.957 384.099 363.136C384.21 362.984 384.002 362.835 383.864 362.901C382.357 363.626 380.966 364.469 379.371 365.012C378.26 365.389 377.112 365.447 375.978 365.604C376.291 365.267 376.588 364.897 376.85 364.471C378.155 362.353 379.12 359.98 380.363 357.787C381.304 356.655 382.143 355.61 383.384 354.729C384.252 354.112 385.319 353.73 386.244 353.191C387.009 357.899 387.765 362.6 388.5 367.301C387.794 366.412 386.879 365.732 385.701 365.47C385.581 365.445 385.524 365.595 385.622 365.665ZM386.039 388.791C386.218 388.765 386.391 388.667 386.511 388.463C386.881 387.832 387.18 387.154 387.444 386.458C387.995 387.21 388.664 387.891 389.303 388.554C390.054 389.332 390.855 390.211 391.775 390.848C391.908 392.007 392.048 393.167 392.172 394.328C391.1 395.028 390.083 395.85 389.087 396.719C388.7 395.43 388.081 394.166 387.604 392.939C387.07 391.561 386.545 390.173 385.941 388.824C385.975 388.813 386.01 388.809 386.039 388.791ZM519.53 319.815C516.761 315.729 513.163 312.079 510.49 307.935C510.397 307.791 510.188 307.916 510.262 308.068C512.661 312.94 515.379 318.694 519.632 322.318C519.777 325.824 519.921 329.325 520.037 332.819C506.097 323.659 491.899 314.863 477.693 306.092C481.943 307.103 486.507 307.497 490.721 307.945C492.876 308.175 494.93 308.012 497.014 307.453C499.334 306.829 502.299 302.667 504.772 303.749C507.258 304.836 509.258 306.861 510.703 303.359C512.088 300.005 514.691 300.267 517.044 298.232C518.185 297.246 519.158 296.153 520.073 295.002C519.821 296.822 519.65 298.636 519.542 300.402C519.15 306.827 519.284 313.319 519.53 319.815ZM483.601 391.857C480.55 391.854 477.497 391.859 474.446 391.842C470.207 391.818 465.722 391.341 461.518 392.009C459.114 383.125 456.717 374.236 454.285 365.359C454.221 365.124 454.15 364.882 454.085 364.645C458.528 369.133 463.445 373.232 468.092 377.482C473.295 382.239 478.447 387.05 483.601 391.857ZM521.97 418.721C523.246 413.996 529.619 416.136 533.101 416.824L542.984 418.778C546.538 419.481 550.092 420.176 553.647 420.879C553.573 422.068 553.784 423.302 553.837 424.483C553.903 425.954 553.786 427.426 553.808 428.893C553.115 428.846 552.454 428.807 551.849 428.772C547.112 428.488 540.586 428.76 536.798 432.122C536.399 432.475 536.054 432.85 535.729 433.236C535.68 433.204 535.643 433.163 535.584 433.14C528.677 430.257 524.231 425.068 521.97 418.721ZM569.239 434.172C566.557 430.501 560.497 429.456 555.529 429.025C555.708 427.521 555.633 425.993 555.541 424.481C555.475 423.423 555.402 422.238 555.103 421.172C556.895 421.528 558.688 421.88 560.478 422.252C570.774 424.385 581.442 430.437 589.691 437.075C588.92 440.905 589.103 445.036 591.223 447.657C589.274 448.091 587.387 448.735 585.802 449.288C580.888 451.002 576.54 451.277 572.096 448.23C570.012 446.801 568.19 445.905 566.061 445.542C568.91 442.252 572.184 438.204 569.239 434.172ZM591.272 438.199C591.328 438.209 591.383 438.216 591.437 438.216C591.483 438.312 591.529 438.41 591.573 438.507C592.844 441.27 594.1 444.201 595.415 447.176C594.448 447.158 593.457 447.249 592.465 447.415C591.326 444.318 590.957 441.257 591.272 438.199ZM591.459 389.922C589.282 384.059 587.026 378.146 585.445 372.091C584.493 368.45 584.416 364.88 585.53 361.28C585.996 359.77 586.78 358.477 587.714 357.292C587.029 363.866 590.601 372.027 592.485 376.988C594.664 382.724 596.894 388.441 599.09 394.169C596.776 393.265 594.446 392.406 592.104 391.588C591.892 391.034 591.667 390.481 591.459 389.922ZM583.701 354.736C583.57 354.895 583.532 355.062 583.55 355.213C582.539 356.778 582.184 358.677 581.932 360.676C581.483 364.245 582.563 375.739 578.768 378.102C578.7 377.994 578.609 377.905 578.493 377.861C574.202 376.253 575.054 366.104 574.845 362.519C574.698 360.003 574.547 357.26 572.338 355.745C572.277 355.703 572.203 355.784 572.238 355.845C573.905 358.648 572.483 372.348 575.394 377.208C575.553 378.767 575.492 380.026 575.142 381.632C574.451 384.715 572.654 384.926 571.444 381.987C571.028 380.973 570.612 379.958 570.194 378.944C568.502 374.821 566.981 371.385 567.011 366.819C567.05 361.079 567.209 354.844 563.921 349.887C563.85 349.78 563.688 349.848 563.717 349.973C564.941 355.624 565.642 361.033 565.563 366.817C565.485 372.494 567.89 377.212 569.993 382.384C570.142 382.749 570.299 383.135 570.473 383.513C570.47 383.537 570.458 383.554 570.458 383.579C570.867 386.171 568.43 388.911 566.332 386.188C565.99 385.533 565.673 384.867 565.379 384.193C564.662 382.634 563.886 381.13 563.015 379.652C560.676 375.677 559.217 371.285 557.555 366.995C556.154 363.378 557.907 357.885 558.098 354.021C558.279 350.353 557.694 346.803 556.198 343.455C556.134 343.311 555.929 343.417 555.956 343.556C556.774 347.623 556.823 351.526 556.558 355.453C556.125 356.52 555.726 357.595 555.147 358.611C554.256 360.174 552.956 361.27 551.715 362.526C551.522 362.72 551.764 362.972 551.987 362.879C553.554 362.213 555.108 360.82 556.237 359.173C556.058 360.849 555.845 362.539 555.632 364.26C555.378 366.297 556.629 368.44 557.327 370.254C558.341 372.889 559.283 375.558 560.497 378.111C560.764 378.674 561.055 379.225 561.355 379.771C558.945 377.609 556.79 375.325 554.692 372.779C553.012 370.741 551.357 368.682 549.704 366.621C547.256 363.57 545.929 361.27 547.251 357.329C548.708 352.983 550.229 348.778 551.254 344.291C551.85 341.678 552.427 339.327 553.832 336.986C553.96 336.771 554.129 336.582 554.271 336.377C558.798 332.014 562.949 327.274 567.703 323.114C570.795 320.408 573.888 317.8 577.933 316.726C582.095 315.622 586.77 317.479 590.437 319.267C598.713 323.299 601.962 331.013 597.766 339.435C594.575 345.836 588.104 349.376 583.701 354.736ZM546.304 355.86C543.808 356.203 538.317 355.778 540.42 351.717C541.306 350.007 543.841 348.642 545.283 347.527C546.869 346.298 548.563 345.025 549.901 343.488C549.379 345.623 548.936 347.78 548.324 349.897C547.741 351.912 546.979 353.874 546.304 355.86ZM547.408 266.554C545.66 266.721 543.934 267.021 542.242 267.436C543.615 256.364 545.413 244.625 543.777 233.502C543.245 229.883 541.392 227.07 538.789 225.341C540.86 225.586 542.869 226.096 544.769 227.188C549.014 229.629 549.362 235.862 549.66 240.111C550.278 248.945 549.374 257.835 547.411 266.451C547.403 266.49 547.413 266.52 547.408 266.554ZM352.556 346.227C352.029 355.458 355.387 365.722 357.915 373.692C360.173 380.814 362.954 387.765 365.667 394.721C365.744 394.918 365.817 395.121 365.893 395.319C362.495 393.542 359.057 391.86 355.602 390.304C353.175 383.985 350.781 377.653 348.416 371.312C346.531 366.256 344.457 361.239 343.781 355.847C343.031 349.863 346.765 344.898 352.556 346.227ZM367.004 398.267C367.822 400.463 368.638 402.67 369.49 404.87C366.201 403.181 362.815 401.627 359.449 400.241C358.405 397.611 357.401 394.964 356.381 392.324C359.767 394.489 363.358 396.479 367.004 398.267ZM367.22 365.154L366.177 355.749C365.824 352.566 364.561 348.127 365.949 345.077C367.18 342.373 369.318 339.825 370.976 337.366C374.487 332.159 378.064 326.975 381.713 321.862C382.244 328.289 383.285 334.59 384.148 340.118C384.746 343.953 385.365 347.779 385.987 351.601C384.645 352.016 383.309 353.137 382.276 353.97C382.246 353.996 382.216 354.028 382.185 354.052C382.609 352.823 382.119 349.621 382.101 350.138C381.95 354.56 378.75 358.132 376.967 361.996C376.57 362.973 375.961 363.809 375.288 364.633C373.819 366.437 371.495 366.014 370.623 363.792C370.092 362.439 370.374 360.94 370.68 359.518C371.02 357.204 371.96 354.958 372.881 352.831C375.606 346.538 380.052 340.449 379.21 333.243C379.195 333.106 379.016 333.108 378.999 333.243C378.147 340.179 374.548 345.889 371.627 352.098C370.156 355.225 367.225 362.032 369.703 365.382C371.127 367.306 372.934 367.568 374.521 366.743C375.001 367.639 375.642 368.425 376.022 369.41C376.397 370.387 376.585 371.434 376.762 372.467C376.123 372.233 375.44 372.058 374.697 371.973C374.504 371.951 374.485 372.242 374.653 372.298C376.779 372.992 378.519 374.399 379.748 376.236C380.069 377.462 380.633 378.217 380.54 379.254C380.366 381.184 379.866 382.406 378.718 383.378C376.519 381.133 374.134 378.361 372.044 376.013C368.929 372.516 367.739 369.838 367.22 365.154ZM378.831 410.975C383.58 404.871 389.521 398.717 392.321 395.777C393.052 402.961 393.571 410.181 393.751 417.463C393.759 417.809 393.928 418.038 394.151 418.175C395.157 421.129 400.27 422.725 402.383 423.682C405.036 424.882 407.59 426.253 410.115 427.678C404.54 427.504 398.965 427.418 393.387 427.426C390.142 427.431 386.894 427.477 383.651 427.538C380.484 427.597 376.82 428.214 373.819 426.892C369.551 425.01 373.231 418.247 378.552 411.337C378.678 411.252 378.776 411.127 378.831 410.975ZM412.206 448.916C419.521 445.897 426.799 442.457 433.879 439.134C434.222 438.973 433.977 438.424 433.623 438.53C428.228 440.156 422.583 442.141 417.142 444.462C417.952 443.02 418.484 441.436 418.839 439.649C419.414 436.747 419.588 434.788 422.582 433.134C424.986 431.808 427.879 430.944 430.457 429.992C435.189 428.246 441.637 425.937 446.403 428.405C451.438 431.015 445.787 440.827 445.012 445.331C444.21 445.065 443.404 444.813 442.584 444.609C434.433 442.57 425.072 447.05 417.686 450.013C409.077 453.468 399.217 458.751 389.64 458.385C397.226 455.407 404.911 452.493 412.206 448.916ZM456.629 449.163C453.132 448.532 449.863 447.073 446.524 445.858C447.194 442.511 448.458 439.649 449.611 436.446C450.282 434.583 451.026 432.325 450.186 430.367C448.12 425.56 443.018 425.271 438.436 425.933C436.041 426.28 433.554 426.889 431.09 427.671C430.425 425.939 429.599 424.27 428.772 422.61C428.016 421.096 427.246 419.202 426.12 417.808C428.349 418.014 430.571 418.286 432.785 418.722C436.524 419.459 440.077 421.026 443.715 422.132C447.535 423.293 451.562 423.773 455.49 424.415C457.24 424.701 458.969 425.054 460.695 425.45C460.6 425.54 460.531 425.658 460.553 425.825C461.641 433.817 464.382 441.793 467.561 449.227C463.942 449.393 460.379 449.839 456.629 449.163ZM461.339 425.606C461.336 425.595 461.327 425.595 461.324 425.587C461.337 425.59 461.351 425.592 461.364 425.595C462.607 425.879 463.812 426.283 464.977 426.806C469.644 429.404 466.826 432.977 464.213 434.319C463.266 431.417 462.326 428.511 461.339 425.606ZM468.226 432.57C468.347 432.636 468.511 431.136 468.616 428.996C477.653 429.94 487.073 429.245 496.139 429.243C506.136 429.241 516.134 429.301 526.131 429.206C526.199 429.206 526.25 429.181 526.31 429.169C528.738 431.498 531.591 433.4 534.658 434.74C532.345 438.762 532.891 443.926 533.128 448.601C530.839 449.72 528.662 451.159 526.508 452.363C523.318 454.144 520.061 455.804 516.782 457.42C516.738 457.366 516.685 457.315 516.614 457.273C512.862 455.006 508.462 453.649 504.413 451.977C499.873 450.101 495.356 448.17 490.817 446.291C482.367 442.792 474.068 438.9 465.567 435.525C466.779 434.698 467.68 433.724 468.226 432.57ZM492.701 471.484C494.034 469.975 495.642 468.805 497.373 467.826C498.857 470.347 501.543 470.822 504.364 471.094C510.311 471.668 516.371 471.374 522.325 471.08C528.271 470.786 534.208 470.325 540.16 470.155C547.065 469.959 552.249 473.501 554.575 479.711C551.198 479.716 547.821 479.723 544.445 479.72C525.852 479.701 507.018 478.837 488.441 479.797C489.496 476.743 490.459 474.023 492.701 471.484ZM550.672 471.19C546.485 468.218 542.016 468.2 537.031 468.391C530.491 468.641 523.964 469.162 517.422 469.395C512.174 469.582 502.912 471.019 498.6 467.184C498.757 467.104 498.909 467.017 499.068 466.939C502.51 466.002 505.945 464.662 509.32 463.127C516.662 467.165 526.096 465.735 533.844 463.749C538.865 462.461 543.716 460.517 548.549 458.669C551.367 457.591 554.116 456.438 557.135 456.046C560.588 455.598 563.822 458.049 566.58 459.756C573.825 464.239 582.169 463.624 590.11 461.56C591.723 461.141 593.359 460.448 594.818 459.531C590.988 464.903 590.667 473.661 589.901 479.733C578.738 479.666 567.573 479.693 556.409 479.711C555.309 476.423 553.551 473.234 550.672 471.19ZM593.368 468.384C593.976 465.032 595.337 462.045 596.461 458.886C600.588 465.448 600.667 472.334 599.042 479.809C596.573 479.779 594.105 479.765 591.635 479.748C592.264 475.967 592.683 472.157 593.368 468.384ZM577.439 461.31C569.724 461.076 564.672 454.301 557.131 454.195C553.583 454.146 549.825 456.205 546.598 457.437C542.717 458.92 538.824 460.343 534.845 461.538C526.5 464.043 518.903 463.908 510.521 462.579C512.49 461.655 514.434 460.679 516.344 459.689C521.505 461.705 528.197 459.876 533.224 458.455C541.316 456.166 548.791 452.095 556.567 448.982C560.99 447.21 565.651 446.358 569.899 449.036C572.475 450.66 574.613 452.474 577.826 452.657C583.687 452.99 588.844 449.639 594.193 449.545C595.564 449.935 596.662 450.828 597.607 451.996C597.729 452.256 597.858 452.515 597.981 452.777C597.71 460.096 582.472 461.462 577.439 461.31ZM595.824 344.728C597.824 342.153 599.469 339.359 600.478 336.311C602.853 329.14 599.377 322.993 593.419 319.159C586.982 315.016 579.189 313.376 572.416 317.492C572.145 317.656 571.883 317.837 571.618 318.011C572.923 313.954 578.082 311.146 581.484 309.475C585.817 307.345 590.055 306.765 594.823 306.592C595.143 306.581 595.246 306.058 594.903 306.009C592.342 305.637 589.69 305.735 587.097 306.2C594.955 301.783 602.983 300.257 612.437 300.832C623.254 301.489 633.506 304.642 644.047 306.755C644.24 306.794 644.392 306.505 644.189 306.417C640.563 304.84 636.703 303.563 632.742 302.529C643.592 302.424 653.924 306.217 664.88 306.141C671.71 306.094 676.966 309.387 682.485 313.024C688.296 316.855 693.119 321.446 697.288 327.002C697.433 327.197 697.735 327.033 697.619 326.809C695.004 321.821 690.996 317.722 686.55 314.314C685.776 313.721 684.973 313.117 684.158 312.516C687.779 313.579 691.276 314.725 694.791 316.361C698.408 318.047 701.879 320.085 705.608 321.515C705.758 321.573 705.897 321.341 705.768 321.24C699.13 316.008 689.733 311.185 681.222 310.325C681.168 310.32 681.124 310.333 681.077 310.34C679.113 309.025 677.059 307.804 674.934 306.831C674.951 306.812 674.973 306.8 674.988 306.778C679.503 300.137 689.838 301.635 696.867 301.313C703.001 301.033 709.193 299.515 714.719 296.837C714.84 296.778 714.754 296.579 714.627 296.621C705.597 299.501 697.085 299.865 687.705 300.149C687.412 300.157 687.111 300.169 686.805 300.183C689.442 298.867 691.846 297.113 693.756 294.849C695.34 292.973 696.162 290.544 696.958 288.265C698.513 283.81 700.34 280.483 703.625 277.073C708.784 271.716 712.77 265.978 717.313 260.11C722.052 253.989 727.714 248.677 732.769 242.833C732.897 242.684 732.701 242.488 732.554 242.618C729.055 245.693 725.754 249.003 722.586 252.433C724.618 246.603 727.373 240.744 729.888 233.749C729.924 233.652 729.761 233.58 729.719 233.678C726.428 241.295 722.295 248.607 719.156 256.256C718.608 256.885 718.05 257.505 717.513 258.139C713.03 263.427 709.443 269.358 704.519 274.266C700.361 278.409 697.609 282.351 695.693 287.919C693.114 295.421 688.105 298.015 681.597 300.798C678.222 301.521 675.071 303.036 673.746 306.254C673.74 306.268 673.742 306.28 673.739 306.293C672.241 305.685 670.713 305.208 669.158 304.929C666.37 304.427 663.394 304.743 660.574 304.637C656.455 304.481 652.359 303.54 648.331 302.728C642.014 301.454 635.321 300.157 628.945 301.628C623.681 300.477 618.318 299.748 613.11 299.346C610.534 297.047 607.937 294.745 605.312 292.478C605.327 292.432 605.356 292.397 605.363 292.344C606.007 287.762 606.906 283.292 608.023 278.897C608.073 278.806 608.11 278.705 608.11 278.579C608.11 278.568 608.11 278.556 608.11 278.544C610.084 270.871 612.741 263.427 615.977 256.031C616.053 255.856 615.82 255.707 615.715 255.878C612.442 261.207 609.834 266.934 607.853 272.878C607.498 268.309 606.886 263.723 606.783 259.147C606.622 252.057 607.379 245.164 607.917 238.118C607.929 237.968 607.694 237.941 607.658 238.083C606.049 244.344 605.488 251.08 605.204 257.521C604.942 263.491 604.868 270.241 606.179 276.254C605.207 275.224 604.12 274.274 603.11 273.339C601.191 271.568 599.154 269.937 597.097 268.331C597.012 268.265 596.892 268.375 596.975 268.452C598.698 270.073 600.31 271.799 601.869 273.576C603.336 275.249 604.57 277.205 606.125 278.789C605.07 282.854 604.274 286.986 603.76 291.137C590.048 279.452 575.308 269.095 556.871 266.732C555.36 266.537 553.837 266.427 552.314 266.388C563.626 257.661 573.857 248.093 583.199 237.243C588.366 231.24 596.578 229.837 603.466 226.519C609.621 223.554 615.429 219.671 620.519 215.107C620.963 215.954 621.396 216.801 621.832 217.536C624.944 222.787 628.161 227.765 633.788 230.556C637.098 232.195 640.246 231.778 643.178 230.395C643.239 230.476 643.315 230.552 643.418 230.613C651.766 235.595 662.63 236.085 671.771 233.037C671.996 232.963 671.969 232.599 671.714 232.61C662.226 232.971 653.463 234.388 644.821 229.516C645.949 228.84 647.041 228.045 648.094 227.199C649.38 226.164 650.645 225.04 651.872 223.847C659.903 227.701 671.425 224.254 679.155 221.308C687.38 218.172 694.835 213.216 701.522 207.506C701.684 207.509 701.813 207.392 701.852 207.23C702.808 206.407 703.746 205.567 704.673 204.717C706.933 206.211 709.287 207.583 711.679 208.905C703.429 218.75 693.486 225.371 681.707 230.409C681.493 230.5 681.651 230.819 681.859 230.77C694.289 227.909 705.579 219.803 713.353 209.816C724.482 215.738 736.711 220.091 748.356 224.33C756.022 227.121 762.986 230.797 767.732 237.525C763.317 234.17 756.884 233.477 751.29 233.906C751.138 233.918 751.136 234.134 751.29 234.144C758.807 234.65 766.237 236.166 770.56 242.608C772.085 246.31 772.773 250.288 772.878 254.304C771.363 272.388 758.971 285.507 747.414 298.431C747.331 298.524 747.438 298.676 747.549 298.607C751.971 295.877 755.825 292.153 759.228 288.068C758.134 290.045 757.019 292.011 755.847 293.947C751.4 301.29 746.522 308.369 741.232 315.129C731.842 327.127 720.921 337.234 709.047 346.592C705.976 345.782 702.905 344.969 699.833 344.165C691.283 341.927 682.721 339.271 674.03 337.596C671.717 334.472 669.102 331.558 666.34 328.868C666.262 328.792 666.115 328.897 666.184 328.988C667.75 331.047 669.236 333.15 670.699 335.27C661.203 335.016 651.326 336.683 641.862 337.415C636.971 337.794 632.086 338.091 627.181 338.115C622.642 338.137 618.166 337.532 613.651 337.351C617.586 334.753 620.794 330.748 622.042 326.421C622.084 326.275 621.876 326.191 621.8 326.319C619.129 330.831 616.083 334.073 612.033 336.634C614.472 333.601 615.978 329.954 615.87 325.751C615.867 325.592 615.617 325.547 615.585 325.712C613.509 336.644 605.422 341.558 595.824 344.728ZM558.837 259.274C562.513 249.84 563.925 239.074 571.386 231.715C580.002 223.216 592.797 224.643 604.087 224.423C603.201 224.891 602.334 225.381 601.423 225.819C595.089 228.865 588.161 230.052 583.038 235.15C577.827 240.335 573.394 246.195 567.999 251.256C565.035 254.035 561.95 256.672 558.837 259.274ZM607.085 185.813C604.925 180.977 599.163 179.734 597.406 174.283C595.969 169.822 595.594 165.496 593.368 161.534C593.422 161.517 593.478 161.5 593.532 161.483C597.881 160.118 602.112 158.37 606.218 156.356C608.441 156.541 610.671 156.583 612.899 156.547C608.521 159.2 604.016 161.564 598.938 162.991C598.934 162.991 598.929 162.991 598.929 162.991C598.564 162.973 598.584 163.503 598.929 163.546C608.735 164.753 618.071 161.943 626.623 157.428C626.007 158.486 625.399 159.548 624.75 160.584C624.692 160.675 624.697 160.767 624.728 160.851C624.586 161.088 624.765 161.47 625.074 161.348C629.388 159.668 633.477 157.163 637.122 154.123C638.332 158.799 640.002 163.422 642.228 167.538C642.303 167.675 642.45 167.69 642.565 167.635C646.164 168.208 649.247 169.202 652.082 171.604C654.413 173.578 655.696 176.191 657.077 178.835C657.187 179.045 657.403 179.077 657.584 179.009C658.138 179.408 659.47 178.964 659.915 178.625C660.037 178.533 660.111 178.358 660.104 178.199C660.904 176.587 659.245 173.728 658.671 172.346C656.985 168.284 655.163 164.469 657.006 160.457C657.011 162.107 657.46 163.803 658.35 165.435C658.451 165.621 658.742 165.493 658.688 165.293C657.555 161.066 657.298 156.052 662.445 154.257C663.03 154.052 663.596 153.943 664.134 154.008C665.072 154.125 665.583 154.345 666.257 154.713C669.219 156.334 670.723 160.237 671.418 162.528C673.33 168.835 672.344 176.653 667.358 181.295C667.243 181.401 667.41 181.558 667.525 181.462C671.154 178.495 673.115 174.007 673.443 169.364C674.014 170.152 674.985 170.718 675.914 171.1C680.002 185.125 688.908 198.369 700.181 206.613C686.783 217.176 670.284 226.247 652.91 222.773C660.932 214.533 666.991 203.325 665.851 194.084C665.792 193.601 665.672 189.309 665.627 189.79C663.725 209.441 656.62 218.091 646.082 226.874C639.743 232.156 632.598 230.573 626.207 221.543C624.571 219.23 623.23 216.7 621.763 214.281C620.73 212.577 619.303 209.778 617.5 208.721C616.58 208.182 615.072 208.77 614.19 208.971C612.667 209.319 610.689 209.441 609.131 209.492C605.752 209.603 607.511 203.188 607.623 201.606C607.969 196.642 609.187 190.514 607.085 185.813ZM725.813 351.001C720.698 349.66 715.584 348.309 710.471 346.96C722.838 338.88 733.35 327.839 742.483 316.38C751.586 304.958 760.31 291.884 766.377 278.324C762.643 290.855 759.331 303.511 755.192 315.934C752.642 323.583 749.911 331.169 747.059 338.71C745.039 344.053 742.49 349.374 740.429 354.785C735.559 353.516 730.683 352.275 725.813 351.001ZM730.221 377.553C729.474 379.583 728.837 381.654 728.276 383.767C721.206 381.563 714.124 379.397 707.044 377.222C700.224 375.127 692.781 373.652 686.043 371.087C683.019 368.599 679.998 366.126 677.05 363.579C678.279 363.9 679.508 364.223 680.737 364.544C692.426 367.597 704.123 370.616 715.801 373.711C718.088 374.316 724.067 375.614 730.221 377.553ZM609.624 354.425C609.754 353.878 609.927 353.369 610.121 352.877C614.06 348.33 623.565 350.253 628.558 351.137C634.285 352.152 639.906 353.861 645.526 355.333C654.673 357.727 663.82 360.12 672.966 362.51C676.937 366.283 681.351 369.623 685.615 373.04C692.827 378.812 698.581 384.992 704.125 392.195C700.151 392.178 696.179 392.178 692.205 392.149C682.067 392.078 671.93 391.97 661.795 391.835C652.386 391.71 642.577 390.743 633.408 393.331C629.606 394.404 626.214 396.201 623.164 398.492C620.292 388.64 615.733 379.118 612.302 369.459C610.571 364.593 608.378 359.66 609.624 354.425ZM698.983 382.781C703.109 385.268 707.337 387.638 710.958 390.877C711.164 391.063 711.424 390.787 711.257 390.577C706.554 384.697 699.245 380.599 692.725 376.703C691.848 375.935 690.974 375.181 690.117 374.46C689.887 374.265 689.655 374.081 689.426 373.888C693.998 375.592 699.002 376.686 703.376 378.055C710.478 380.276 717.579 382.499 724.687 384.7C723.602 385.043 722.707 385.88 722.009 387.019C721.452 387.929 721.132 389.005 720.747 389.993C720.42 390.831 719.824 391.477 719.406 392.227C714.639 392.22 709.872 392.215 705.106 392.197C703.757 388.75 701.542 385.631 698.983 382.781ZM722.635 390.072C723.426 387.886 724.454 386.358 726.457 385.253C727.204 385.483 727.949 385.721 728.696 385.951C729.192 386.103 729.787 385.775 729.903 385.265C730.465 382.835 731.185 380.469 731.976 378.123C741.554 381.328 750.751 386.074 746.336 392.19C746.332 392.193 746.334 392.197 746.331 392.2C738.129 392.236 729.929 392.241 721.727 392.232C722.133 391.534 722.405 390.709 722.635 390.072ZM742.706 355.374C744.796 350.571 746.466 345.486 748.295 340.715C751.182 333.187 753.888 325.592 756.471 317.955C761.478 303.159 766.549 287.956 769.56 272.575C772.019 267.832 773.989 262.592 774.276 257.456C775.872 244.331 768.404 232.214 756.779 226.161C755.242 225.359 753.658 224.644 752.056 223.963C756.312 224.421 760.707 224.426 764.85 224.786C768.216 225.079 771.519 225.851 774.195 228.023C777.261 230.513 777.493 235.101 777.592 238.703C777.99 252.99 776.906 267.453 775.446 281.654C773.923 296.484 771.463 311.207 768.275 325.766C765.763 337.244 762.234 348.355 758.973 359.583C753.552 358.178 748.127 356.783 742.706 355.374ZM771.267 321.601C774.482 306.312 776.703 290.816 778.108 275.26C778.83 267.257 779.261 259.231 779.496 251.202C779.687 244.664 780.518 237.388 778.524 231.051C777.824 228.828 776.462 227.197 774.771 225.97C777.356 226.744 779.8 227.853 781.886 229.739C786.524 233.935 785.879 241.496 785.691 247.13C785.25 260.472 784.254 273.794 782.741 287.057C779.837 312.534 774.158 337.144 766.82 361.616C765.009 361.146 763.197 360.68 761.385 360.21C765.672 347.679 768.574 334.409 771.267 321.601ZM429.345 -99.7923H633.599V90.0241C632.963 89.8568 632.321 89.7114 631.665 89.6134C631.27 89.5542 631.123 90.0004 631.403 90.2067C632.267 92.0712 632.967 93.9526 633.599 95.8424V97.2505C629.143 95.621 624.302 95.0817 619.805 95.9168C619.599 95.9556 619.618 96.1771 619.743 96.2836C619.77 96.3411 619.821 96.3901 619.904 96.4171C622.485 97.2691 624.466 98.6721 626.158 100.396C618.658 100.322 611.159 102.171 604.313 105.718C595.398 110.337 586.708 118.996 584.559 129.136C579.711 130.827 574.681 130.541 571.912 125.264C571.526 125.97 571.212 126.707 571.002 127.485C570.36 130.629 570.899 133.697 572.235 136.467C570.169 135.102 568.343 133.377 566.839 131.2C566.749 131.07 566.563 131.17 566.607 131.307C566.584 131.325 566.55 131.327 566.545 131.364C565.86 137.377 567.542 143.305 570.979 147.991C567.137 146.819 563.534 145.158 560.328 142.166C560.309 142.149 560.296 142.169 560.277 142.166C560.196 142.134 560.101 142.14 560.086 142.24C559.792 144.034 560.255 145.813 561.161 147.473C560.524 147.208 559.888 146.933 559.251 146.642C559.241 146.637 559.234 146.642 559.224 146.64C559.075 146.522 558.803 146.652 558.876 146.863C561.139 153.506 567.023 157.819 573.584 159.293C570.746 161.155 567.806 162.809 564.484 164.086C564.467 164.093 564.457 164.11 564.445 164.122C564.432 164.12 564.418 164.122 564.405 164.12C564.116 164.1 564.053 164.568 564.337 164.626C573.518 166.492 583.543 164.524 592.426 161.821C593.253 163.97 594.078 166.11 594.686 168.341C595.471 171.217 595.45 174.55 596.948 177.199C598.305 179.597 600.202 181.193 602.332 182.907C604.606 184.74 605.708 186.695 606.174 189.013C605.863 189.053 605.549 189.109 605.217 189.113C604.18 189.126 603.057 188.737 602.127 188.296C602.014 188.242 601.85 188.362 601.938 188.486C602.58 189.392 603.356 190.003 604.408 190.404C604.982 190.622 605.723 190.879 606.406 190.886C606.462 191.704 606.477 192.556 606.445 193.474C606.309 197.272 606.069 201.065 605.777 204.855C605.632 206.733 605.108 209.352 607.102 210.52C608.965 211.612 611.362 211.047 613.363 210.755C616.367 210.315 616.778 209.387 618.818 212.224C619.178 212.724 619.518 213.3 619.849 213.894C615.671 217.274 611.36 220.324 606.757 222.979C595.456 222.689 581.613 221.414 572.228 228.913C568.151 232.17 565.255 236.249 563.308 241.094C560.76 247.432 558.172 254.189 556.861 260.912C554.67 262.729 552.476 264.541 550.305 266.378C550.089 266.383 549.876 266.407 549.66 266.415C552.102 255.518 553.676 242.814 550.628 231.942C547.582 221.073 534.424 222.902 525.731 222.876C497.716 222.792 469.701 222.709 441.686 222.624C437.572 222.613 433.458 222.591 429.343 222.572V-99.7923H429.345ZM223.342 -99.7923H426.985V222.56C404.054 222.452 381.118 222.29 358.187 222.373C347.989 222.41 338.512 224.409 331.927 232.748C326.115 240.106 324.126 250.012 322.645 259.034C316.74 295.01 314.074 331.392 306.3 366.936C282.779 358.293 259.942 351.719 236.454 345.591C232.088 344.452 227.715 343.338 223.34 342.236V-99.7923H223.342ZM223.342 362.784C232.346 365.075 241.336 367.424 250.317 369.806C259.386 372.211 268.439 374.679 277.491 377.147C281.751 378.309 286.011 379.468 290.272 380.628C294.404 381.752 298.572 382.741 301.561 385.986C301.084 387.682 300.621 389.381 300.114 391.071C291.738 391.098 283.426 391.118 274.964 391.103C257.756 391.071 240.55 391.039 223.342 391.008V362.784ZM123.048 383.649C124.917 389.213 127.062 394.692 129.502 400.033H31.0961V-99.7923H220.982V341.644C200.653 336.56 180.213 331.919 159.607 328.092C149.788 326.269 138.716 324.093 129.175 328.263C120.017 332.266 115.233 339.668 115.301 349.66C115.377 360.974 119.483 373.033 123.048 383.649ZM139.531 349.124C142.649 345.77 148.755 346.445 152.817 346.832C158.022 347.327 163.201 348.693 168.304 349.785C177.476 351.748 186.621 353.839 195.749 355.997C204.178 357.989 212.586 360.066 220.982 362.191V391L207.873 390.976C196.835 390.956 185.795 390.875 174.755 390.926C166.612 390.963 158.774 392.361 152.209 397.483C151.639 397.927 151.1 398.399 150.555 398.867C147.17 390.875 143.843 382.871 141.12 374.624C138.768 367.497 133.501 355.61 139.531 349.124ZM140.467 427.362C140.379 427.318 140.28 427.284 140.16 427.274C129.189 426.241 145.183 407.104 147.981 404.019C154.021 397.358 161.413 393.728 170.363 393.05C179.434 392.364 188.717 392.927 197.808 392.946L226.322 393.003C245.33 393.04 264.34 393.079 283.348 393.116C300.134 393.15 317.085 393.4 333.889 393.4C335.086 396.641 336.313 399.871 337.588 403.078C337.649 403.232 337.714 403.384 337.775 403.538C335.216 408.281 332.855 413 329.606 417.422C325.217 423.395 320.211 426.031 313.476 427.538C310.545 427.529 307.614 427.524 304.684 427.517C286.2 427.473 267.716 427.431 249.233 427.387L193.782 427.257C176.038 427.211 158.206 426.694 140.467 427.362ZM273.897 477.781C272.167 480.959 265.664 479.858 262.802 479.889C259.423 479.924 256.045 479.988 252.666 480.043C239.153 480.256 225.639 480.394 212.124 480.536C205.812 480.602 197.152 482.264 191.978 477.882C187.549 474.131 184.799 467.206 182.013 462.238C175.947 451.421 170.879 440.138 165.172 429.149C175.835 429.164 186.505 429.029 197.142 429.057C202.34 429.071 207.538 429.086 212.736 429.1C224.292 435.315 236.053 441.214 247.756 447.144C253.763 450.189 259.834 453.1 265.983 455.845C270.466 457.846 275.006 460.221 279.638 462.118C278.272 467.424 276.506 472.995 273.897 477.781ZM348.788 460.441C340.996 460.453 333.203 460.49 325.41 460.519L302.032 460.605C295.577 460.629 288.876 460.896 281.91 460.896C277.047 458.448 271.754 456.548 266.849 454.367C260.694 451.631 254.642 448.686 248.638 445.637C237.569 440.013 226.665 433.746 215.118 429.108C228.73 429.145 242.343 429.182 255.954 429.22C275.557 429.274 295.163 429.326 314.766 429.38C321.609 429.399 329.675 430.269 335.431 425.736C338.768 423.107 341.109 419.657 342.972 415.925C349.561 430.972 356.981 445.657 364.695 460.16C359.385 460.077 353.973 460.432 348.788 460.441ZM360.482 402.799C363.843 404.775 367.352 406.633 370.881 408.304C371.808 410.51 372.797 412.679 373.916 414.758C371.529 418.355 369.744 422.451 371.128 426.4C372.163 429.35 376.341 429.684 380.069 429.531C381.326 433.397 382.99 437.141 384.618 440.861C386.722 445.667 388.696 450.998 391.639 455.368C389.805 456.146 387.976 456.93 386.147 457.713C386.13 457.67 386.132 457.632 386.11 457.589C376.666 439.661 368.053 421.593 360.482 402.799ZM367.306 467.713C368.564 471.633 388.387 469.381 391.087 469.319C402.233 469.064 421.302 467.02 426.487 479.836C425.307 479.85 424.129 479.877 422.949 479.889C401.45 480.119 379.874 479.272 358.391 479.868C359.204 474.165 362.756 470.458 367.306 467.713ZM475.961 490.359C459.006 490.066 441.977 490.516 425.058 490.513C414.387 490.509 403.715 490.526 393.046 490.523C382.117 490.52 370.734 489.585 359.848 490.607C358.99 489.074 357.933 488.003 357.505 486.209C357.078 484.414 357.671 482.759 358.073 481.06C379.017 482.483 400.299 481.689 421.277 481.484C439.041 481.312 456.805 480.977 474.566 480.573C477.092 483.288 476.292 486.975 475.961 490.359ZM483.36 462.755C481.607 466.329 479.504 469.77 477.612 473.291C477.932 469.207 476.926 464.393 475.454 460.645C475.776 460.405 476.091 460.138 476.395 459.834C476.439 459.79 476.47 459.741 476.51 459.697C479.057 460.115 481.842 460.25 484.599 460.143C484.191 461.016 483.786 461.89 483.36 462.755ZM477.381 458.453C479.196 454.776 476.228 449.607 472.096 449.259C471.197 449.183 470.308 449.169 469.424 449.176C467.71 444.825 466.219 440.43 464.77 436.017C464.774 436.015 464.777 436.012 464.781 436.01C473.041 440.339 481.683 443.977 490.19 447.78C490.206 447.787 490.219 447.792 490.234 447.799C488.606 451.217 487.1 454.69 485.53 458.135C482.797 458.155 480.043 458.262 477.381 458.453ZM601.194 485.372C601.406 487.164 601.106 488.931 600.555 490.626C581.687 490.601 562.819 490.567 543.951 490.574C534.455 490.577 524.958 490.55 515.462 490.533C506.093 490.516 496.585 490.011 487.234 490.616C487.122 489.076 486.669 487.588 486.649 486.011C486.627 484.319 486.82 482.698 487.46 481.184C505.793 482.242 524.395 481.422 542.754 481.451C546.942 481.457 551.129 481.474 555.316 481.493L556.413 481.496C570.871 481.562 585.332 481.648 599.786 481.5C600.402 482.739 601.007 483.775 601.194 485.372ZM599.685 460.38C599.027 459.281 598.241 458.313 597.281 457.564C598.025 456.8 598.65 455.96 599.071 455.035C599.922 456.751 600.833 458.431 601.778 460.083C601.059 460.071 600.297 460.096 599.685 460.38ZM604.019 420.952C601.666 414.855 599.1 408.832 596.588 402.787C598.816 403.754 601.09 404.721 603.382 405.571C604.864 409.471 606.448 413.337 608.39 416.995C607.234 419.16 606.173 421.349 605.19 423.518C604.798 422.663 604.416 421.802 604.019 420.952ZM622.549 460.116C620.935 457.258 619.467 454.313 618.022 451.438C614.261 443.955 610.911 436.24 607.474 428.572C608.157 428.841 608.935 428.995 609.773 429.105C611.274 429.299 612.809 429.389 614.359 429.426C614.366 429.465 614.359 429.5 614.373 429.539C617.37 438.616 621.555 447.442 625.609 456.085C626.215 457.38 626.822 458.705 627.431 460.037C625.8 460.04 624.173 460.064 622.549 460.116ZM629.667 470.154C627.392 467.747 625.477 465.018 623.746 462.162C625.328 462.261 626.914 462.332 628.504 462.381C630.288 466.283 632.12 470.245 634.148 474.048C632.602 472.933 631.104 471.673 629.667 470.154ZM622.745 427.262C620.504 427.255 618.262 427.249 616.021 427.243C614.9 427.249 613.779 427.257 612.659 427.271C612.099 427.276 611.538 427.282 610.978 427.287C608.965 427.592 607.728 426.412 607.266 423.751C607.516 423.609 607.564 423.323 607.486 423.087C615.208 409.376 623.785 395.993 641.076 394.132C650.094 393.162 659.499 394.044 668.551 394.156C678.688 394.281 688.824 394.367 698.961 394.426C718.673 394.541 738.384 394.523 758.094 394.393C773.985 394.286 790.068 394.643 806.018 394.109C807.304 397.616 808.626 401.11 809.984 404.589C807.842 408.12 805.825 411.749 803.719 415.237C800.501 420.566 797.519 425.504 792.245 427.734C791.766 427.719 791.296 427.707 790.847 427.707L775.718 427.669C757.227 427.624 738.736 427.578 720.245 427.533C701.753 427.487 683.262 427.435 664.771 427.382C655.246 427.355 645.719 427.328 636.194 427.301C631.711 427.289 627.228 427.276 622.745 427.262ZM811.011 407.228C812.019 409.775 813.045 412.311 814.083 414.843C811.588 418.545 808.866 422.091 805.724 425.152C803.376 427.44 799.87 427.849 796.422 427.845C798.467 426.463 800.249 424.476 801.779 422.301C804.366 418.621 806.523 414.584 808.846 410.737C809.553 409.564 810.281 408.397 811.011 407.228ZM651.906 459.69C649.215 454.803 646.769 449.785 644.466 444.702C642.178 439.646 640.342 434.245 637.805 429.296C639.509 429.301 641.214 429.307 642.918 429.313C646.289 429.324 649.659 429.336 653.03 429.346C665.37 436.037 678.555 441.407 691.292 447.268C697.575 450.158 703.856 453.062 710.234 455.743C712.947 456.884 715.718 458.1 718.525 459.242C714.303 459.462 710.087 459.748 705.954 459.848C696.491 460.077 687.027 460.223 677.562 460.311C669.148 460.388 660.731 460.419 652.317 460.405C652.183 460.165 652.039 459.932 651.906 459.69ZM718.909 467.481C716.487 471.64 713.578 476.035 711.426 480.546C703.456 480.663 695.484 480.69 687.512 480.649C683.024 480.626 679.62 480.96 675.13 480.96C672.192 480.96 667.937 481.444 665.409 480.171C663.088 479.003 661.864 476.146 660.491 474.054C658.035 470.309 655.755 466.457 653.547 462.562C661.551 462.625 669.557 462.649 677.561 462.588C687.025 462.515 696.49 462.36 705.952 462.145C711.204 462.025 716.629 462.135 722.013 461.994C721.002 463.835 719.967 465.666 718.909 467.481ZM724.244 457.811C724.077 458.139 723.897 458.461 723.723 458.788C720.358 457.571 716.962 456.416 713.664 455.074C706.439 452.134 699.357 448.852 692.269 445.598C680.48 440.185 668.766 434.208 656.7 429.362C665.833 429.392 674.966 429.424 684.101 429.454C696.378 436.321 709.751 441.603 722.543 447.408C724.415 448.257 726.286 449.103 728.157 449.952C726.514 452.341 725.557 455.231 724.244 457.811ZM739.26 479.835C737.182 480.051 735.088 480.196 732.982 480.294C734.589 477.659 735.965 474.862 737.339 472.135C739.792 467.27 742.419 462.439 744.755 457.515C747.406 458.798 750.09 460.172 752.811 461.396C750.715 467.735 746.447 479.084 739.26 479.835ZM823.532 459.014C815.656 459.158 807.779 459.239 799.902 459.28C792.025 459.32 784.148 459.3 776.271 459.237C768.904 459.18 761.762 458.987 754.052 459.225C751.212 457.909 748.268 456.725 745.394 455.535L743.935 454.929C743.164 454.602 742.402 454.273 741.655 453.936C735.098 450.983 728.539 448.03 721.984 445.072C710.51 439.893 699.106 434.064 687.357 429.463C694.956 429.488 702.558 429.512 710.158 429.539C732.573 429.622 754.985 429.705 777.4 429.788C783.003 429.808 788.607 429.83 794.211 429.85C798.413 429.865 802.397 429.948 806.055 427.632C809.204 425.638 811.507 421.819 813.709 418.885C814.15 418.296 814.573 417.693 815.002 417.096C816.121 419.797 817.252 422.492 818.4 425.174C823.27 436.571 828.652 447.743 834.634 458.597C830.916 458.739 827.197 458.948 823.532 459.014ZM848.332 436.409C842.687 425.354 837.88 413.871 832.31 402.789C837.332 402.395 843.847 407.358 847.779 409.356C852.715 411.863 857.666 414.342 862.62 416.812C873.026 421.998 883.468 427.113 893.942 432.161C912.784 441.243 931.722 450.136 950.776 458.764C946.443 458.84 942.109 459.014 937.871 459.014C928.39 459.014 918.907 459.029 909.425 459.05C893.25 459.084 876.735 458.247 860.526 459.19C856.271 451.693 852.236 444.059 848.332 436.409ZM951.315 477.423C949.313 481.126 944.673 480.43 941.149 480.45C937.285 480.47 933.42 480.492 929.556 480.511C922.379 480.545 915.203 480.578 908.026 480.612C900.848 480.646 893.673 480.68 886.495 480.714C883.285 480.729 880.165 480.626 877.031 479.848C872.823 478.803 870.247 475.338 868.062 471.876C865.849 468.37 863.734 464.795 861.659 461.193C877.508 461.959 893.627 461.083 909.425 461.043C918.349 461.019 927.274 460.994 936.198 460.951C943.625 460.916 951.354 461.435 958.869 461.06C956.614 466.672 954.143 472.186 951.315 477.423ZM959.751 458.852C958.195 458.771 956.624 458.747 955.054 458.737C932.906 448.581 910.825 438.287 888.889 427.683C877.421 422.14 865.983 416.538 854.578 410.867C849.123 408.154 843.671 405.434 838.223 402.708C836.093 401.641 833.723 400.728 831.587 401.374C831.149 400.515 830.718 399.655 830.27 398.803C829.409 396.766 828.581 394.717 827.773 392.66C833.495 392.807 838.622 395.938 843.656 398.461C849.542 401.411 855.44 404.337 861.344 407.246C873.155 413.066 885.01 418.795 896.9 424.451C908.79 430.107 920.722 435.673 932.688 441.167C942.185 445.527 951.698 450.361 961.423 454.345C960.865 455.848 960.335 457.358 959.751 458.852ZM976.544 403.125C973.847 415.884 970.323 428.462 966.183 440.826C964.924 444.587 963.597 448.383 962.224 452.175C952.373 447.42 942.078 443.346 932.169 438.806C919.7 433.092 907.277 427.279 894.89 421.388C882.503 415.497 870.165 409.506 857.864 403.44C851.959 400.527 846.068 397.589 840.182 394.636C835.993 392.533 831.866 390.76 827.224 391.243C824.751 384.845 822.516 378.354 820.552 371.763C818.665 365.433 815.67 357.884 817.365 351.286C819.664 342.349 832.775 345.779 839.273 346.685C852.552 348.536 865.568 351.954 878.589 355.076C891.771 358.237 904.936 361.471 918.056 364.875C931.17 368.28 944.213 371.954 957.14 376.018C962.814 377.803 968.925 379.304 974.13 382.247C981.802 386.586 977.986 396.299 976.544 403.125ZM965.612 358.675C926.508 346.671 886.502 336.208 846.406 328.118C837.415 326.304 828.35 324.421 819.235 323.348C811.647 322.453 804.263 323.824 798.856 329.495C790.321 338.444 791.751 350.931 795.593 361.952C798.34 371.826 801.495 381.612 804.975 391.287C793.977 391.303 782.949 391.647 771.943 391.908C780.985 368.809 786.677 344.67 790.38 320.173C793.903 296.885 795.107 273.397 797.275 249.973C799.316 239.187 805.71 230.109 816.821 226.791C822.432 225.116 828.465 225.074 834.269 225.037C841.462 224.991 848.658 225.02 855.85 225.013C883.924 224.984 911.998 224.954 940.072 224.922C954.109 224.906 968.146 224.89 982.183 224.874C988.525 224.868 994.901 224.67 1001.24 224.939C1009.53 225.29 1013.4 230.578 1014.72 238.22C1017.1 252.034 1014.69 267.212 1012.45 280.868C1010.25 294.349 1007.38 307.739 1004.32 321.049C1000.53 337.515 996.101 353.813 991.277 370C984.037 364.25 973.976 361.243 965.612 358.675ZM997.802 377.377C997.149 376.236 996.379 375.117 995.471 374.029C994.666 373.063 993.78 372.166 992.844 371.317C1000.21 347.059 1006.31 322.413 1011.26 297.551C1013.85 284.516 1016.22 271.419 1017.06 258.138C1017.67 248.528 1018.84 235.268 1012.2 227.315C1011.95 227.021 1011.68 226.768 1011.4 226.512C1014.67 227.882 1017.45 230.023 1019.44 233.794C1022.46 239.523 1022.45 246.652 1022.5 252.95C1022.64 268.988 1020.05 285.037 1017.31 300.793C1014.73 315.599 1011.45 330.28 1007.64 344.814C1004.75 355.803 1001.26 366.577 997.802 377.377ZM1036.65 400.033H999.617C1001.05 393.169 1001.61 386.313 999.078 380.051C1003.52 367.674 1007.02 354.885 1010.31 342.209C1014.62 325.582 1018.04 308.729 1020.72 291.766C1023.21 275.961 1025.64 259.432 1023.91 243.425C1023.34 238.171 1021.8 233.105 1018.47 228.946C1015.02 224.636 1009.53 223.529 1004.29 223.385C1003.27 223.211 1002.24 223.099 1001.24 223.022C994.401 222.489 987.364 222.957 980.503 222.969C966.466 222.991 952.429 223.015 938.392 223.037C910.318 223.083 882.244 223.128 854.17 223.176C849.675 223.184 845.179 223.16 840.683 223.165V-99.7923H1036.65V400.033ZM1228.52 400.033H1039.01V-99.7923H1228.52V400.033Z" fill="#1B2F57" stroke="#1B2F57" stroke-width="0.422596" stroke-miterlimit="10"/>
<path d="M219.749 362.018L226.511 363.709L228.201 390.755H218.904L219.749 362.018Z" fill="#FBFFFE"/>
<path d="M815.3 334.321L799.194 334.185C800.643 331.079 803.525 328.802 806.703 327.523C809.883 326.243 813.353 325.871 816.779 325.797C825.077 325.614 833.315 327.09 841.462 328.667C867.929 333.789 894.177 340.04 920.111 347.395C898.104 341.79 875.857 337.127 853.452 333.424C844.765 331.987 835.744 330.613 826.974 329.832C824.1 329.577 822.033 329.649 819.42 329.62C818.204 329.607 816.458 329.734 815.299 330.095C812.765 330.888 813.767 333.529 815.3 334.321Z" fill="white"/>
<path d="M698.925 346.409C684.029 343.284 673.023 340.442 659.165 337.755C662.938 337.141 665.046 337.062 665.046 337.062C668.78 337.859 671.471 338.525 674.85 339.496C682.876 341.8 690.9 344.105 698.925 346.409Z" fill="white"/>
<path d="M357.239 336.71C357.369 336.524 358.016 334.891 358.718 334.051C359.446 333.179 361.116 331.27 362.046 330.618C365.344 328.297 370.339 328.716 374.349 329.081C373.551 330.001 372.136 331.886 372.136 331.886C368.755 332.149 365.794 333.823 368.35 336.492C368.409 336.554 357.239 336.71 357.239 336.71Z" fill="white"/>
<path d="M341.66 335.239L327.37 335.285C329.055 331.411 332.826 328.733 336.868 327.502C340.908 326.27 345.223 326.314 349.436 326.629C353.283 326.916 357.191 327.44 360.679 329.09C355.438 328.758 350.438 328.855 345.3 329.932C344.006 330.202 342.348 330.853 341.486 331.854C340.622 332.853 340.475 334.654 341.66 335.239Z" fill="white"/>
<path d="M137.312 335.483L121.948 335.444C125.491 331.078 131.078 328.758 136.657 328.067C142.237 327.376 147.885 328.146 153.443 329.002C186.835 334.141 219.747 342.39 251.615 353.604C236.27 349.266 222.027 345.292 207.04 341.568C185.413 336.194 163.506 331.397 141.221 331.321C139.945 331.316 138.175 331.635 137.244 332.511C136.313 333.387 136.48 334.595 137.312 335.483Z" fill="white"/>
<path d="M636.551 128.627C632.657 137.051 624.72 142.461 616.703 146.557C616.579 146.62 616.665 146.828 616.797 146.782C625.974 143.601 634.333 138.717 637.199 128.901C637.31 128.523 636.724 128.257 636.551 128.627Z" fill="#4392F1"/>
<path d="M630.685 142.399C628.834 143.591 626.993 145.026 624.983 145.935C624.786 146.025 624.934 146.302 625.122 146.265C627.559 145.793 629.618 144.899 631.05 142.764C631.201 142.543 630.906 142.255 630.685 142.399Z" fill="#4392F1"/>
<path d="M601.604 144.566C593.869 145.005 588.671 140.546 585.502 133.932C585.449 133.822 585.297 133.903 585.317 134.009C586.807 141.763 593.642 147.923 601.692 145.205C602.023 145.092 601.988 144.544 601.604 144.566Z" fill="#4392F1"/>
<path d="M598.279 147.107C595.245 148.126 591.746 148.116 589.1 146.062C589.012 145.994 588.85 146.086 588.929 146.194C591.193 149.269 595.563 150.388 598.693 147.82C599.026 147.548 598.671 146.975 598.279 147.107Z" fill="#4392F1"/>
<path d="M620.003 106.651C610.091 107.212 601.619 112.853 596.723 121.391C596.683 121.46 596.782 121.543 596.837 121.479C602.917 114.208 610.951 109.595 620.091 107.305C620.453 107.214 620.382 106.629 620.003 106.651Z" fill="#4392F1"/>
<path d="M616.015 112.516C611.437 113.11 607.701 115.332 605.374 119.396C605.293 119.536 605.474 119.662 605.59 119.562C608.685 116.915 612.287 114.538 616.084 113.027C616.333 112.929 616.331 112.476 616.015 112.516Z" fill="#4392F1"/>
<path d="M114.564 387.597L114.694 387.973L114.859 388.336L121.426 402.784L109.484 421.75L107.044 425.625L108.958 429.785L147.837 514.304L150.1 519.224H155.515H803.747H803.777L916.97 520.069L918.009 520.077L919.019 519.832L995.931 501.238L1002.07 499.755L1002.39 493.449L1006.57 410.599L1007.78 405.758L1010.35 404.901L1011.46 400.355L1039.35 285.409L1039.69 284.002L1039.54 282.563L1033.63 224.244L1033.24 220.472L1030.17 218.25L990.447 189.513L987.466 187.356L983.856 188.069L851.972 214.11H831.349L830.115 213.699L828.814 213.265H827.442H822.371H821L819.698 213.699L817.246 214.516L800.827 209.262L736.117 140.507L729.92 118.817L728.724 114.63L724.62 113.174L672.895 94.8196L652.391 83.3378L646.139 79.8362L643.165 83.5539C641.786 82.8498 640.422 82.2827 639.279 81.8456C637.024 80.9834 634.839 80.3347 633.408 79.977L630.375 79.2187L627.578 80.6169L625.888 81.4621L619.331 84.7404L619.502 85.2513L552.07 90.74L545.847 91.2465L544.502 97.3434L531.824 154.816L531.487 156.344L531.719 157.891L540.037 213.345L471.751 198.251L468.717 197.58L465.972 199.034L439.091 213.265H408.783L319.744 201.505L311.148 200.37L310.233 208.992L295.181 350.792L249.616 340.277L195.599 326.773L195.487 326.745L195.375 326.72L99.8682 305.59L85.126 302.329L90.0533 316.601L114.564 387.597Z" stroke="#FBFFFE" stroke-width="16.9038"/>
<path d="M120.017 405.968L104.804 387.374V307.926L202.846 323.14L234.963 329.901L326.244 179.457L453.022 213.265L481.759 29.0132H610.228L623.751 84.7958L696.437 76.3439L777.576 157.482L826.597 213.265L961.827 179.457L1026.06 221.717L1036.2 289.332L1014.23 387.374V427.943L1255.95 504.011L1283 -128.192L0 -162V405.968L120.017 427.943V405.968Z" fill="#FBFFFE"/>
</g>
<defs>
<clipPath id="clip0">
<rect width="1133" height="512" fill="white"/>
</clipPath>
</defs>
</svg>
