<svg width="80" height="80" viewBox="0 0 80 80" fill="none" xmlns="http://www.w3.org/2000/svg">
<mask id="mask0" mask-type="alpha" maskUnits="userSpaceOnUse" x="0" y="0" width="80" height="80">
<path d="M80 40C80 62.0914 62.0914 80 40 80C17.9086 80 0 62.0914 0 40C0 17.9086 17.9086 0 40 0C62.0914 0 80 17.9086 80 40Z" fill="#C4C4C4"/>
</mask>
<g mask="url(#mask0)">
<rect x="-11.8413" width="120.653" height="96.2238" fill="#4392F1"/>
<path d="M11.4628 123.272C10.739 123.577 9.9705 123.402 9.2734 123.296C7.90797 123.089 6.47061 123.393 5.16579 122.73C4.96494 122.628 4.68085 122.647 4.44146 122.671C2.63886 122.859 0.950821 122.335 -0.746469 121.863C-1.55299 120.996 -1.64032 120.02 -1.35727 118.894C-0.881059 116.997 0.39345 115.574 1.39056 113.986C1.67566 113.532 1.88474 113.07 2.08149 112.571C2.84332 110.641 3.44641 108.629 5.04506 107.125C5.71751 106.492 6.13875 105.603 6.67095 104.833C7.80882 103.186 9.03863 101.593 9.88984 99.7524C10.3696 98.7147 11.037 97.7648 11.5959 96.7616C13.1365 93.9958 14.2769 91.0476 15.5078 88.1405C16.4679 85.873 17.5703 83.6779 18.891 81.5995C20.0037 79.8483 21.5484 78.6154 23.4944 77.8813C25.9468 76.9556 28.4886 76.2487 30.7746 74.912C31.3382 74.5822 32.3466 74.0475 32.9697 73.7064C32.6882 73.1315 31.9433 72.8911 31.5149 72.5264C30.0477 71.277 29.589 69.7072 29.7477 67.8177C29.982 65.0314 31.6063 63.1882 33.6843 61.606C33.7603 61.5479 33.917 61.5967 34.0362 61.5947C34.2016 61.8474 34.4667 61.964 34.7235 62.092C35.9158 62.6853 36.6016 63.629 36.692 64.9713C36.7223 65.4213 36.6453 65.8893 36.7434 66.3208C36.8472 66.7749 36.2456 67.4047 37.009 67.676C37.5407 67.865 38.0647 68.1527 38.6636 68.0772C38.8249 68.0566 38.978 67.9754 39.1388 67.9534C39.8688 67.8522 40.5988 67.6934 41.3308 67.6806C44.2913 67.6282 46.5665 66.2062 48.4765 64.1088C49.2229 63.2889 49.6498 62.3288 49.5563 61.1C49.4289 59.4289 49.544 57.7393 49.5547 56.0579C50.2395 55.9326 50.8431 56.1047 51.4062 56.51C51.9707 56.9163 52.5584 57.2908 53.1379 57.6761C53.5643 57.9597 53.8031 58.3799 54.0328 58.8227C54.8752 60.4445 55.1182 62.15 54.8639 63.9531C54.6867 65.2091 54.5608 66.4729 54.4386 67.7355C54.1447 70.7793 55.6088 72.7884 58.1871 74.1908C59.8109 75.0739 61.5365 75.717 63.206 76.4907C65.0934 77.3655 67.0681 78.0857 68.6164 79.5585C68.8013 79.7347 69.0186 79.839 69.2837 79.8113C69.2755 80.1544 69.3043 80.5484 69.686 80.6178C70.2387 80.719 70.3522 81.1983 70.5988 81.5368C71.4192 82.6618 72.0094 83.9697 72.3942 85.2499C73.1067 87.6196 73.8167 90.0387 73.7037 92.5774C73.662 92.6848 73.569 92.8019 73.5865 92.8985C73.8434 94.2963 74.1572 95.6854 74.372 97.0893C74.6067 98.6253 75.1826 100.069 75.4708 101.591C75.984 104.299 76.3811 107.031 77.1054 109.697C77.2996 110.997 77.4943 112.298 77.689 113.599C78.0517 115.781 78.7591 117.894 79.0252 120.093C79.3221 122.543 79.1885 124.916 77.6612 127.027C77.2667 127.572 76.8501 128.047 76.2403 128.336C75.1184 129.084 73.9441 129.669 72.535 129.525C72.1702 129.578 71.805 129.627 71.4418 129.687C70.1046 129.908 68.7793 130.106 67.4056 129.905C66.0263 129.704 65.8665 129.937 66.3422 131.291C66.6843 132.265 66.8051 133.288 67.0984 134.27C68.4648 138.85 68.3041 143.223 65.5444 147.344C63.7865 149.969 61.6382 151.945 58.4373 152.545C58.3222 152.566 58.22 152.657 58.1116 152.716C57.6431 153.095 57.0878 152.948 56.5679 152.948C46.0626 152.957 35.5573 152.956 25.0519 152.957C24.5187 152.957 23.9844 152.943 23.4517 152.964C22.7428 152.992 22.5414 153.19 22.7125 153.871C22.6986 154.971 22.619 155.842 22.9899 156.805C23.0803 157.04 23.1687 157.423 23.0968 157.662C22.7007 158.977 23.2118 160.14 23.2981 161.428C23.3819 162.678 23.6803 163.873 23.498 165.132C23.1476 165.521 23.4743 166.077 23.4877 166.507C23.5689 169.197 23.501 172.101 23.444 174.796C23.4281 175.542 23.6639 176.05 23.1363 176.645C22.5682 177.16 21.8413 177.296 21.1354 177.482C21.0527 177.525 20.9695 177.568 20.8863 177.611C20.8282 177.572 20.7707 177.573 20.7132 177.612C20.0006 177.553 19.3621 177.915 18.6984 178.151C17.0386 178.741 15.3249 179.049 13.5993 179.418C13.006 179.545 12.3649 179.507 11.8229 179.851C10.8926 179.979 9.96434 180.122 9.03196 180.229C8.14273 180.332 7.12045 180.665 6.40126 180.132C5.77197 179.665 5.39029 179.711 4.81185 180.009C4.4913 180.175 4.11218 180.247 3.75053 180.308C2.62088 180.499 1.48456 180.651 0.355428 180.844C-0.19424 180.939 -0.821982 180.906 -1.12918 181.537C-1.22473 181.534 -1.28895 181.396 -1.38501 181.393C-2.16996 181.445 -2.9102 181.57 -3.93248 181.811C-4.38146 181.806 -4.82993 181.796 -5.27891 181.799C-5.8856 181.804 -6.15581 181.513 -6.17995 180.905C-6.26009 178.877 -6.52158 176.87 -6.93203 174.882C-7.20995 173.535 -7.29625 172.154 -7.64095 170.815C-7.73856 170.435 -7.8079 170.11 -8.19164 169.943C-7.99695 169.556 -8.04678 169.158 -8.09661 168.744C-8.42589 166.009 -8.98224 163.317 -9.68243 160.658C-10.6544 156.969 -11.3278 153.326 -12.2268 149.508C-11.1722 144.663 -9.49389 140.059 -6.75275 135.904C-3.18402 130.494 1.90118 127.542 8.32047 126.843C10.3563 126.621 12.3967 126.437 14.4254 126.161C14.9607 126.088 15.3783 126.434 15.8581 126.366C17.9566 126.068 20.0217 126.578 22.1068 126.605C23.0536 126.618 23.9952 126.594 24.9328 126.505C25.7953 126.423 26.6475 126.383 27.509 126.508C28.1203 126.597 28.7224 126.561 29.3342 126.39C30.002 126.203 30.6899 126.078 31.3937 126.048C32.1529 126.016 32.9949 125.873 33.6118 125.431C33.2338 124.72 31.9973 124.692 31.7497 123.871C32.118 123.586 32.6327 123.638 33.0124 123.857C33.4855 124.13 34.4882 124.124 35.003 124.235C35.8403 124.415 35.6841 123.935 35.5999 123.086C35.5716 122.802 35.5049 122.517 35.5121 122.235C35.5758 119.772 35.8927 117.345 36.6088 114.982C36.6946 114.699 36.8672 114.366 36.4475 114.293C34.8771 114.023 33.5821 113.118 32.1622 112.503C31.4969 112.214 30.8794 112.177 30.4186 112.853C29.3712 114.387 28.5051 115.182 28.0258 115.238C25.1038 115.206 25.2456 116.182 25.7639 116.716C26.1204 117.083 26.1852 117.444 25.9191 117.806C25.4768 118.408 25.2394 119.112 24.8593 119.74C24.3076 120.65 24.0168 120.644 23.2889 119.76C23.6711 119.44 24.3029 119.247 23.9238 118.525C23.7312 118.159 23.1784 118.033 23.1872 117.583C23.198 117.02 23.8658 117.086 24.1499 116.754C24.5028 116.341 24.5387 115.377 24.1658 115.353C23.3413 115.3 22.7849 114.829 22.0216 114.643C19.9595 114.141 17.8713 113.522 16.1679 112.112C15.4661 111.53 14.3196 111.878 14.1028 112.743C13.8629 113.7 13.2598 114.367 12.499 114.834C11.6 115.386 11.3513 116.104 11.6534 117.014C11.864 117.648 11.7387 118.2 11.3534 118.62C10.7595 119.267 11.0472 119.984 10.9501 120.682C10.8397 121.477 10.7996 122.121 11.4371 122.689C11.6061 122.84 11.5173 123.074 11.4628 123.272Z" fill="#8B696B"/>
<path d="M49.5538 56.0579C49.5431 57.7398 49.428 59.4289 49.5554 61.1C49.6489 62.3293 49.2225 63.2894 48.4756 64.1088C46.5651 66.2062 44.2899 67.6277 41.3299 67.6806C40.5979 67.6934 39.8679 67.8521 39.1379 67.9533C38.9766 67.9754 38.8235 68.0566 38.6627 68.0771C38.0637 68.1527 37.5398 67.8645 37.0081 67.6759C36.2442 67.4047 36.8457 66.7749 36.7425 66.3208C36.6444 65.8898 36.7214 65.4213 36.6911 64.9713C36.6007 63.6289 35.9154 62.6848 34.7226 62.0919C34.4657 61.964 34.2007 61.8474 34.0352 61.5947C33.9433 61.2027 33.6644 60.9582 33.3361 60.7784C31.8201 59.9488 30.7681 58.6532 29.7458 57.3073C28.6783 55.9023 27.654 54.4742 26.8808 52.8837C25.5246 50.0928 24.8517 47.1133 24.3919 44.0623C24.1782 42.644 24.2383 41.2097 23.9789 39.7955C23.7534 38.5662 24.3621 37.9425 25.6808 37.9379C25.9295 37.9369 26.0687 37.9009 26.1139 37.6554C26.2274 37.0333 26.3589 36.4307 27.1367 36.3089C27.7659 36.2103 28.2509 36.4728 28.6285 36.9922C29.193 36.3197 29.7145 35.9781 30.5965 36.2658C31.5191 36.5668 31.8751 36.2062 32.0092 35.1526C32.0698 34.6759 31.9306 34.1776 32.2814 33.7378C33.0335 32.7952 33.7912 32.7068 34.9075 33.482C35.3288 33.2601 35.2563 32.77 35.4664 32.4294C35.8748 31.7662 36.293 31.533 36.9839 31.644C37.6297 31.7477 37.8983 32.2317 37.9317 32.771C37.9656 33.311 38.1711 33.5817 38.6535 33.7558C38.824 33.8175 39.047 34.0291 39.0593 34.1868C39.1292 35.0874 40.0004 35.354 40.4016 36.0952C40.9323 35.5584 41.5518 35.5918 42.1647 35.5964C42.2469 35.597 42.3624 35.56 42.4061 35.6005C43.2537 36.4004 44.612 36.367 45.3265 37.3328C45.7103 37.8516 46.0976 38.0751 46.748 38.0776C47.5807 38.0807 47.874 38.3951 48.0548 39.2571C48.1298 39.6162 48.0677 39.983 48.6035 40.0534C49.8867 40.2219 50.2026 41.1558 50.2787 42.2659C50.3419 43.1875 50.3506 43.1788 51.2429 43.0462C51.566 42.9979 51.8958 42.983 52.2231 42.9764C53.7945 42.9445 54.5399 43.9298 54.2774 45.512C53.9954 47.2109 52.9931 48.4186 51.7391 49.445C51.2599 49.8374 50.6604 50.2767 50.4837 50.8304C50.0737 52.1178 49.9864 53.4026 49.6761 54.7202C49.5692 55.1702 49.539 55.6069 49.5538 56.0579Z" fill="#EDB8B2"/>
<path d="M73.7028 92.5764C73.3432 89.9683 72.8135 87.7532 72.3933 85.2489C72.0086 83.9687 71.4183 82.6608 70.5979 81.5358C70.3514 81.1972 70.2378 80.7179 69.6851 80.6167C69.3034 80.5469 69.2746 80.1534 69.2828 79.8102C70.0108 79.5308 70.7541 79.7779 71.4579 79.8554C73.7131 80.1041 75.9662 79.9946 78.2208 80.0095C79.9844 80.0214 81.7449 80.0131 83.5038 79.8164C84.4994 79.7054 85.4467 80.0779 86.3821 80.3676C86.9631 80.5474 87.3073 81.0344 87.4922 81.6067C87.7106 82.2812 87.6921 82.9639 87.6309 83.6723C87.184 88.8438 85.9167 93.8524 84.6504 98.8601C84.3268 100.139 84.2996 101.461 83.9831 102.737C83.7098 103.84 83.3281 104.823 82.1677 105.352C81.5153 105.649 80.905 105.609 80.2541 105.537C79.2298 105.422 79.2113 105.432 79.107 106.426C78.8882 108.506 78.7197 110.592 78.3498 112.652C78.2784 113.05 78.4156 113.639 77.6887 113.598C77.494 112.297 77.2998 110.996 77.1056 109.697C77.0922 108.745 76.9011 107.861 76.6823 106.953C76.2924 105.334 76.3571 103.636 75.939 102.018C75.4833 100.255 74.8925 98.6751 74.5797 96.8715C74.3388 95.485 74.0495 94.1103 73.7028 92.5764Z" fill="#6A5959"/>
<path d="M17.5447 84.2487C18.4154 82.5838 19.5276 81.1485 20.9274 79.95C21.1293 79.7769 21.4879 79.7224 21.7746 79.7219C29.8475 79.7096 37.9204 79.7065 45.9933 79.7121C53.4914 79.7173 60.9894 79.7383 68.487 79.7389C68.936 79.7389 69.2155 79.8329 69.4692 80.2562C69.8145 80.832 70.3364 81.2995 70.7114 81.861C71.1932 82.5827 71.6042 83.3518 72.1333 84.2492C53.8047 84.2487 35.7006 84.2487 17.5447 84.2487Z" fill="#9B7C77"/>
<path d="M36.838 65.3838C36.686 65.9392 36.9875 66.3958 36.8324 66.832C36.5843 67.528 36.948 68.032 37.6939 68.0803C38.8636 68.1568 40.0261 68.2524 41.1578 67.827C41.2657 67.7864 41.4075 67.7983 41.5241 67.8255C43.0092 68.1758 44.2097 67.5548 45.3532 66.7226C45.7509 66.4328 46.1921 66.195 46.5574 65.8708C47.0788 65.408 47.6701 65.3489 48.3256 65.3571C50.1949 65.3813 52.0648 65.3653 53.9342 65.3653C54.1561 65.3653 54.3781 65.3653 54.6246 65.3653C54.4772 66.8962 54.3349 68.369 54.1885 69.888C46.0879 69.888 37.9204 69.888 29.6734 69.888C29.4437 68.7014 29.5531 67.5656 29.9872 66.4215C30.2934 65.615 30.7475 65.3217 31.629 65.3592C33.4512 65.4373 34.8808 65.3838 36.838 65.3838Z" fill="#9B7C77"/>
<path d="M54.955 62.3771C52.8067 62.3771 51.2332 62.3771 49.4111 62.3771C49.4111 61.0234 49.4162 59.6991 49.4075 58.3753C49.4049 58.0003 49.5688 57.8775 49.932 57.8862C50.9995 57.9119 52.068 57.9022 53.1355 57.9366C53.2988 57.9417 53.5115 58.0701 53.6076 58.2073C54.0052 58.7755 54.4624 59.3303 54.7172 59.9626C55.0095 60.6875 54.7434 61.4899 54.955 62.3771Z" fill="#9B7C77"/>
<path d="M41.0948 75.4632C41.1025 74.3449 41.948 73.4582 43.0053 73.4592C44.0337 73.4603 44.8787 74.3454 44.8813 75.4236C44.8839 76.5137 43.9982 77.4035 42.9287 77.3845C41.8854 77.3655 41.0876 76.5297 41.0948 75.4632Z" fill="#9B7C77"/>
<path d="M34.7236 74.9326C34.7334 75.958 33.8842 76.8117 32.8512 76.8153C31.8145 76.8194 31.0275 76.0355 31.0157 74.9865C31.01 74.4913 31.5463 74.479 31.9578 74.3002C33.6515 73.5656 32.8696 73.487 32.2871 73.1464C32.1299 73.0545 32.6446 73.0565 32.8368 73.054C33.8488 73.0411 34.7139 73.9021 34.7236 74.9326Z" fill="#9B7C77"/>
<path d="M52.0295 76.8605C51.0863 76.8621 50.2629 76.0206 50.2783 75.0708C50.2932 74.1641 51.0401 73.4238 51.9376 73.4264C52.8689 73.4295 53.6662 74.2149 53.6867 75.1509C53.7078 76.0787 52.9511 76.859 52.0295 76.8605Z" fill="#9B7C77"/>
<path d="M62.6561 76.336C62.1259 77.1374 61.3728 77.3994 60.5904 77.1179C59.7926 76.8307 59.3252 76.0258 59.4428 75.0204C60.5124 75.4581 61.5567 75.886 62.6561 76.336Z" fill="#9B7C77"/>
<path d="M34.9683 62.3791C34.2183 62.3791 33.5895 62.3791 32.8025 62.3791C33.2278 62.0103 33.5515 61.7303 33.89 61.4365C34.2511 61.7524 34.565 62.0267 34.9683 62.3791Z" fill="#9B7C77"/>
<g opacity="0.36">
<g opacity="0.36">
<g opacity="0.36">
<path opacity="0.36" d="M40.4864 34.8505C40.437 33.3495 40.6949 32.039 42.3485 31.6224C43.5414 31.3219 44.3186 31.8325 45.1575 33.2616C46.2599 31.9727 47.3587 30.6237 48.529 29.34C49.3812 28.4055 50.44 27.8461 51.7253 28.4225C52.9792 28.9845 53.2268 30.1095 53.1893 31.3589C53.14 33.0089 52.6222 34.5428 52.0617 36.068C51.9282 36.4317 51.792 36.7949 51.6343 37.2203C52.8642 37.6636 53.2381 38.6078 53.2407 39.7975C53.2417 40.2861 53.3768 40.7741 53.3948 41.2642C53.401 41.4399 53.2869 41.6787 53.1482 41.7902C52.7295 42.1267 52.6874 42.496 53.0856 42.8546C53.1313 42.8957 53.1826 42.9306 53.235 42.9635C54.5249 43.768 54.6976 44.0577 54.1572 45.8588C53.7857 47.0973 52.9196 47.9675 51.9729 48.8208C51.2665 49.4573 50.4014 50.0496 50.3783 51.2337C50.3655 51.8933 50.0434 52.5421 49.917 53.2063C49.7963 53.8433 49.7254 54.4927 49.6838 55.1399C49.6735 55.3023 49.4603 55.7887 49.6006 55.9033C49.8025 56.0687 50.6388 56.2012 50.8689 56.2886C51.7977 56.642 52.3407 56.6739 52.9736 57.3001C53.6373 57.9571 54.1618 58.8468 54.5928 59.6595C54.8563 60.1568 54.826 60.7101 54.8404 61.3363C54.846 61.5782 54.7299 61.8746 54.8316 62.0534C55.0176 63.2421 54.8553 64.0322 54.6251 64.9733C54.2429 66.534 54.0703 68.5066 54.433 70.0729C54.5743 70.6837 55.107 71.5195 55.5031 71.9993C56.9774 73.7834 59.1725 74.725 61.2396 75.6595C62.8604 76.392 64.4847 77.0758 66.0772 77.8643C66.986 78.3143 67.6117 78.8506 68.4798 79.3895C68.7881 79.5811 69.5072 79.6946 69.8607 79.7095C71.5025 79.7779 72.9861 79.7496 74.6284 79.8071C74.8853 79.8159 75.0281 79.5934 75.212 79.7691C76.9241 81.4109 78.472 83.1837 79.5574 85.3208C80.8114 87.7902 82.0088 90.2929 83.382 92.695C84.1679 94.0697 84.6888 95.5132 85.1491 96.9979C85.2478 97.3153 84.9652 97.6837 84.8923 98.0057C84.5178 99.6655 84.2424 101.274 83.8433 102.929C83.5864 103.995 83.0578 104.785 82.1681 105.344C81.9076 105.507 81.5583 105.559 81.2419 105.597C80.6737 105.666 79.8954 105.622 79.241 105.668C78.9538 107.765 78.868 109.916 78.5886 112.003C78.5095 112.593 78.1268 113.31 78.1119 113.903C78.097 114.49 78.0934 115.307 78.2084 115.878C78.6281 117.964 79.1891 119.886 79.1531 122.043C79.13 123.44 78.9646 124.521 78.4493 125.799C78.2865 126.203 77.8848 126.792 77.5504 127.067C76.6375 127.817 76.5219 128.764 76.4264 129.844C76.2692 131.622 76.225 133.452 75.9235 135.206C75.512 137.6 75.7601 139.882 75.7704 142.281C75.7719 142.621 75.5644 142.998 75.6496 143.34C75.6928 143.515 75.6871 143.825 75.6923 144.004C75.8387 148.912 76.093 153.764 76.3344 158.666C76.7731 167.57 77.7913 176.581 79.1526 185.39C79.6098 188.346 80.2108 191.445 80.5833 194.412C81.135 198.809 82.0428 202.952 82.8632 207.297C83.6841 211.647 84.678 215.904 85.5919 220.236C85.7003 220.751 85.7178 221.13 85.8565 221.734C85.5411 221.782 85.5046 221.826 85.1507 221.834C84.3704 221.854 83.589 221.816 82.8087 221.832C82.3926 221.841 81.77 221.828 81.6898 221.839C81.6308 221.669 81.5527 221.503 81.5157 221.328C80.6994 217.465 79.99 213.704 79.2662 209.823C77.9536 202.783 76.5409 195.639 75.3173 188.583C74.893 186.136 74.593 183.667 74.2611 181.205C74.202 180.765 74.0875 180.581 73.5907 180.582C67.324 180.6 61.0568 180.591 54.79 180.591C54.6308 180.591 53.4585 180.61 53.308 180.609C49.4685 180.588 45.4349 180.595 41.5364 180.595C41.7121 181.831 41.8364 183.05 42.0285 184.255C43.0785 190.844 44.0952 197.608 45.1642 204.193C45.8351 208.325 46.8014 212.264 47.4825 216.394C47.6988 217.705 47.8838 219.022 48.0718 220.338C48.1565 220.931 47.3089 221.746 46.5753 221.788C46.3103 221.803 45.9974 221.884 45.7914 221.774C45.5736 221.659 45.3691 221.373 45.3116 221.127C44.9679 219.652 44.6859 218.162 44.3505 216.686C42.9275 210.424 41.4311 204.178 40.0913 197.899C39.4893 195.077 38.9863 192.566 38.5558 189.708C38.4495 189 38.4387 188.56 38.2348 187.846C38.0021 187.018 37.8284 185.68 37.7694 185.598C37.7211 185.599 37.7051 188.038 37.6568 188.038C37.6568 188.306 37.663 188.75 37.6568 189.017C37.4411 198.178 37.2264 207.533 36.9978 216.693C36.9582 218.273 36.8627 219.836 36.7568 221.413C36.7461 221.576 36.7687 221.825 36.6438 221.824C35.6041 221.811 34.5654 221.746 33.4979 221.694C33.335 219.021 33.7208 216.353 33.4172 213.675C33.4609 210.763 33.2148 208.208 33.1177 205.477C33.0196 202.726 32.7263 199.976 32.6071 197.226C32.489 194.496 32.3549 191.768 32.2187 189.038C32.0826 186.312 31.9357 183.586 31.7908 180.817C29.6995 180.817 27.2774 180.809 25.1265 180.809C25.9566 181.82 26.3568 183.012 26.418 184.133C26.4888 185.435 26.3578 186.751 26.2705 188.058C26.2161 188.876 26.0805 189.688 25.9839 190.503C25.9721 190.605 25.9263 190.751 25.9751 190.803C26.3173 191.682 26.084 192.503 26.1929 193.336C26.5284 195.898 27.169 198.579 28.1944 200.939C28.8303 202.403 29.4293 203.783 29.2434 205.392C28.9834 207.636 27.7957 209.053 25.99 210.253C25.1039 210.842 24.1617 211.35 23.2196 211.847C23.0141 211.956 22.7845 212.118 22.4691 212.118C20.63 213.617 17.386 216.417 17.7003 216.345C17.7255 216.384 17.7502 216.423 17.7753 216.462C16.9966 217.033 16.2553 217.665 15.4323 218.164C12.7944 219.762 9.96852 220.855 6.88577 221.26C3.94427 221.646 0.998674 221.788 -1.9536 221.5C-3.27127 221.372 -4.57454 221.098 -5.88552 220.898C-6.02473 220.876 -6.17422 220.879 -6.31292 220.905C-8.37289 221.29 -10.4323 221.224 -12.4846 220.868C-13.5264 220.687 -14.3663 220.142 -15.1097 219.376C-15.9326 218.529 -15.2319 216.825 -14.3283 216.563C-13.3862 216.291 -12.501 216.442 -11.6072 216.712C-10.9224 216.92 -10.2346 217.119 -9.56008 217.357C-9.20151 217.484 -8.86913 217.686 -8.53111 217.851C-8.30302 216.832 -7.96552 216.476 -6.82611 216.454C-5.61993 216.432 -4.40759 216.525 -3.20294 216.625C2.49356 217.099 8.12432 216.991 13.545 214.858C16.0904 213.856 18.3291 212.423 20.1173 210.319C20.8725 209.43 21.7175 208.616 22.4537 207.713C22.7783 207.315 22.9705 206.792 23.1595 206.302C24.0657 203.953 23.9943 201.584 23.3917 199.167C22.6961 196.376 22.6032 193.528 22.7362 190.659C22.7932 189.435 22.672 188.2 22.5806 186.974C22.5348 186.361 21.7889 185.876 21.1905 185.959C20.704 186.026 20.2129 186.069 19.7223 186.095C19.581 186.103 19.3252 186.041 19.3082 185.968C19.1814 185.416 18.7627 185.54 18.3851 185.505C16.8974 185.365 15.3851 185.325 13.9338 185.011C12.9213 184.792 11.9925 184.185 10.9312 183.709C11.1382 183.997 11.3283 184.261 11.5466 184.564C11.466 184.657 11.3509 184.788 11.2199 184.939C10.9076 184.417 10.6163 183.928 10.2855 183.375C9.70346 183.687 9.47074 184.251 9.29711 184.768C9.1055 185.34 9.03409 185.974 9.03152 186.581C9.02793 187.4 9.12194 188.222 9.21081 189.038C9.24574 189.359 9.30532 189.72 9.47998 189.977C10.3882 191.316 10.324 192.898 10.6482 194.383C11.2528 197.152 10.4129 199.801 9.97521 202.483C9.91562 202.847 9.89095 203.235 9.74455 203.564C8.83015 205.627 8.22603 207.879 6.05819 209.143C4.9234 210.09 3.74342 210.877 2.51514 211.663C2.25366 211.83 1.78721 211.732 1.44868 211.702C2.24389 211.069 3.09306 210.492 3.81945 209.789C4.57922 209.053 5.28813 208.243 5.8979 207.379C6.64175 206.326 7.39845 205.241 7.8875 204.062C8.30052 203.066 8.4346 201.922 8.52449 200.829C8.71816 198.479 8.32928 196.168 7.91061 193.857C7.62653 192.288 7.50529 190.69 7.31419 189.105C7.27001 188.738 7.23919 188.37 7.19707 188.002C7.04244 186.658 7.32139 186.921 6.02222 186.616C3.72646 186.077 1.64955 185.1 -0.296376 183.798C-0.597922 183.596 -0.945703 183.434 -1.29502 183.344C-1.52003 183.286 -1.47123 183.351 -1.78768 183.393C-1.706 182.724 -1.5185 181.976 -1.38493 181.391C-1.05102 181.05 -0.768993 181.016 0.0436916 180.993C0.79987 180.972 1.49645 180.545 2.29886 180.403C2.24749 179.978 2.23312 179.695 2.17661 179.42C1.6177 176.708 1.10449 173.986 0.472116 171.291C-0.146388 168.656 -0.914376 166.058 -1.56884 163.431C-2.17707 160.99 -2.7216 158.534 -3.29746 156.071C-3.3627 156.248 -3.44439 156.448 -3.51117 156.652C-4.7189 160.34 -5.93073 164.026 -7.12664 167.718C-7.36089 168.441 -7.6234 169.092 -8.48438 169.036C-9.15579 162.808 -10.5161 156.598 -12.0449 150.521C-12.1168 150.524 -12.3156 150.261 -12.3875 150.264C-12.5617 151.025 -12.6392 152.157 -12.8139 152.919C-12.8416 152.915 -12.8694 152.911 -12.8971 152.907C-12.8725 152.72 -12.8422 152.533 -12.8242 152.345C-12.7081 151.156 -12.4404 150.055 -12.2278 148.883C-10.9055 142.976 -8.62718 137.99 -4.94544 133.46C-4.58276 133.014 -4.26272 132.52 -3.84045 132.139C-3.5312 131.86 -3.08581 131.732 -2.70361 131.532C-2.55053 131.451 -2.38357 131.379 -2.25823 131.264C0.413054 128.819 3.70387 127.619 7.14108 126.955C7.35889 126.948 7.78885 127.099 7.963 126.987C9.03305 126.73 9.64899 126.695 10.4673 126.537C12.5812 126.809 14.6155 126.429 16.7264 126.319C17.7219 126.267 18.7257 126.408 19.7254 126.404C21.6744 126.396 23.6229 126.326 25.5714 126.323C26.6979 126.322 27.8245 126.402 28.951 126.443C29.154 126.45 29.3574 126.444 29.6487 126.313C29.512 126.181 29.3892 126.032 29.2367 125.922C28.894 125.677 28.5411 125.446 28.1846 125.221C28.0218 125.118 27.8497 125.004 27.6668 124.965C26.9841 124.821 26.2777 124.767 25.613 124.57C24.1638 124.139 22.7578 124.116 21.2531 124.419C18.662 124.94 16.0791 124.542 13.5408 123.879C12.966 123.729 12.3943 123.565 11.8153 123.433C11.6776 123.401 11.5143 123.462 11.3668 123.499C11.1125 123.561 10.831 123.749 10.6137 123.69C9.11114 123.282 7.63064 123.615 6.15886 122.909C4.8674 122.29 4.50524 122.717 2.96412 122.38C2.24185 122.38 0.585649 122.351 -0.211625 122.019C-0.396047 121.942 -0.407351 121.596 -0.362659 121.414C-0.337486 121.312 -0.0117865 121.201 0.154655 121.23C0.965286 121.372 1.47386 121.011 1.88894 120.357C2.17302 119.909 2.51103 119.483 2.88398 119.106C3.63142 118.351 4.53248 118.284 5.38985 118.914C5.86349 119.262 6.28781 119.677 6.81744 120.041C6.58628 119.012 7.04913 117.979 6.60271 116.934C6.41778 116.502 6.5385 115.878 6.67104 115.382C7.29519 113.045 8.83014 111.439 10.9641 110.423C12.1261 109.869 13.3667 109.477 14.5796 109.033C15.1436 108.826 15.2859 108.478 14.8467 108.064C14.5837 107.815 14.1871 107.631 13.8265 107.576C12.5802 107.388 11.3756 107.591 10.3461 108.113C10.1072 107.722 9.91818 107.337 9.6603 107.005C9.28992 106.529 9.13991 106.008 9.32588 105.448C9.51441 104.88 10.0091 104.666 10.5716 104.587C11.6011 104.442 12.6362 104.325 13.6564 104.132C14.5924 103.954 15.1837 103.278 15.3738 102.409C15.6096 101.335 15.6671 100.22 15.7801 99.12C15.8813 98.1403 15.9727 97.1586 16.0323 96.1759C16.0811 95.3761 16.5337 94.8172 17.0947 94.1802C17.2313 94.4447 17.3402 94.6492 17.4435 94.8562C17.8005 95.5733 18.4262 95.6699 18.9682 95.0704C19.5209 94.4586 19.8199 93.7569 19.8692 92.9052C20.0485 89.8111 20.2745 86.7191 20.4934 83.6271C20.5149 83.3255 20.6054 83.0291 20.6947 82.5735C20.9804 83.3173 21.212 83.9214 21.4442 84.5255C21.5239 84.5302 21.6035 84.5348 21.6836 84.5389C21.7956 84.2841 21.9816 84.036 22.0062 83.773C22.1115 82.65 22.1675 81.5224 22.2451 80.3964C22.2549 80.2566 22.2831 80.1179 22.4475 79.9561C22.6201 80.8536 22.8939 81.7454 22.9453 82.6495C23.066 84.7557 23.0825 86.8675 23.1343 88.9773C23.1482 89.5316 23.1102 90.088 23.1436 90.6402C23.1831 91.3013 23.0737 91.8967 22.6515 92.432C22.539 92.5748 22.505 92.806 22.4968 92.9986C22.4747 93.5319 22.4989 94.0672 22.4799 94.6009C22.4578 95.2302 22.1927 95.7321 21.6918 96.1358C21.49 96.2987 21.3322 96.5607 21.2418 96.8088C20.8278 97.9431 20.4019 99.0758 20.0665 100.234C19.8769 100.89 19.8728 101.597 19.747 102.274C19.6966 102.545 19.5476 102.798 19.4372 103.057C19.3437 103.276 19.1341 103.507 19.1608 103.708C19.2923 104.7 19.3267 105.75 19.7043 106.65C20.0398 107.45 20.8401 108.041 21.3287 108.793C22.1542 110.065 23.3902 110.656 24.7787 110.922C25.4578 111.052 26.2043 110.92 26.9075 110.82C29.3266 110.475 31.7348 110.051 34.159 109.752C34.888 109.662 35.6585 109.852 36.4029 109.962C38.1284 110.218 39.8478 110.517 41.5744 110.766C42.0136 110.83 42.4693 110.776 42.9362 110.776C42.7801 111.341 42.6311 111.877 42.4826 112.414C42.533 112.44 42.5833 112.467 42.6337 112.494C42.7667 112.385 42.9028 112.279 43.0333 112.166C43.8023 111.502 44.6238 110.931 45.6368 110.701C46.1053 110.595 46.5604 110.614 46.8681 111.03C47.1908 111.466 47.1147 111.953 46.808 112.349C46.4212 112.849 46.02 113.369 45.5248 113.749C44.37 114.635 43.1576 115.446 41.9622 116.279C41.7963 116.394 41.5893 116.541 41.4095 116.531C40.6954 116.491 40.4966 117.021 40.2439 117.503C39.0957 119.688 39.4163 121.51 41.1963 122.713C41.6335 123.008 42.1271 123.243 42.6254 123.42C43.9616 123.894 45.3291 124.238 46.8281 124.095C46.5568 123.914 46.2656 123.755 46.0205 123.544C45.7791 123.336 45.5089 123.108 45.3856 122.83C45.175 122.352 45.4539 122.011 45.9666 122.089C48.2372 122.435 50.5032 122.812 52.7743 123.157C56.4473 123.716 60.1151 124.319 63.8015 124.771C65.0411 124.924 66.3295 124.673 67.5957 124.603C67.8197 124.591 68.0422 124.55 68.2656 124.543C68.9709 124.522 69.5196 124.307 69.8319 123.588C70.154 122.846 70.6903 122.181 70.9194 121.418C71.3057 120.131 71.1398 118.819 70.7206 117.54C70.6482 117.32 70.6199 116.899 70.7222 116.843C70.9826 116.698 71.3941 116.571 71.6258 116.683C72.0845 116.904 72.4621 117.292 72.983 117.696C72.8689 117.307 72.8556 116.898 72.6522 116.637C72.065 115.882 71.4444 115.141 70.7494 114.488C70.4109 114.169 69.8864 114.034 69.4297 113.86C68.9062 113.66 68.3987 113.54 67.9569 113.082C67.6404 112.753 66.9752 112.742 66.4563 112.633C65.6205 112.456 64.4 112.523 63.5595 112.367C63.5554 112.304 63.7881 112.242 63.7845 112.178C64.2351 112.03 64.8376 111.7 65.2733 111.517C66.1168 111.162 66.9449 110.769 67.7807 110.396C67.8911 110.347 68.0093 110.312 68.1269 110.283C68.7942 110.121 69.2565 109.696 69.33 109.034C69.4261 108.165 69.5165 107.262 69.3809 106.409C69.2021 105.284 68.7634 104.204 68.5117 103.087C68.3786 102.496 68.4552 101.86 68.3463 101.261C68.2255 100.596 68.3036 100.065 69.0018 99.7364C70.1535 99.9995 71.1922 99.1724 71.1809 97.9107C71.1614 95.7465 70.5177 93.7014 69.9229 91.6527C69.385 89.8008 68.8821 87.9304 68.1932 86.134C67.586 84.5512 66.9038 82.9495 65.9575 81.5584C65.093 80.2864 63.6412 79.7219 62.0395 80.0172C60.7912 80.2474 59.5773 80.6912 58.3238 80.8572C55.7229 81.2008 53.1097 81.5943 50.4949 81.6472C47.6582 81.7043 44.8277 81.2609 42.2083 80.0666C41.2138 79.613 40.3251 78.9102 39.4266 78.2676C37.5397 76.917 35.6791 75.5305 33.8066 74.161C33.6787 74.0675 33.5395 73.9889 33.2112 73.7798C33.2816 74.4574 33.3335 74.9619 33.3951 75.5552C32.79 75.0779 32.5465 74.8858 31.9172 74.3896C32.2449 74.163 32.7289 73.9082 33.0581 73.6807C32.5634 73.3175 31.5818 72.775 31.1348 72.4467C31.1549 72.4036 31.1754 72.361 31.1954 72.3178C32.059 72.4051 32.9272 72.4616 33.7856 72.586C36.3788 72.961 38.9427 72.9245 41.4634 72.1282C43.5465 71.4707 45.2238 70.1381 46.9051 68.823C47.7795 68.1393 48.3533 67.2172 48.812 66.2113C49.0237 65.7475 48.9065 65.372 48.5526 65.1351C48.3235 64.982 47.9017 64.906 47.6654 65.0134C46.9041 65.3601 46.1654 65.7721 45.4606 66.2257C44.3325 66.9521 43.1556 66.8211 42.0783 66.2925C40.5341 65.5348 39.0798 64.5947 37.5783 63.7486C37.289 63.5858 36.7882 63.3074 36.4342 63.2406C36.8293 64.5223 36.707 66.0018 36.7712 67.3985C36.6608 68.1532 36.0042 67.8511 35.3981 67.2475C35.0529 66.9033 34.7292 66.7256 34.2186 66.2427C34.2222 65.1187 34.2818 63.6135 35.263 62.5024C35.339 62.4161 35.5096 62.3411 35.6144 62.3632C38.4094 62.9555 40.078 61.1924 41.6802 59.398C42.3634 58.6326 43.0672 57.8312 43.2547 56.7283C43.357 56.1273 43.3462 55.5982 42.9758 55.0911C42.7354 54.7618 42.8299 54.5553 43.2578 54.5497C44.9895 54.5266 46.0955 53.5336 46.9709 52.1697C47.2801 51.6883 47.6048 51.2157 47.9423 50.7534C49.0925 49.1768 49.6093 47.4574 49.0607 45.531C48.4961 43.5486 46.7983 42.3465 44.7393 42.3373C43.883 42.3337 43.0272 42.1996 41.991 42.1087C41.9206 40.8383 41.8723 39.5581 41.7701 38.2821C41.7151 37.5948 41.6633 36.8807 41.4383 36.2391C41.1115 35.3067 40.0019 35.2111 39.4297 36.0002C38.8189 36.8432 37.9594 37.3764 37.0728 37.8696C36.8026 38.0201 36.3361 37.7448 36.2899 37.4417C36.0412 35.8024 37.3646 34.5515 38.9987 34.8382C39.4692 34.9199 39.9629 34.8505 40.4864 34.8505ZM6.9695 180.314C7.44519 180.216 7.84229 180.086 8.24555 180.061C10.7304 179.906 13.1946 179.659 15.5392 178.733C15.8423 178.613 16.2465 178.393 16.4716 178.5C17.0757 178.785 17.5061 178.39 18.007 178.281C18.345 178.208 18.4565 178.015 18.4257 177.659C18.2952 176.166 18.1976 174.67 18.0779 173.176C17.7794 169.452 17.4029 165.733 17.1954 162.005C16.995 158.406 16.508 154.873 15.6265 151.374C14.9674 148.756 14.109 146.175 14.0381 143.423C14.0027 142.036 13.3385 140.803 12.4682 139.746C12.0809 139.275 11.8364 138.817 11.7562 138.233C11.6858 137.721 11.5852 137.213 11.4824 136.613C10.8511 136.945 10.2521 137.156 9.77691 137.527C5.86143 140.577 2.52027 144.179 -0.371391 148.207C-0.630814 148.569 -0.99657 148.651 -0.884582 149.059C-0.0523748 152.086 0.610304 154.962 1.41323 157.997C1.47847 158.243 1.56119 158.702 1.62746 158.989C1.75691 159.551 1.76513 160.028 1.88585 160.474C1.98191 160.831 2.07643 161.188 2.15811 161.548C2.93432 164.966 3.72338 168.085 4.51706 171.703C4.64909 172.002 4.82272 172.503 4.8931 172.822C4.96296 173.138 4.98555 173.69 5.00918 174.014C5.14994 175.934 5.68882 177.404 5.82907 179.323C5.83163 179.355 5.87478 179.384 5.92615 179.45C5.99396 180.199 6.06742 180.421 6.9695 180.314ZM53.2592 165.277C51.3903 165.277 49.5209 165.265 47.6521 165.28C45.3322 165.297 43.0128 165.335 40.6934 165.365C40.1453 165.371 39.9896 165.564 40.1119 166.084C40.1401 166.204 40.1792 166.322 40.193 166.443C40.5835 169.888 40.9749 173.332 41.3566 176.778C41.4064 177.227 41.446 177.99 41.6864 178.038C42.1996 178.164 42.8766 177.916 43.3718 178.022C43.5969 178.07 43.9934 178.019 44.1743 178.038C44.6191 178.083 45.0496 177.949 45.4904 178.022C45.665 178.051 45.8356 177.883 45.8628 177.992C46.4377 178.022 47.013 178.056 47.3685 178.054C49.504 178.04 51.0924 178.071 53.2279 178.07C56.3286 178.069 59.3143 178.144 62.4104 178.022C65.4762 177.902 67.9743 178.054 71.015 178.054C71.7213 178.07 72.9095 178.061 73.4551 178.07C74.0361 178.079 73.9226 177.441 73.8409 176.871C73.6904 175.818 73.5496 174.762 73.4356 173.705C73.1797 171.339 72.9229 168.973 72.7051 166.604C72.5936 165.39 72.3696 165.203 71.1691 165.3C69.9444 165.398 68.712 165.439 67.4832 165.438C66.5206 165.437 65.5584 165.289 64.5957 165.285C60.8169 165.264 57.038 165.276 53.2592 165.277ZM58.8406 152.548C59.2429 152.594 59.4858 152.648 59.7283 152.644C60.1177 152.638 60.5055 152.572 60.8949 152.568C64.2027 152.529 67.6281 152.816 70.9353 152.78C72.1775 152.801 71.8405 152.309 71.8251 151.403C71.8107 150.562 71.7116 149.722 71.7249 148.883C71.7671 146.195 71.8652 143.506 71.8991 140.817C71.9181 139.284 71.7794 137.747 71.8472 136.217C71.9284 134.379 72.1508 132.547 72.3193 130.714C72.3398 130.49 72.4354 130.272 72.4405 130.05C72.4503 129.648 72.235 129.438 71.822 129.479C70.0728 129.651 68.3242 129.824 66.5755 130.004C66.1635 130.046 65.9961 130.285 66.1158 130.689C66.3074 131.337 66.5123 131.98 66.7055 132.628C67.3733 134.866 67.9646 137.088 67.9533 139.485C67.9358 143.135 66.5812 146.194 64.3193 148.916C63.6577 149.712 62.7489 150.298 62.0056 151.033C61.6239 151.411 61.2792 151.785 60.7419 151.725C60.0191 152.063 59.4915 151.985 58.8406 152.548ZM27.6714 177.957C28.574 177.957 30.2369 177.959 31.1389 177.941C32.1093 177.922 31.796 177.252 31.7574 176.292C31.7235 175.453 31.6228 174.616 31.6049 173.777C31.5561 171.436 31.5391 169.095 31.5016 166.755C31.4841 165.68 30.9864 165.176 29.9019 165.184C28.239 165.197 26.5762 165.246 24.9133 165.275C24.734 165.278 24.5419 165.276 24.376 165.219C23.7297 164.995 23.4508 165.194 23.5124 165.887C23.5556 166.376 23.7071 166.864 23.6912 167.348C23.5859 170.515 23.458 173.681 23.3111 176.846C23.2859 177.387 23.2124 177.972 23.722 177.973C24.9534 177.977 27.6714 177.924 27.6714 177.957ZM35.656 120.73C35.902 120.561 36.1234 120.288 36.3705 120.262C37.1657 120.178 37.3507 119.555 37.6296 118.997C37.7765 118.704 37.923 118.41 38.0678 118.116C38.7382 116.756 39.4451 115.412 40.0667 114.03C40.604 112.836 40.4448 112.401 39.4451 111.77C38.7793 111.35 38.0129 111.505 37.6502 112.197C37.4257 112.626 37.268 113.104 37.1627 113.578C37.0168 114.233 36.6808 114.415 36.07 114.095C35.8358 113.972 35.5959 113.851 35.3467 113.766C34.515 113.481 33.6736 113.224 32.8429 112.936C30.7002 112.192 30.3658 112.592 29.2963 114.005C29.2839 114.021 29.2762 114.041 29.2629 114.057C28.801 114.6 28.3007 115.116 27.8851 115.693C27.2204 116.616 25.8698 116.968 25.7409 118.348C25.6957 118.832 25.4625 119.298 25.315 119.773C25.3556 119.815 25.3967 119.857 25.4373 119.899C25.8426 119.699 26.2459 119.494 26.6543 119.299C27.7387 118.782 28.9115 118.392 29.5593 117.253C29.588 117.203 29.6492 117.141 29.698 117.138C29.9584 117.125 30.2733 117.043 30.4614 117.159C30.5764 117.23 30.5867 117.662 30.4886 117.851C30.1742 118.456 29.7519 118.975 29.0687 119.23C28.3012 119.517 27.6308 119.853 26.8865 120.194C26.6496 120.302 26.5284 120.756 26.3507 120.919C25.9376 121.465 26.9486 121.69 27.395 121.34C28.3326 120.755 29.2942 120.179 30.2261 119.559C30.5533 119.341 30.9319 119.06 31.1872 119.393C31.3388 119.59 31.2355 120.162 31.0439 120.407C30.6576 120.9 30.1326 121.284 29.6646 121.714C29.4499 121.911 29.2356 122.108 28.8915 122.424C30.3833 122.551 31.5535 122.307 32.5254 121.357C32.9821 121.99 33.615 122.041 34.2633 121.956C34.7333 121.895 35.056 121.623 35.0595 121.097C35.0631 120.621 35.0601 120.146 35.0601 119.608C36.0988 119.703 35.3513 120.402 35.656 120.73ZM19.5214 117.464C18.5007 116.927 17.4507 116.467 16.5091 115.844C15.8638 115.417 15.3542 114.776 14.8195 114.198C14.7178 114.088 14.7054 113.77 14.7922 113.648C14.8816 113.522 15.1488 113.457 15.327 113.475C15.5387 113.496 15.7755 113.592 15.9373 113.73C16.8676 114.522 17.7825 115.334 18.6964 116.146C19.1737 116.57 19.7326 116.559 20.0958 116.1C20.5858 115.481 20.4744 114.65 19.9658 114.338C19.2641 113.909 18.6646 113.535 17.9444 113.135C17.7322 113.017 17.4337 112.925 17.3428 112.739C16.9817 111.999 16.321 111.966 15.6486 111.912C15.4647 111.898 15.2833 111.843 15.0999 111.838C13.8419 111.805 12.5643 111.472 11.3935 112.326C10.941 112.656 10.5685 112.962 10.3985 113.505C10.043 114.641 9.71475 115.789 9.27604 116.893C8.97398 117.653 9.01354 118.354 9.25088 119.113C9.4805 119.027 9.68598 118.941 9.8966 118.873C10.4519 118.692 10.9312 118.919 11.0042 119.488C11.0869 120.131 11.0576 120.79 11.073 121.441C11.0792 121.714 11.074 121.987 11.074 122.179C11.3889 122.085 11.671 122.001 12.0521 121.887C12.1097 121.812 12.3131 121.652 12.3624 121.454C12.4143 121.247 12.3609 120.985 12.2756 120.78C12.1626 120.507 11.8132 120.227 11.8626 120.021C11.9139 119.806 12.2977 119.62 12.572 119.52C13.0133 119.359 13.2773 119.131 13.1843 118.63C13.0991 118.172 12.986 117.717 12.9372 117.255C12.9167 117.063 12.9737 116.743 13.095 116.683C13.301 116.581 13.6246 116.553 13.8311 116.645C14.8344 117.092 15.8299 117.561 16.7998 118.075C17.8185 118.615 18.6918 118.55 19.4341 117.617C19.4464 117.601 19.4541 117.582 19.5214 117.464Z" fill="#7E3B24"/>
<path opacity="0.36" d="M36.2945 50.2628C36.352 51.0313 36.4003 51.678 36.4543 52.4008C35.9061 52.2755 35.5224 52.1142 35.489 51.64C35.451 51.1058 35.5758 50.6023 36.2945 50.2628Z" fill="#421A0C"/>
<path opacity="0.36" d="M39.6512 53.8084C38.7173 53.5089 38.4404 53.1267 38.7368 52.4568C39.0507 52.9212 39.3307 53.3348 39.6512 53.8084Z" fill="#421A0C"/>
</g>
</g>
</g>
<g opacity="0.63">
<g opacity="0.63">
<path opacity="0.63" d="M21.2018 48.0693C21.2516 48.0092 21.1782 47.6599 21.1859 47.5947C21.3446 46.2118 21.826 45.2835 22.7049 44.2895C23.6414 43.2307 24.8661 42.6949 26.1812 42.4648C28.7759 42.0112 30.8539 43.0684 32.5604 44.9645C32.9369 45.3826 33.3284 45.8557 33.4625 46.3993C33.5698 46.8349 33.4527 47.3188 33.7691 47.6856C34.0132 47.9686 33.9397 48.3544 33.8452 48.6919C33.5683 49.6788 33.6161 50.7627 33.1563 51.6863C33.1013 51.7963 32.9498 52.0444 32.921 52.1574C32.5789 53.4843 31.5992 53.7853 30.4907 54.165C30.1424 54.2842 29.8049 54.4367 29.4674 54.5852C28.6804 54.9304 27.8913 55.0182 27.0154 54.9129C24.6395 54.6263 23.0034 53.4052 21.8444 51.3437C21.4484 50.6389 21.6482 50.5783 21.2665 49.8668C21.266 49.4147 21.2018 48.5214 21.2018 48.0693Z" fill="#9DA4AD"/>
<path opacity="0.63" d="M42.9023 54.6423C42.1775 54.7162 41.222 54.7527 40.2465 54.2755C38.2887 53.3179 37.1057 51.8498 36.5236 49.8535C36.1168 48.4577 36.4661 46.9942 36.8688 45.655C37.4185 43.8272 38.6319 42.751 40.4889 42.266C41.5924 41.9778 42.7082 41.8309 43.8234 41.759C44.6346 41.7066 45.5017 41.8145 46.149 42.4777C46.3632 42.6975 46.6801 42.7772 46.9432 42.9205C48.1982 43.6032 48.8141 44.8063 49.0447 46.0402C49.4927 48.4377 49.2281 50.7859 47.5344 52.7549C46.6858 53.7407 44.5955 54.6474 42.9023 54.6423Z" fill="#9DA4AD"/>
</g>
</g>
<path d="M39.0748 53.496C37.8984 52.6941 37.2008 51.5075 36.7148 50.178C36.6563 50.0182 36.7215 49.7758 36.8037 49.6083C37.9452 47.2684 39.1051 44.9377 40.244 42.5967C40.4218 42.2309 40.6375 42.0044 41.0634 41.9833C42.2023 41.9268 43.3396 41.8518 44.6146 41.7763C42.717 45.7899 40.9052 49.6237 39.0748 53.496Z" fill="white"/>
<path d="M23.4816 53.9455C22.3952 52.9602 21.7612 51.8223 21.2938 50.5843C21.2326 50.423 21.2912 50.18 21.3682 50.0079C22.369 47.7815 23.3717 45.5561 24.4099 43.3472C24.5286 43.095 24.8445 42.8145 25.106 42.7713C26.0918 42.608 27.0915 42.5181 28.0896 42.4441C28.3562 42.4246 28.6341 42.5607 28.9352 42.6321C27.1074 46.4248 25.312 50.1497 23.4816 53.9455Z" fill="white"/>
<path d="M79.2809 106.459C79.3451 105.932 79.3631 105.846 79.3631 105.846C79.9893 105.838 81.4015 105.819 81.9311 105.556C82.8764 105.088 83.6387 104.341 83.8822 103.227C85.0653 97.8117 86.2838 92.4034 87.4031 86.9745C87.7026 85.5207 87.8306 84.0012 87.7946 82.5176C87.7545 80.8593 86.8961 80.004 85.242 79.7995C83.987 79.6444 82.7074 79.6552 81.4385 79.6501C77.4321 79.6341 73.4257 79.6536 69.4193 79.63C69.1085 79.628 68.771 79.4384 68.4951 79.2596C67.9115 78.881 67.4045 78.3606 66.7875 78.0601C64.9264 77.1539 63.0236 76.3346 61.1445 75.4644C59.0686 74.5027 57.0127 73.4861 55.5086 71.6917C55.0791 71.1795 54.6569 70.5045 54.5988 69.8706C54.4822 68.5976 54.5716 67.298 54.6635 66.0157C54.7719 64.509 55.1793 62.9962 55.0878 61.5085C54.9414 59.1177 53.7712 57.2586 51.4261 56.3339C50.8611 56.1109 50.2806 55.927 49.5938 55.6851C49.9004 54.2041 50.22 52.7451 50.4969 51.2775C50.595 50.7576 50.8462 50.3985 51.2468 50.0672C52.413 49.1029 53.4538 48.0077 54.0317 46.5894C54.286 45.9647 54.4144 45.2455 54.4123 44.57C54.4098 43.6844 53.7758 43.1542 52.9554 42.8583C53.0864 42.4854 53.1455 42.173 53.2955 41.9121C54.1899 40.354 54.5407 38.6243 54.9646 36.9075C55.431 35.0171 55.2245 33.2617 54.3014 31.546C53.4995 30.0562 52.7844 28.5197 52.0107 26.9632C52.0493 26.937 52.1685 26.8625 52.2804 26.7787C53.7152 25.7066 55.1069 24.5888 56.1785 23.1283C57.5973 21.1947 57.8038 19.1471 56.7728 16.9757C56.6146 16.6428 56.4528 16.3027 56.3634 15.9482C55.9987 14.496 55.2322 13.2734 54.0574 12.3934C52.6976 11.3752 51.2407 10.4834 49.7998 9.57929C49.4283 9.34607 48.9639 9.24744 48.5309 9.12929C46.5911 8.60119 44.6216 8.7738 42.6499 8.87141C40.7225 8.96696 38.9857 9.55669 37.4363 10.693C34.9233 12.5367 33.8327 15.1803 33.4895 18.1433C33.3842 19.0536 33.7777 20.0225 33.9498 20.9631C33.9745 21.0982 34.0392 21.2256 34.1127 21.4326C33.3524 21.7023 32.6296 21.9874 31.8893 22.216C30.2825 22.7122 28.7917 23.4299 27.4668 24.4701C25.0919 26.3349 23.7419 28.699 23.9171 31.8049C23.934 32.1059 23.8827 32.4203 23.8092 32.7152C22.9729 36.0707 22.8403 39.4499 23.4008 42.8629C23.4368 43.0807 23.4907 43.317 23.4907 43.317C22.9554 43.5847 22.0462 44.5833 21.7333 45.1993C19.3096 49.9773 22.3806 55.2926 27.9266 55.1642C27.9266 55.1642 28.1511 55.4236 28.4054 55.7678C29.2941 56.9709 30.1859 58.1776 31.1701 59.3016C31.8272 60.0516 32.6424 60.6629 33.4274 61.3729C33.2409 61.5316 33.0575 61.6867 32.8746 61.8429C31.2939 63.196 30.0944 64.8039 29.5556 66.8469C28.8333 69.584 29.8525 71.9984 32.3095 73.3941C32.4272 73.4609 32.532 73.5523 32.7303 73.6957C31.7177 74.2356 30.8069 74.8022 29.8335 75.2229C27.9112 76.0536 25.955 76.8046 24.0116 77.5865C22.3344 78.262 20.73 79.084 19.641 80.5737C18.6516 81.9273 17.657 83.3097 16.9163 84.8041C15.5498 87.5617 14.4207 90.4359 13.0974 93.2161C10.6321 98.3942 7.99934 103.46 4.18404 107.844C3.17307 109.005 2.76158 110.684 2.05318 112.114C1.71156 112.804 1.34735 113.486 0.945633 114.142C0.399048 115.035 -0.262604 115.862 -0.750626 116.783C-1.56743 118.327 -2.37703 119.91 -1.31726 121.745C-1.65271 121.72 -1.89723 121.712 -2.13867 121.681C-6.94441 121.055 -11.7496 120.423 -16.5554 119.799C-23.2572 118.929 -29.9678 118.536 -36.7092 119.355C-42.3045 120.034 -47.6537 121.498 -52.6926 124.079C-57.8333 126.711 -62.2286 130.157 -65.408 135.064C-69.2787 141.037 -72.0322 147.476 -73.7115 154.385C-74.7682 158.734 -75.7206 163.114 -76.9407 167.418C-79.3315 175.85 -82.6079 183.926 -87.1717 191.442C-88.3655 193.409 -89.5312 195.396 -91.1488 197.065C-91.474 197.401 -91.5747 197.62 -91.5747 197.62C-95.4028 197.314 -99.9517 196.949 -103.778 196.617C-108.954 196.169 -114.131 195.718 -119.298 195.174C-124.404 194.636 -129.498 193.987 -134.595 193.373C-135.686 193.241 -136.771 193.05 -137.879 192.883C-137.96 193.182 -138.028 193.395 -138.076 193.614C-138.664 196.295 -138.673 198.996 -138.308 201.703C-137.733 205.96 -136.355 209.881 -133.469 213.166C-130.762 216.247 -127.453 218.492 -123.737 220.163C-121.077 221.359 -118.36 222.012 -115.361 222C-93.7662 221.904 -72.1699 221.945 -50.5741 221.938C-49.201 221.937 -47.8176 222.003 -46.4562 221.868C-39.887 221.218 -34.5737 218.059 -30.2544 213.255C-28.4436 211.241 -26.9621 208.89 -25.5678 206.552C-22.9284 202.125 -21.2917 197.261 -20.1097 192.277C-19.1064 188.046 -18.3528 183.754 -17.571 179.475C-16.3607 172.849 -15.2285 166.21 -14.0459 159.58C-13.5379 156.731 -12.9882 153.888 -12.4534 151.043C-12.4231 150.882 -12.3568 150.727 -12.2587 150.412C-11.9839 151.306 -11.7085 152.018 -11.5483 152.755C-10.7967 156.205 -10.038 159.655 -9.36243 163.121C-9.01825 164.889 -8.65865 166.687 -8.62885 168.476C-8.53946 173.817 -8.66327 179.161 -8.60471 184.503C-8.50916 193.296 -8.34222 202.089 -8.18245 210.881C-8.17116 211.517 -8.16808 211.759 -8.16808 211.759C-10.2445 211.801 -12.7092 212.116 -14.3223 213.2C-15.3749 213.907 -16.1352 214.806 -16.2245 216.135C-16.371 218.315 -14.8863 220.446 -12.7519 220.912C-11.6197 221.159 -10.5137 221.29 -9.271 221.265C-7.49408 221.23 -5.86717 220.995 -5.86717 220.995C-5.62881 221.096 -3.89093 221.524 -3.50874 221.566C-1.48627 221.788 1.7912 221.761 4.43062 221.634C10.0532 221.365 15.0181 219.411 19.006 215.337C20.8292 213.475 22.9297 212.039 25.206 210.825C26.387 210.195 27.3677 209.34 28.1752 208.278C29.2011 206.928 29.6567 205.413 29.2314 203.759C28.9062 202.496 28.4547 201.256 27.962 200.045C26.219 195.759 25.9617 191.32 26.4389 186.779C26.6459 184.81 26.7548 182.823 25.4721 181.09L25.263 180.863C27.2439 180.863 29.8258 180.898 31.7969 180.887C31.7969 180.887 31.8266 181.094 31.8415 181.388C31.9258 183.071 32.0316 184.752 32.1107 186.434C32.3866 192.303 32.684 198.17 32.9157 204.04C33.1053 208.844 33.2188 213.651 33.3524 218.456C33.3832 219.562 33.357 220.669 33.357 221.939C34.577 221.939 35.5998 221.95 36.6221 221.922C36.7171 221.92 36.879 221.683 36.8867 221.547C37.0172 219.251 37.1774 216.954 37.2339 214.655C37.4292 206.708 37.5894 198.761 37.7554 190.813C37.778 189.725 37.7682 187.228 37.7682 186.139C37.8376 186.139 38.0754 188.062 38.1273 188.32C38.8028 191.661 39.428 195.013 40.1636 198.341C41.8475 205.96 43.59 213.565 45.2914 221.181C45.4142 221.729 45.6074 221.998 46.2197 221.931C46.7673 221.87 47.3278 221.931 47.8826 221.922C48.0192 221.92 48.1549 221.856 48.291 221.82C48.2853 221.756 48.2797 221.692 48.2745 221.627C48.2704 221.627 48.2663 221.627 48.2622 221.627C46.3173 208.352 43.3193 194.105 41.6642 180.759C41.8727 180.742 42.032 180.718 42.1917 180.718C45.8288 180.721 50.0396 180.721 53.6767 180.726C53.6767 180.726 53.7168 180.87 53.7753 181.089C54.1118 182.431 54.4031 183.776 54.1164 185.166C53.8221 186.593 53.5113 188.018 53.2041 189.443C52.4351 193.012 51.2767 196.491 50.8703 200.146C50.576 202.79 50.636 205.373 51.307 207.965C52.8455 213.912 56.1795 218.301 61.9828 220.637C63.826 221.378 65.6995 221.929 67.721 221.8C68.828 221.729 69.9104 221.525 70.8058 220.871C72.8611 219.369 73.6353 217.256 73.3974 214.778C73.2926 213.687 72.9002 212.668 72.0757 211.861C69.9792 209.811 67.5062 209.772 64.967 210.669C63.0801 211.336 61.7332 212.718 61.4008 214.743C61.0607 216.817 61.575 218.741 63.0781 220.312C63.1803 220.419 63.2743 220.533 63.3945 220.67C63.2908 220.691 63.2496 220.71 63.2132 220.704C63.133 220.69 63.0529 220.668 62.9763 220.64C60.7042 219.787 58.5949 218.632 56.8082 216.987C53.2 213.666 51.6933 209.317 51.0773 204.616C50.7034 201.764 51.4046 198.971 51.9979 196.201C52.6385 193.21 53.3597 190.236 54.0948 187.267C54.4873 185.681 54.8531 184.111 54.4961 182.47C54.3753 181.916 54.2592 181.361 54.136 180.78C54.3111 180.76 54.4314 180.733 54.5516 180.733C60.9421 180.732 67.778 180.728 74.1685 180.717C74.1685 180.717 74.2173 180.9 74.2718 181.263C74.9745 185.974 75.5951 190.7 76.4339 195.387C77.7727 202.866 79.2522 210.319 80.6895 217.78C80.9561 219.165 81.3044 220.533 81.6024 221.854C83.145 221.854 84.5891 221.854 86.0413 221.854C85.6442 220.003 85.2425 218.244 84.8922 216.476C83.6372 210.151 82.2615 203.846 81.1914 197.488C79.9749 190.263 78.9634 182.999 78.0069 175.734C77.4285 171.34 77.0663 166.914 76.7129 162.494C76.4411 159.096 76.286 155.687 76.1689 152.28C76.0276 148.175 75.8488 144.063 75.9321 139.959C76.0076 136.248 76.4001 132.543 76.6965 128.839C76.7288 128.434 77.0098 128.025 77.2492 127.668C77.6453 127.076 78.2227 126.579 78.5088 125.944C79.1936 124.427 79.5105 122.792 79.3092 121.134C79.0893 119.325 78.7045 117.537 78.4091 115.736C78.3305 115.256 78.2299 114.755 78.2864 114.28C78.5962 111.672 78.9634 109.069 79.2809 106.459ZM54.1714 37.6488C54.063 37.0087 54.2531 35.651 54.2937 35.651C54.4801 36.3024 54.2125 37.6488 54.1714 37.6488ZM54.0265 31.7175C54.683 32.8718 54.9661 34.1104 54.68 35.481C54.4036 34.2398 53.968 31.7309 54.0265 31.7175ZM56.5966 17.6913C57.6004 19.2606 56.8725 22.31 55.0719 23.7283C56.1564 21.7809 56.179 19.6911 56.5966 17.6913ZM63.3262 220.044C62.7205 219.545 62.3681 219.112 62.3635 218.422C62.3542 217.126 62.7108 215.953 63.3909 214.863C63.5281 214.643 63.6478 214.412 63.7125 214.156C62.6594 215.154 62.1965 216.421 61.9895 217.862C61.931 217.731 61.856 217.605 61.8174 217.469C60.9801 214.496 62.6409 211.561 65.6271 210.751C66.8127 210.429 68.0168 210.353 69.2276 210.591C71.3883 211.014 73.0157 212.741 73.0769 215.027C73.1113 216.305 73.0116 217.666 72.2678 218.83C72.1178 219.064 71.9411 219.281 71.6796 219.639C71.751 218.682 71.8902 217.896 71.845 217.12C71.8008 216.358 71.5691 215.608 71.3303 214.865C71.6955 216.458 71.62 218.035 71.2897 219.615C71.1577 220.246 71.0267 220.425 70.291 220.695C70.7796 218.23 70.797 215.85 69.2287 213.719C69.2806 213.865 69.3299 214.012 69.3854 214.157C69.4439 214.31 69.502 214.464 69.5718 214.613C70.4934 216.575 70.2905 218.624 69.9946 220.665C69.9592 220.91 69.5128 221.095 69.1753 221.253C69.54 218.744 69.0884 216.469 67.7682 214.364C67.8006 214.477 67.8186 214.597 67.8674 214.704C68.7751 216.681 69.0093 218.759 68.7967 220.903C68.7427 221.447 68.3477 221.586 67.459 221.36C68.0435 218.269 67.2062 215.569 65.0795 213.259C65.3718 213.731 65.6712 214.199 65.9543 214.676C67.0649 216.548 67.4246 218.578 67.1842 220.723C67.1467 221.057 67.2196 221.465 66.619 221.471C66.0221 221.477 65.9255 221.06 65.811 220.35C65.7745 220.663 65.738 220.977 65.7 221.301C65.1807 221.361 64.9875 221.136 64.8673 220.648C64.7265 220.076 64.8175 219.543 65.0209 218.592C65.0656 218.383 65.2099 217.875 65.2238 217.656C64.4296 218.654 64.3742 219.793 64.6773 221.053C63.9997 220.767 63.582 220.421 63.5163 219.7C63.4161 218.604 63.6113 217.575 64.0382 216.576C64.1553 216.302 64.2678 216.027 64.2955 215.726C63.3565 216.965 62.9722 218.352 63.3262 220.044ZM69.4039 79.9208C70.1749 79.9588 70.946 80.0271 71.7171 80.0292C75.4122 80.0374 79.1073 80.0148 82.8019 80.0338C83.6998 80.0384 84.6158 80.0692 85.4901 80.249C86.7852 80.5151 87.5228 81.3961 87.4525 82.7107C87.3631 84.3854 87.2121 86.075 86.8756 87.7148C85.8286 92.8205 84.6743 97.9041 83.5791 103C83.3793 103.929 82.8471 104.59 82.0837 105.092C81.9044 105.21 81.4847 105.418 81.2736 105.429C79.8183 105.507 78.1909 105.479 76.6343 105.517C76.6343 105.517 76.6107 105.443 76.5526 105.098C75.8006 100.605 74.4372 96.2433 73.8079 91.7165C73.4539 89.1691 72.7327 86.6637 72.0536 84.1733C71.6734 82.7791 70.853 81.5687 69.8267 80.528C69.67 80.3692 69.4712 80.2526 69.2914 80.117C69.3289 80.0508 69.3664 79.986 69.4039 79.9208ZM49.5023 54.1362C49.3374 56.3627 49.2711 58.5993 49.2408 60.8324C49.2224 62.2374 48.7215 63.4241 47.7567 64.3673C47.0309 65.0767 46.1997 65.7245 45.3135 66.2151C42.8724 67.5661 40.2227 67.9925 37.4548 67.7074C37.3125 67.6925 37.1718 67.6601 37.0326 67.6257C36.9766 67.6118 36.9267 67.5702 36.8949 67.5522C36.9334 66.8228 37.0485 66.1046 36.9868 65.4019C36.9252 64.7037 36.6853 64.0215 36.5142 63.2916C36.5661 63.2854 36.7115 63.2232 36.8245 63.2602C38.1278 63.6866 39.2194 63.1092 40.2422 62.4614C42.6094 60.9624 44.6806 59.1305 46.119 56.6868C46.9928 55.2022 47.7387 53.6416 48.6382 52.1734C48.9542 51.6576 49.5568 51.3181 50.0289 50.8978C50.0679 50.94 50.1064 50.9821 50.1455 51.0237C49.922 52.0614 49.5799 53.0888 49.5023 54.1362ZM48.8026 44.7303C49.5378 44.2618 50.6412 43.5266 51.4508 43.2241C52.2697 42.9179 53.1049 43.1599 53.7106 43.8076C54.2659 44.402 54.1365 45.1479 53.9068 45.8481C53.5005 47.0872 52.7392 48.1115 51.8022 48.9863C51.0701 49.6696 50.258 50.268 49.4699 50.8901C49.322 51.0073 49.1222 51.0586 48.9491 51.1388C49.1628 50.3379 49.4766 49.5555 49.5943 48.7752C49.7802 47.5469 49.2906 46.3664 48.9644 45.1941C48.9064 44.983 48.8026 44.7303 48.8026 44.7303ZM49.0985 48.2589C49.1371 51.6607 46.1632 54.7322 42.9268 54.5842C42.3017 54.4784 41.6611 54.427 41.0539 54.2565C38.2644 53.4746 36.5903 51.2071 36.6499 48.3052C36.6627 47.6944 36.6961 47.0661 36.8456 46.4784C37.4877 43.9582 39.2739 42.4689 41.9451 42.1854C42.9618 42.0775 43.9697 41.9264 44.9976 42.2393C47.1675 42.9004 49.061 44.946 49.0985 48.2589ZM39.2718 10.1983C38.7211 10.8682 36.919 11.5858 36.8872 11.5375C37.7369 10.5903 39.2354 10.1459 39.2718 10.1983ZM28.9982 24.2734C27.4822 25.572 26.2041 27.0659 25.2127 28.9517C25.3806 26.9791 27.1473 24.8246 28.9982 24.2734ZM25.3365 39.5023C27.1601 39.1154 28.9709 38.6171 30.8147 38.3824C35.7072 37.7582 40.5612 38.1682 45.3757 39.1771C45.7666 39.2588 45.9778 39.4334 46.1329 39.7874C46.6343 40.9324 47.1639 42.0651 47.6519 43.2775C45.5884 41.461 43.2417 41.2643 40.7369 41.9619C38.062 42.7068 36.6514 44.5535 36.2271 47.2608C35.4478 47.0039 34.7322 46.9423 34.1265 47.5346C32.8556 42.9539 29.0454 41.3059 24.7164 42.586C24.7164 41.7775 24.7185 40.9607 24.7154 40.1434C24.7144 39.7232 25 39.5737 25.3365 39.5023ZM21.6917 50.7591C20.7722 48.3401 21.7107 44.8053 23.5893 43.8585C24.4108 47.6872 25.9637 51.3227 27.7915 54.7635C25.6324 55.101 22.6729 53.341 21.6917 50.7591ZM28.017 54.3803C25.9653 51.1223 25.0277 47.5238 24.6928 43.7316C24.6568 43.3248 24.6589 43.1465 24.6589 43.1465C27.8485 41.7338 31.128 43.0689 32.8181 45.5019C33.3878 46.3222 33.6878 47.5295 33.6246 49.0305C33.6128 50.0271 33.2743 51.1727 32.6887 52.2612C31.841 53.8368 29.9819 54.5616 28.2733 54.7722C28.2733 54.7717 28.2112 54.6895 28.017 54.3803ZM28.8158 55.7257C28.7521 55.6204 28.692 55.513 28.6386 55.4025C28.6227 55.3702 28.4655 55.1426 28.4655 55.1328C29.3161 55.0604 30.079 54.8518 30.7746 54.5688C31.7136 54.1866 32.4328 53.5481 32.9244 52.6372C33.6359 51.3191 34.1995 49.9752 34.0911 48.4305C34.0567 47.9384 34.5031 47.5413 35.0856 47.4673C35.6327 47.3979 36.0226 47.5926 36.1521 48.1485C36.3514 49.0048 36.4588 49.8879 36.7192 50.7237C37.5057 53.2475 39.4131 54.4707 41.8881 54.857C44.1531 55.2109 46.0625 54.8328 48.0531 52.3711C48.0829 52.4662 47.7829 52.9686 47.7829 52.9686C46.2233 56.0216 44.4916 58.9528 41.6528 61.0225C40.7795 61.6595 39.8302 62.1979 38.8881 62.7321C37.9619 63.2571 36.9565 63.1302 36.113 62.635C33.1566 60.9008 30.6112 58.7011 28.8158 55.7257ZM32.3373 72.9385C30.2326 71.8119 29.3454 69.6923 29.8514 67.3498C30.359 65.0012 31.8251 63.2844 33.5604 61.7494C33.6441 61.6754 33.8594 61.6333 33.9375 61.6867C34.9865 62.409 36.2836 62.9417 36.4644 64.4263C36.5841 65.4091 36.5677 66.4082 36.618 67.5296C35.3717 67.1361 34.463 66.6009 33.7977 65.6772C33.7453 65.7301 33.6935 65.783 33.6411 65.8359C34.0202 66.2305 34.3582 66.6774 34.7861 67.0082C35.737 67.7444 36.8522 68.107 38.0471 68.1656C41.7679 68.3485 45.1456 67.4598 47.9057 64.8291C49.1335 63.6589 49.9272 62.1994 50.3766 60.5622C50.4455 60.3115 50.4429 60.0413 50.4737 59.7804C50.4331 59.7711 50.3921 59.7624 50.3515 59.7531C50.1429 60.3357 49.9343 60.9182 49.7258 61.5013C49.6996 61.489 49.6739 61.4771 49.6477 61.4648C49.6477 59.7177 49.6477 57.9701 49.6477 56.2147C52.075 56.5646 54.1606 58.2469 54.645 61.0097C54.9229 62.5929 54.6502 64.1181 54.3327 65.6479C54.0378 67.0694 53.9289 68.4887 54.2151 69.9266C54.3892 70.802 54.7889 71.534 55.4197 72.1669C55.5605 72.3076 55.6493 72.6672 55.5702 72.8362C53.1373 78.0452 49.3287 81.7902 43.8202 83.64C41.8887 84.2888 39.8821 84.4101 37.8638 83.9842C36.3041 83.6549 35.1473 82.7287 34.4984 81.3422C34.049 80.3826 33.8096 79.2766 33.7084 78.2137C33.5768 76.8354 33.6765 75.4356 33.6765 73.9628C39.2764 76.1959 44.5306 75.2568 49.4273 71.8242C48.9372 72.0626 48.4472 72.3015 47.9566 72.5393C45.8252 73.575 43.6594 74.5757 41.2701 74.7554C38.1416 74.9923 35.12 74.4277 32.3373 72.9385ZM16.9959 85.53C17.9904 83.3488 19.154 81.2847 21.0018 79.6798C21.9974 78.8153 23.145 78.2528 24.3563 77.7735C26.6074 76.8817 28.8559 75.9817 31.0828 75.0313C31.7871 74.7308 32.4195 74.2602 33.2609 73.764C33.2609 74.9224 33.2424 75.9555 33.2666 76.988C33.2856 77.8064 33.321 78.6278 33.4109 79.441C33.7335 82.3547 36.242 84.5072 39.3057 84.5811C42.8852 84.668 46.0667 83.6369 48.9208 81.5323C51.9805 79.2761 54.496 76.5642 55.9319 72.9729C55.9457 72.938 55.9848 72.9133 56.0084 72.8881C56.0521 72.8881 56.1055 72.8712 56.1271 72.8907C58.1788 74.7272 60.7114 75.6822 63.2106 76.6587C65.5264 77.5634 67.5638 78.8307 69.3448 80.5609C71.0893 82.2556 71.9585 84.3474 72.3412 86.7053C71.7299 86.8795 71.0575 86.9334 70.5402 87.2457C69.297 87.9958 68.0559 88.7807 66.9417 89.7054C64.4615 91.7638 62.7046 94.3863 61.4496 97.3375C61.0941 98.1733 60.9097 99.0821 60.62 100.046C59.0676 94.6734 58.3874 89.2908 59.0157 83.7669C58.2605 86.1063 58.2877 88.512 58.5256 90.8977C58.7645 93.2952 59.141 95.6099 59.6974 98.05C57.3687 95.0551 55.8872 90.965 55.1459 87.7081C55.3576 88.8382 55.4454 90.0105 55.8086 91.0893C56.3829 92.7943 57.0636 94.4757 57.8552 96.0913C58.298 96.9954 59.064 97.7398 59.6635 98.5709C59.8638 98.8483 60.0539 99.1545 60.1561 99.4771C60.6909 101.159 61.1804 102.855 61.7157 104.536C62.1128 105.783 62.1657 106.992 61.7892 108.281C61.4825 109.332 61.3577 111.077 61.2595 112.177C61.2595 112.177 61.1475 112.173 60.6528 112.258C58.4131 112.639 56.4636 111.825 54.4915 110.96C52.7839 110.21 51.0614 109.461 49.2829 108.914C46.1529 107.951 43.3599 109.386 42.2113 112.303C42.0387 112.741 41.8527 113.174 41.6395 113.691C41.508 113.53 41.4258 113.405 41.321 113.304C40.8381 112.835 40.3973 112.302 39.8513 111.922C38.847 111.223 37.948 111.441 37.3064 112.497C36.9796 113.034 36.7403 113.552 36.4993 114.323C35.4396 113.86 34.3032 113.374 33.2399 112.906C32.9958 112.799 32.7637 112.662 32.5171 112.562C31.4003 112.105 30.8167 112.216 29.9835 113.083C29.6003 113.482 28.5744 114.66 28.2394 115.101C28.2394 115.101 28.037 115.061 27.3964 115.061C27.4581 114.865 27.5567 114.648 27.6261 114.493C29.1374 111.12 30.6559 107.749 32.1616 104.373C32.3316 103.992 32.552 103.759 32.9779 103.634C33.7207 103.415 34.0859 102.863 33.9724 102.28C33.8727 101.77 33.583 101.417 33.059 101.317C32.4986 101.21 32.0424 101.423 31.7188 101.876C31.4121 102.306 31.4136 102.777 31.727 103.197C31.9232 103.46 32.0383 103.645 31.8739 104.004C30.2629 107.535 28.6853 111.081 27.0759 114.614C26.966 114.855 26.875 115.109 26.875 115.109C24.9969 115.518 24.8156 116.172 25.8954 117.3C25.3185 118.305 24.7401 119.31 24.1159 120.396C23.9068 120.178 23.7435 120.007 23.5133 119.767C24.3404 119.693 24.2844 119.216 24.0727 118.753C23.8544 118.277 23.5457 117.842 23.2395 117.326C24.0358 117.126 24.6959 116.798 24.682 115.879C24.6784 115.652 24.512 115.329 24.3239 115.226C23.953 115.024 22.8563 114.743 22.4361 114.675C22.4361 114.675 22.4402 114.479 22.4207 114.037C22.397 113.503 22.3482 112.969 22.3529 112.436C22.3842 109.191 22.4248 105.945 22.4695 102.7C22.4767 102.192 22.4828 101.725 23.1285 101.483C23.7095 101.265 23.8611 100.52 23.5585 100.012C23.2554 99.5033 22.5922 99.3811 22.0441 99.7329C21.495 100.086 21.3018 100.805 21.721 101.277C22.0467 101.643 22.0842 102.008 22.0765 102.451C22.021 105.675 21.9835 108.899 21.9414 112.123C21.9368 112.461 21.9383 112.96 21.9383 113.471C21.7441 113.195 20.7871 111.829 20.4131 111.224C19.0898 109.081 19.0261 107.562 19.1894 105.4C19.3805 102.878 20.2785 100.521 21.0414 98.1353C21.647 96.2418 22.2927 94.356 22.7787 92.4306C23.4717 89.6848 23.3607 86.8995 22.8773 84.1373C22.752 86.5666 23.2251 89.3026 22.5157 91.7561C22.1243 90.1908 21.6388 88.3553 21.2468 86.7901C21.1939 86.7998 21.441 88.5958 21.5684 89.1177C21.8643 90.3331 21.9511 90.8448 22.2701 92.0551C22.321 92.2487 22.3775 92.4707 22.3313 92.6546C22.1273 93.4662 21.8869 94.2681 21.6347 95.1635C21.4667 95.0084 21.3588 94.9308 21.2782 94.8311C19.2048 92.2636 17.8779 89.3216 16.9666 86.1757C16.9117 85.9774 16.9122 85.7133 16.9959 85.53ZM38.343 123.458C38.3692 123.531 38.4149 123.6 38.4427 123.702C37.9613 123.888 37.4256 124.115 36.9458 124.284C36.2692 124.523 35.9065 124.371 35.7781 123.657C35.6373 122.874 35.5315 122.061 35.5849 121.273C35.7678 118.577 36.4588 115.975 37.2139 113.392C37.2822 113.159 37.3983 112.934 37.5247 112.725C38.1088 111.757 38.8316 111.579 39.7115 112.272C40.3033 112.737 40.8155 113.309 41.3338 113.861C41.4191 113.952 41.5162 114.04 41.5162 114.04C40.8628 115.267 40.0963 116.841 39.3288 117.994C38.1956 119.699 37.6357 121.448 38.343 123.458ZM49.5794 127.624C50.3201 127.658 51.0645 127.752 51.8017 127.713C53.4286 127.629 54.9481 127.975 56.4928 128.482C59.2833 129.396 62.138 130.107 65.0964 130.241C65.287 130.25 65.5099 130.265 65.5099 130.265C66.5476 133.001 67.478 136.465 67.4893 139.381C67.5067 143.977 65.8819 147.635 62.2453 150.532C61.1352 151.417 60.2717 151.825 58.7136 152.159C57.3949 152.442 55.7562 152.588 54.4098 152.602C50.3422 152.641 46.2737 152.617 42.2061 152.617C41.9652 152.617 41.7237 152.617 41.339 152.617C41.4376 151.311 41.4967 150.088 41.6318 148.874C41.7612 147.711 41.9482 146.554 42.1481 145.401C42.6238 142.659 41.4453 140.65 39.3365 139.079C38.4324 138.406 37.4682 137.808 36.4998 137.227C35.7781 136.795 35.3646 136.181 35.1601 135.394C34.9901 134.738 34.8324 134.078 34.6479 133.427C34.4717 132.805 34.0901 132.368 33.5085 132.045C33.1967 131.872 32.8982 131.536 32.7672 131.205C32.4672 130.444 32.2617 129.645 32.0393 128.855C31.7876 127.96 31.2986 127.316 30.3533 127.072C30.1217 127.013 30.0076 126.811 29.683 126.627C33.1155 125.569 36.3313 125.775 39.618 126.21C45.8118 127.029 51.8566 128.427 57.5172 131.186C57.7679 131.309 58.0324 131.402 58.316 131.446C55.6221 129.684 52.5887 128.715 49.5794 127.624ZM31.1075 165.144C28.7285 165.144 26.0485 165.165 23.7301 165.146C23.7301 165.146 23.7065 164.94 23.6967 164.822C23.6238 163.966 23.5986 163.105 23.5549 162.182C23.7733 162.16 23.9479 162.127 24.1221 162.128C26.237 162.13 28.3519 162.153 30.4669 162.131C30.9903 162.126 31.1223 162.137 31.1223 162.137C31.0864 162.89 31.1075 164.311 31.1075 165.144ZM23.6448 174.092C23.6859 171.424 23.6787 168.756 23.6921 166.088C23.6926 165.926 23.709 165.765 23.7209 165.555C23.9186 165.537 24.0974 165.507 24.2757 165.507C26.3901 165.503 29.0485 165.461 31.1629 165.452C31.1629 165.452 31.1819 165.537 31.1973 165.983C31.3273 169.798 31.4799 173.611 31.6243 177.426C31.6273 177.505 31.6099 177.585 31.5975 177.708C31.408 177.72 31.2287 177.743 31.0489 177.744C28.75 177.756 26.4512 177.768 24.1518 177.777C23.7219 177.805 23.4414 177.789 23.4414 177.789C23.538 176.835 23.6299 175.049 23.6448 174.092ZM23.559 161.753C23.3731 159.455 23.1892 157.189 23.0027 154.886C28.9915 154.886 34.9546 154.886 40.8931 154.886C41.1854 157.198 41.4705 159.45 41.7617 161.753C35.7401 161.753 29.6896 161.753 23.559 161.753ZM22.4582 176.816C19.0112 177.99 15.5267 179.013 11.9246 179.579C10.2011 179.85 8.12315 180.063 6.35703 180.253C5.39691 175.489 4.55186 170.823 3.50287 166.203C2.04855 159.797 0.457611 153.421 -1.10715 147.039C-1.82018 144.13 -2.63954 141.247 -3.35565 138.339C-3.92329 136.034 -3.56165 133.808 -2.5332 131.69C-2.37909 131.373 -2.10632 131.082 -1.82327 130.865C0.781235 128.857 3.78952 127.779 6.99506 127.305C9.65092 126.912 12.3371 126.727 15.0089 126.44C15.4651 126.391 15.7753 126.559 16.0692 126.907C17.0488 128.064 17.8106 129.348 18.35 130.759C19.64 134.134 20.9468 137.504 22.1803 140.9C22.94 142.993 23.3007 145.157 22.6919 147.368C22.5322 147.947 22.2455 148.492 21.948 149.036C20.5282 144.133 16.2346 136.022 16.1632 136.052C16.6923 137.26 17.9303 140.224 17.9118 140.232C16.6553 138.591 13.8366 134.845 13.7919 134.88C14.7176 136.175 15.6716 137.45 16.5639 138.767C20.1922 144.122 22.2547 150.047 22.7089 156.484C23.0181 160.866 23.1424 165.262 23.2816 169.653C23.3459 171.683 23.3294 174.433 23.2169 176.552C23.2164 176.552 23.0582 176.612 22.4582 176.816ZM23.1024 178.249C23.0628 179.623 22.9739 180.997 22.9883 182.37C22.9971 183.208 22.6904 183.879 22.0945 184.375C19.5948 186.454 16.7488 187.075 13.6296 186.145C12.3325 185.758 11.3821 184.943 11.0539 183.509C10.8078 182.434 10.4246 181.39 10.0686 180.221C14.5188 179.692 18.8083 178.568 23.1039 176.967C23.1044 177.453 23.1142 177.851 23.1024 178.249ZM9.89235 180.895C7.97725 182.342 5.73955 183.665 3.36519 184.22C1.58315 184.636 0.460159 183.654 -0.253891 182.355C-0.391052 182.105 -0.513809 181.756 -0.646866 181.424C1.72389 181.044 3.64722 180.476 5.77859 179.965C5.90187 180.474 5.91884 180.582 5.91884 180.582C6.85429 180.464 8.80482 180.277 9.74748 180.228C9.74748 180.228 9.78036 180.409 9.81067 180.515C9.85588 180.67 9.89235 180.895 9.89235 180.895ZM29.5684 121.296C28.3011 122.001 27.0389 122.716 25.7623 123.404C25.6144 123.484 25.3863 123.563 25.1048 123.415C25.8414 121.926 26.3557 120.449 28.0524 119.875C28.7413 119.643 29.9105 118.651 29.8715 118.582C29.7631 118.634 29.6511 118.681 29.5458 118.74C28.9561 119.07 28.3946 119.47 27.7725 119.72C26.6983 120.152 25.9586 120.869 25.5065 121.923C25.3698 122.241 25.2101 122.581 24.9666 122.81C24.8017 122.966 24.4303 123.159 24.2166 123.006C24.0697 122.901 24.1082 122.613 24.1729 122.471C24.8767 120.935 25.4197 119.299 27.0374 118.374C27.7627 117.96 28.4423 117.431 29.0495 116.856C29.5186 116.413 30.1407 115.216 30.0955 115.181C30.0456 115.203 29.9711 115.211 29.9496 115.249C29.1163 116.699 27.6862 117.496 26.3911 118.412C25.4721 119.062 25.1315 120.056 24.5361 120.899C24.399 121.093 24.3501 121.345 24.2299 121.551C24.1683 121.529 24.0501 121.472 23.9885 121.45C24.0537 121.25 24.0887 121.033 24.1893 120.854C24.4801 120.336 24.8366 119.853 25.095 119.321C25.5784 118.327 26.255 117.514 27.0538 116.749C28.1485 115.7 29.1425 114.545 30.1602 113.418C31.0083 112.478 31.5569 112.408 32.701 112.973C33.7274 113.48 34.7902 113.907 35.8685 114.309C36.3915 114.504 36.4433 114.586 36.4433 114.586C36.1839 115.535 35.8587 117.09 35.6502 118.052C35.1581 120.323 34.9911 121.605 35.5418 124.068C34.6685 123.951 33.8173 123.895 32.9958 123.708C32.2099 123.529 31.4557 123.534 30.6888 123.73C29.1667 124.122 26.2391 124.001 26.1327 123.647C25.9519 123.08 29.0876 122.353 29.8997 121.143C29.7903 121.195 29.6747 121.237 29.5684 121.296ZM14.5666 118.588C17.0904 119.507 19.6297 120.385 22.1546 121.301C22.4094 121.394 22.8424 121.551 22.8244 121.838C22.8049 122.143 22.3025 122.31 22.0508 122.3C21.1107 122.264 20.1681 122.163 19.2388 122.013C17.6992 121.766 16.1719 121.441 14.6323 121.194C14.1433 121.116 13.6311 121.182 13.1297 121.182C13.1272 121.246 13.1251 121.31 13.1225 121.374C13.4477 121.374 13.7816 121.326 14.0971 121.382C16.1986 121.755 18.3013 122.13 20.391 122.563C20.7111 122.629 21.2982 122.86 21.2551 123.223C21.2145 123.565 20.6294 123.64 20.3181 123.638C18.122 123.626 15.9259 123.559 13.7303 123.503C13.3614 123.494 12.9936 123.441 12.6243 123.424C11.3533 123.364 10.7944 122.541 11.1155 121.281C11.2177 120.879 11.2316 120.427 11.1674 120.016C11.079 119.45 11.1196 118.95 11.5234 118.526C11.979 118.047 12.0695 117.493 11.9015 116.876C11.6559 115.972 11.8912 115.251 12.7183 114.77C13.3964 114.375 13.7601 113.75 14.0508 113.055C14.5198 111.935 15.4918 111.553 16.4591 112.303C18.6244 113.983 21.1313 115.252 22.8404 117.489C23.1743 117.926 23.5149 118.373 23.7542 118.864C23.9921 119.35 23.7625 119.604 23.2467 119.427C22.7078 119.243 22.1946 118.967 21.6943 118.688C19.848 117.66 17.9997 116.634 16.1817 115.558C15.8046 115.335 15.5524 114.901 15.22 114.54C15.2262 115.183 15.4199 115.661 16.1396 115.922C16.7272 116.136 17.2404 116.552 17.7921 116.868C19.5536 117.878 21.3208 118.878 23.0777 119.895C23.3207 120.036 23.5554 120.229 23.7219 120.452C23.8215 120.585 23.8416 120.845 23.7815 121.006C23.7476 121.096 23.4614 121.167 23.3197 121.13C22.3498 120.877 21.3768 120.627 20.4254 120.313C18.7513 119.759 17.0889 119.169 15.4281 118.576C14.8013 118.353 14.1916 118.08 13.4976 117.932C13.8525 118.153 14.1818 118.447 14.5666 118.588ZM10.8566 120.002C10.9208 120.271 10.9208 120.586 10.8484 120.853C10.6526 121.573 10.4174 122.279 11.0158 122.962C10.2756 122.62 9.86308 122.032 9.64322 121.349C8.82077 118.796 9.12592 116.344 10.5751 114.102C11.2814 113.009 12.3936 112.432 13.8505 112.385C13.607 113.24 13.3779 113.942 12.6494 114.368C11.6205 114.972 11.2568 115.836 11.5537 117.033C11.641 117.386 11.474 117.887 11.2598 118.212C10.8853 118.78 10.6943 119.325 10.8566 120.002ZM20.1747 114.49C20.1881 114.462 20.2014 114.435 20.2148 114.408C20.7336 114.566 21.9881 114.9 21.9881 114.9C21.9881 114.9 22.004 115.734 21.9722 116.04C21.9722 116.039 20.7583 114.974 20.1747 114.49ZM21.873 100.701C21.8042 100.298 22.2763 99.8804 22.7058 99.9015C23.0962 99.9205 23.3993 100.252 23.4008 100.644C23.4023 101.073 22.6462 101.494 22.2178 101.277C22.0811 101.208 21.9141 100.94 21.873 100.701ZM22.3467 116.457C22.3467 116.457 22.3631 116.243 22.3678 115.864C22.3749 115.271 22.4135 115.016 22.4135 115.016C22.6318 115.068 23.7188 115.282 23.9284 115.359C24.5762 115.6 24.6753 116.178 24.1524 116.631C23.203 117.249 22.6785 116.853 22.3467 116.457ZM22.9035 121.311C23.2631 121.48 23.8544 121.648 24.102 121.818C24.102 121.818 23.8585 122.622 23.8236 122.631C23.6952 122.364 23.1095 122.282 22.8388 122.321C23.1707 122.054 23.2246 121.701 22.9035 121.311ZM25.9986 117.046C25.7418 116.789 25.4675 116.248 25.5697 116.023C25.6986 115.737 26.3711 115.472 26.7666 115.384L25.9986 117.046ZM27.2536 115.333C27.4704 115.333 27.717 115.327 28.0463 115.322C27.5988 115.783 27.1098 116.272 26.6274 116.754C26.7435 116.459 27.2536 115.333 27.2536 115.333ZM30.6359 124.051C31.1789 123.972 31.6407 123.921 32.0907 124.358C32.4482 124.705 33.5306 125.211 33.488 125.447C32.0994 125.575 30.6266 126.04 29.4425 126.249C29.4425 126.249 29.2776 126.001 29.1215 125.789C28.7367 125.265 28.3617 124.708 27.698 124.194C28.672 124.302 29.7641 124.179 30.6359 124.051ZM29.2283 126.645C29.3727 126.842 29.9203 127.304 30.1628 127.365C31.0438 127.591 31.501 128.172 31.7213 129.016C31.9135 129.75 32.138 130.476 32.3635 131.202C32.5356 131.755 32.9039 132.121 33.4027 132.438C33.7695 132.672 34.106 133.077 34.2688 133.48C34.5508 134.18 34.6911 134.937 34.8853 135.671C35.0964 136.471 35.6122 136.989 36.2887 137.456C37.6526 138.397 39.0283 139.346 40.2587 140.449C41.6801 141.724 42.0094 143.456 41.7818 145.31C41.4998 147.611 41.2121 149.831 40.9871 152.175C40.9681 152.322 40.947 152.616 40.947 152.616C40.6953 152.616 40.011 152.616 39.7439 152.616C35.5526 152.619 31.3612 152.621 27.1699 152.623C26.9706 152.623 26.7713 152.623 26.4574 152.623C26.5925 152.467 26.6428 152.387 26.7122 152.331C28.0057 151.291 28.5194 149.886 28.6304 148.283C28.822 145.522 28.1855 142.923 26.951 140.487C25.4253 137.475 24.194 134.348 23.0479 131.18C22.4607 129.557 21.7117 128.013 20.4126 126.604C21.6542 126.674 22.7186 126.782 23.7825 126.782C25.4027 126.78 27.0235 126.713 28.6432 126.651C28.9864 126.639 29.2283 126.645 29.2283 126.645ZM40.9825 154.097C40.984 154.198 40.9635 154.299 40.9429 154.504C40.6542 154.504 40.4128 154.503 40.1713 154.504C34.7137 154.516 29.2555 154.532 23.7979 154.538C22.8789 154.539 22.9606 154.737 22.808 153.669C22.7792 153.468 22.7571 153.265 22.7232 152.993C22.9482 152.98 23.1445 152.96 23.3407 152.96C28.86 152.972 35.4606 153.02 40.9799 153.042C40.9794 153.042 40.9717 153.348 40.9825 154.097ZM21.1122 127.974C21.9578 129.774 22.8363 131.572 23.4979 133.442C24.3358 135.811 25.3118 138.103 26.4461 140.342C27.6959 142.808 28.4726 145.406 28.2589 148.225C28.149 149.675 27.662 150.943 26.611 151.969C26.1528 152.416 25.6324 152.692 24.9568 152.638C24.4878 152.6 24.0126 152.635 23.54 152.64C22.6477 152.648 22.6482 152.648 22.471 151.751C22.4391 151.59 22.4042 151.429 22.3683 151.27C22.115 150.157 22.0852 149.639 22.0852 149.639C23.1928 148.178 23.5215 145.355 23.2616 143.691C22.9832 141.909 22.3457 140.253 21.6809 138.589C20.7681 136.302 19.9559 133.975 19.1155 131.66C18.443 129.809 17.5964 128.066 16.1586 126.67C16.1205 126.633 16.1103 126.567 16.0389 126.405C16.6189 126.405 17.1413 126.397 17.6632 126.408C18.012 126.416 18.368 126.509 18.7071 126.464C19.9415 126.3 20.654 126.998 21.1122 127.974ZM41.3569 153.034C51.4205 153.034 61.6207 153.041 71.7643 153.041C71.7643 153.554 71.7643 153.98 71.7643 154.471C71.527 154.482 71.3092 154.502 71.0909 154.502C61.6027 154.503 50.8292 154.496 41.341 154.495C41.3405 154.495 41.3647 153.797 41.3569 153.034ZM41.9534 162.166C41.9534 162.166 42.0289 162.332 42.071 162.455C42.3772 163.341 42.6566 164.237 42.97 165.208C41.378 165.208 39.8646 165.208 38.3127 165.208C38.3127 164.209 38.3127 163.221 38.3127 162.157C39.4989 162.157 40.832 162.145 41.9534 162.166ZM38.0071 177.467C38.0918 173.568 38.1653 169.669 38.2444 165.771C38.2449 165.735 38.2773 165.699 38.3138 165.625C39.449 165.506 39.7917 165.57 39.7917 165.57C40.2011 168.972 40.8191 173.709 41.2537 177.108C41.3477 177.841 41.3647 177.925 41.3647 177.925C40.6665 177.932 38.699 177.918 38.0014 177.934C38.0014 177.933 37.9989 177.838 38.0071 177.467ZM40.1708 166.172C40.1508 166.013 40.1467 165.852 40.1292 165.609C41.1427 165.609 42.201 165.601 43.1786 165.612C43.1786 165.612 43.2895 165.699 43.3481 165.773C44.8923 167.735 47.0889 168.461 49.3893 169.051C50.5739 169.354 51.7205 169.817 52.8692 170.248C53.6824 170.553 53.9988 171.242 54.0039 172.057C54.007 172.564 53.9371 173.081 53.8272 173.577C53.519 174.972 53.1733 176.358 52.8178 177.849C52.7941 177.85 52.5943 177.871 52.394 177.871C49.0461 177.878 44.9694 177.865 41.6215 177.901C41.6215 177.901 41.584 177.713 41.5157 177.115C41.0986 173.464 40.6244 169.82 40.1708 166.172ZM53.4075 177.127C53.5077 176.564 53.5914 175.997 53.7188 175.441C53.9063 174.622 54.1924 173.82 54.3173 172.993C54.5135 171.692 54.2582 170.286 52.6257 169.699C51.6039 169.333 50.5569 169.037 49.5311 168.68C48.2941 168.25 47.0319 167.865 45.8504 167.311C45.1183 166.968 44.2065 166.367 43.5402 165.612C43.5402 165.612 44.3832 165.599 44.5949 165.599C53.6731 165.598 63.4464 165.596 72.5247 165.581C72.5247 165.581 72.5318 165.712 72.5858 166.247C72.9685 170.024 73.3871 173.797 73.7924 177.573C73.7986 177.631 73.7863 177.692 73.775 177.868C72.1121 177.868 70.4934 177.868 68.8742 177.868C63.9652 177.87 58.1927 177.83 53.2842 177.854C53.2842 177.853 53.3017 177.724 53.4075 177.127ZM71.77 165.218C62.5926 165.219 52.581 165.188 43.4036 165.211C43.4036 165.211 43.326 165.036 43.1534 164.496C42.9176 163.758 42.6602 163.026 42.3808 162.198C42.6849 162.179 42.897 162.153 43.1092 162.153C52.5943 162.152 62.0794 162.157 71.565 162.144C72.0813 162.143 72.2755 162.144 72.2755 162.144C72.2796 162.917 72.4106 164.357 72.484 165.218C72.2072 165.218 71.9883 165.218 71.77 165.218ZM71.4628 161.768C61.9705 161.77 51.703 161.764 42.2102 161.781C42.2102 161.781 42.1964 161.679 42.1327 161.115C41.9236 159.26 41.6878 157.408 41.4361 155.559C41.3888 155.114 41.3647 154.849 41.3647 154.849C49.6246 154.863 58.6746 154.866 66.934 154.867C68.3929 154.867 70.4015 154.897 71.8599 154.888C71.8599 154.888 71.8599 154.888 71.8784 155.301C71.9693 157.353 72.0803 159.404 72.181 161.455C72.1846 161.532 72.2113 161.768 72.2113 161.768C71.9873 161.767 71.6821 161.768 71.4628 161.768ZM71.7484 152.572C67.5781 152.572 62.9686 152.572 58.879 152.572C58.879 152.572 59.6578 152.375 59.8016 152.324C62.1303 151.5 63.9401 150.014 65.3353 147.997C68.0878 144.017 68.5526 139.639 67.4924 135.04C67.1574 133.588 66.597 132.188 66.1387 130.764C66.0966 130.633 66.0483 130.504 66.0057 130.381C68.0775 130.212 70.1159 130.044 72.2894 129.867C71.5871 137.405 71.5337 144.944 71.7484 152.572ZM33.9236 125.504C33.7202 124.584 32.591 124.576 32.0249 123.858C32.7955 124 33.5239 124.143 34.2555 124.267C34.9233 124.38 35.6281 124.42 35.6281 124.42C36.0992 124.88 36.8522 124.691 37.1358 124.609C37.6048 124.474 38.2845 124.147 38.5819 124.034C39.0956 124.848 39.5857 125.284 40.1256 125.776C38.1155 125.688 36.0314 125.596 33.9236 125.504ZM31.9114 102.772C31.7049 102.108 32.3193 101.701 32.8022 101.706C33.2722 101.71 33.5209 101.971 33.5455 102.426C33.5676 102.831 32.9758 103.398 32.5371 103.293C32.2571 103.226 32.0003 103.058 31.9114 102.772ZM9.76187 103.877C9.70587 103.809 7.74916 104.725 6.82706 105.252C11.0538 99.453 13.7092 92.8328 16.663 86.3467C17.3812 88.8845 18.3341 91.2557 19.7792 93.4097C20.1901 94.0226 20.635 94.6169 21.1117 95.1794C21.3866 95.5036 21.423 95.7779 21.2951 96.1791C20.5965 98.3685 19.8871 100.557 19.2742 102.771C18.9696 103.871 18.7939 105.412 18.7297 106.552C18.4086 105.605 17.2045 102.78 17.2399 99.6826C17.1865 99.6852 17.0498 101.482 17.2368 102.334C17.561 103.813 18.0531 105.255 18.461 106.717C18.6793 107.499 18.8216 108.515 19.0353 109.346C18.1846 108.688 17.4603 108.201 16.6522 107.916C15.9695 107.674 15.2123 107.567 14.4849 107.552C13.8012 107.538 13.2047 107.426 12.6386 107.032C12.126 106.676 11.5681 106.384 11.0302 106.064C10.986 106.129 12.1609 107.118 12.8441 107.582C8.79097 108.086 5.3147 109.73 2.37938 112.512C3.4895 108.302 6.20341 105.828 9.76187 103.877ZM-1.32034 120.554C-1.32137 119.736 -1.21863 118.847 -0.889343 118.112C0.699036 114.56 3.12733 111.757 6.63287 109.931C9.02675 108.684 11.5311 107.927 14.2352 107.907C16.2742 107.892 18.0506 108.54 19.2994 110.225C20.1655 111.393 20.9417 112.628 21.7477 113.84C21.8556 114.003 21.9804 114.176 21.9568 114.495C21.6784 114.448 21.5741 114.437 21.4081 114.401C19.6472 114.016 18.0942 113.205 16.7067 112.07C16.0563 111.538 15.3541 111.598 14.6087 111.779C14.2239 111.873 13.8207 111.922 13.4241 111.935C11.5712 111.993 9.98431 112.631 8.74217 114.037C8.62813 114.166 8.55363 114.329 8.4586 114.48C9.36169 113.819 10.2247 113.052 11.2383 112.774C9.67557 114.251 8.99542 116.239 8.81819 118.127C8.63531 120.072 8.92813 121.906 10.7102 123.283C9.61342 123.202 8.698 123.067 7.88274 122.432C6.64316 121.466 5.48012 120.443 4.58884 119.133C4.33763 118.764 4.02068 118.441 3.677 118.138C4.07976 119.146 4.67412 120.034 5.44827 120.778C6.21062 121.51 7.04282 122.169 7.7877 122.811C5.68663 123.109 4.20457 121.747 2.63777 120.585C2.60335 120.632 3.2383 121.404 3.54446 121.663C3.86964 121.937 4.08592 122.07 4.39723 122.446C3.49773 122.347 2.59822 122.251 1.69923 122.149C1.16856 122.088 0.639969 122.012 0.109818 121.95C-0.735733 121.851 -1.31931 121.402 -1.32034 120.554ZM-51.824 221.654C-73.6412 221.645 -95.4588 221.629 -117.276 221.645C-118.89 221.646 -120.35 221.187 -121.801 220.61C-126.117 218.896 -129.965 216.484 -133.075 212.983C-135.848 209.861 -137.196 206.118 -137.815 202.065C-138.224 199.388 -138.217 196.705 -137.824 194.025C-137.786 193.765 -137.727 193.509 -137.682 193.271C-114.651 196.601 -91.5228 198.205 -68.35 199.216C-68.3006 210.971 -61.8906 217.828 -51.2733 221.654C-51.5111 221.654 -51.6673 221.654 -51.824 221.654ZM-13.3899 153.723C-14.9675 162.43 -16.5405 171.138 -18.0605 179.855C-18.865 184.467 -19.6032 189.087 -20.7893 193.625C-22.557 200.387 -25.3495 206.674 -29.7438 212.118C-33.7076 217.029 -38.8005 220.311 -45.1191 221.404C-48.3333 221.959 -51.43 221.558 -54.409 220.1C-59.1068 217.802 -63.0095 214.669 -65.5256 209.998C-67.1582 206.967 -67.8511 203.699 -67.9025 200.278C-67.9097 199.81 -67.9035 199.342 -67.9035 198.858C-75.6811 198.446 -83.4031 198.038 -91.1447 197.628C-86.3796 191.909 -83.1627 185.483 -80.3979 178.806C-77.8921 172.755 -76.1588 166.466 -74.6891 160.092C-73.8497 156.452 -72.9821 152.806 -71.8509 149.251C-70.5543 145.175 -68.6459 141.343 -66.5171 137.621C-62.9694 131.418 -57.9202 126.924 -51.4582 123.914C-46.6962 121.696 -41.7116 120.357 -36.5196 119.712C-32.0565 119.156 -27.578 119.108 -23.1129 119.56C-17.3958 120.138 -11.6911 120.837 -5.98482 121.518C-2.3154 121.956 1.34631 122.457 5.01111 122.933C5.26694 122.966 5.51967 123.02 5.77087 123.138C-0.290878 123.277 -6.36136 123.186 -12.3255 124.515C-10.8126 124.345 -9.30388 124.125 -7.78639 124.016C-5.53378 123.855 -3.27603 123.684 -1.01982 123.675C3.6431 123.657 8.30655 123.723 12.9689 123.797C14.4664 123.821 15.9603 124.029 17.4577 124.059C18.6023 124.082 19.7525 123.987 20.8949 123.889C21.5047 123.836 21.6824 123.391 21.3948 122.68C21.9845 122.646 22.5542 122.564 23.1157 122.604C23.3546 122.621 23.5652 122.911 23.8061 123.046C24.1976 123.264 24.5921 123.487 25.0072 123.653C25.4038 123.811 25.826 123.992 26.2406 124.002C27.6934 124.036 28.2785 125.187 29.0244 126.315C28.5158 126.378 28.1259 126.377 27.7144 126.371C25.0061 126.328 22.2933 126.345 19.5917 126.184C14.5733 125.885 9.62524 126.177 4.73628 127.425C-1.233 128.949 -5.32675 132.708 -8.22612 137.993C-10.9287 142.921 -12.3969 148.244 -13.3899 153.723ZM-10.3636 156.541C-10.8399 154.442 -11.4697 152.379 -12.0111 150.294C-12.0856 150.007 -12.1257 149.676 -12.0604 149.393C-10.8024 143.957 -8.77013 138.856 -5.40277 134.357C-4.78477 133.532 -4.04198 132.8 -3.35617 132.026C-3.3156 132.06 -3.27499 132.093 -3.2339 132.127C-3.41934 132.856 -3.63562 133.58 -3.78461 134.316C-4.118 135.964 -3.93512 137.603 -3.48973 139.193C-0.594467 149.537 1.77219 160.006 4.02119 170.504C4.62326 173.313 5.11641 176.145 5.65633 178.968C5.69023 179.145 5.69333 179.328 5.71747 179.58C4.13525 179.96 2.59462 180.404 1.02576 180.69C-1.0486 181.068 -3.61612 181.495 -5.82095 181.677C-5.82095 181.677 -5.8795 181.502 -5.95091 181.015C-7.15298 172.809 -8.52766 164.632 -10.3636 156.541ZM-1.23456 188.555C-0.510223 190.885 0.316849 193.187 0.936386 195.545C1.39667 197.295 1.42183 199.12 1.21892 200.934C1.02834 202.636 0.304504 204.135 -0.623245 205.523C-1.68919 207.118 -2.78236 208.376 -4.27467 209.59C-4.38051 209.676 -4.71236 209.992 -4.92195 210.133C-4.82178 208.367 -4.71286 206.616 -4.64967 204.977C-4.52228 201.651 -4.41852 198.324 -4.3168 194.998C-4.18941 190.829 -4.06764 186.661 -3.96336 182.491C-3.95155 182.026 -3.93716 181.858 -3.93716 181.858C-3.33664 181.804 -2.18542 181.607 -1.56126 181.537C-1.64192 182.005 -1.77034 182.546 -1.84431 182.977C-2.17308 184.894 -1.79964 186.737 -1.23456 188.555ZM-8.34016 168.65C-7.91071 171.248 -7.4381 173.839 -7.01634 176.438C-6.74356 178.119 -6.50056 179.806 -6.26169 181.492C-6.21135 181.847 -6.17436 181.975 -6.17436 181.975C-5.75365 181.999 -4.86801 181.892 -4.44472 181.892C-4.44472 182.986 -4.4216 184.025 -4.44882 185.063C-4.60037 190.851 -4.75499 196.639 -4.92812 202.427C-5.00105 204.869 -5.13153 207.31 -5.21271 209.751C-5.2276 210.198 -5.21169 210.348 -5.21169 210.348C-5.81117 210.936 -6.94543 211.835 -7.80333 211.755C-7.98364 197.247 -8.16191 182.953 -8.34016 168.65ZM-13.3488 220.447C-15.0317 219.792 -16.1655 217.625 -15.8608 215.848C-15.6656 214.711 -14.9624 213.881 -13.9997 213.369C-13.1254 212.903 -12.1642 212.508 -11.1953 212.329C-8.8744 211.903 -6.53807 212.049 -4.21353 212.445C-3.631 212.544 -3.02997 212.533 -2.41455 212.428C-3.44196 212.255 -5.51219 211.846 -5.5199 211.813C-4.82178 211.677 -4.1221 211.549 -3.42603 211.403C-2.72276 211.256 -2.0154 211.12 -1.32344 210.93C-0.624283 210.738 0.717026 210.159 0.701096 210.109C-1.59569 210.58 -3.89247 211.051 -6.15227 211.515C-4.54745 210.401 -3.29349 209.245 -2.06728 207.944C0.422668 205.302 1.92938 202.227 1.66072 198.444C1.46808 195.73 0.824905 193.146 -0.109009 190.606C-0.604233 189.259 -1.01314 187.877 -1.39328 186.493C-1.78575 185.062 -1.70563 183.604 -1.43182 182.159C-1.38765 181.926 -1.34499 181.762 -1.3152 181.516C-1.19704 181.506 -0.972565 181.442 -0.894989 181.457C-0.824615 181.685 -0.765015 181.992 -0.688477 182.218C-0.118774 183.895 1.27542 184.817 3.01895 184.593C5.42772 184.284 7.51749 183.226 9.40895 181.74C9.58516 181.602 9.86975 181.359 10.0449 181.216C10.3054 182.137 10.3501 182.511 10.3501 182.511C9.04164 183.908 8.5937 186.019 8.86084 187.76C9.3427 190.902 9.9684 194.028 10.2982 197.185C10.6932 200.968 9.90265 204.548 7.42451 207.542C4.93765 210.546 1.76498 212.394 -2.19057 212.851C-3.51901 213.004 -4.85312 213.371 -6.10091 213.856C-6.84322 214.144 -7.52953 214.764 -8.05249 215.392C-9.18521 216.751 -9.0275 218.483 -7.77251 219.731C-7.41498 220.087 -6.93414 220.33 -6.33516 220.761C-8.72697 221.01 -11.1625 221.297 -13.3488 220.447ZM26.1599 184.519C26.1373 185.542 26.1065 186.569 25.9986 187.585C25.4865 192.414 26.1866 197.039 28.1968 201.469C28.4999 202.136 28.6843 202.86 28.8985 203.565C29.293 204.865 29.0444 206.079 28.3761 207.233C27.5875 208.595 26.5683 209.699 25.1233 210.408C22.6852 211.604 20.5369 213.227 18.6372 215.154C15.4461 218.39 11.5521 220.293 7.12808 220.966C3.24702 221.557 -0.485565 221.765 -4.3877 221.082C-5.47726 220.891 -6.6552 220.292 -7.48021 219.542C-8.58159 218.542 -8.78554 216.826 -7.8994 215.631C-7.28706 214.805 -6.47797 214.196 -5.50604 213.927C-4.32605 213.6 -3.11523 213.31 -1.90031 213.198C1.08382 212.922 4.04482 213.289 6.99556 213.729C7.47177 213.8 7.95157 213.847 8.43907 213.834C5.97018 213.021 0.833633 212.622 0.834152 212.509C2.89052 212.383 7.00429 212.062 7.00481 212.027C5.44363 212.027 3.88249 212.027 2.19084 212.027C3.06158 211.528 3.86656 211.155 4.57291 210.646C8.24797 207.996 10.4991 204.518 10.7328 199.884C10.9023 196.524 10.272 193.262 9.57387 190.004C9.38483 189.123 9.2646 188.226 9.13773 187.332C8.93327 185.888 9.55074 183.776 10.4461 182.874C10.5139 183.058 10.5925 183.217 10.6316 183.385C11.0893 185.349 12.4614 186.408 14.3097 186.759C17.3899 187.342 20.183 186.6 22.5475 184.49C23.3407 183.782 23.3217 182.754 23.3941 181.8C23.4568 180.974 23.3952 180.138 23.407 179.309C24.8849 180.753 26.2093 182.285 26.1599 184.519ZM31.2071 180.544C29.2371 180.552 27.0728 180.595 25.1027 180.59C25.1027 180.59 24.9856 180.481 24.8762 180.387C24.4724 180.039 23.8878 179.523 23.5215 179.137C23.5215 179.137 23.4769 178.983 23.4424 178.714C23.3792 178.22 23.4332 178.037 23.4332 178.037C25.5266 178.074 28.2543 178.072 30.3482 178.081C30.7736 178.082 31.1989 178.081 31.6643 178.081C31.71 178.927 31.7516 179.694 31.7958 180.503C31.5641 180.52 31.3854 180.543 31.2071 180.544ZM37.5124 182.175C37.2899 192.833 37.085 203.491 36.8574 214.149C36.8086 216.428 36.6827 218.706 36.6216 220.985C36.6082 221.484 36.4572 221.677 35.944 221.649C35.2515 221.611 34.5549 221.639 33.7063 221.639C33.7063 220.794 33.7238 220.016 33.7037 219.238C33.5275 212.421 33.4197 205.6 33.1443 198.787C32.834 191.113 32.3558 183.446 31.9808 175.775C31.7681 171.425 31.6171 167.073 31.4404 162.722C31.4337 162.562 31.4542 162.401 31.464 162.193C33.6339 162.193 35.7755 162.193 37.9151 162.193C37.9151 162.904 37.928 163.575 37.9131 164.245C37.7816 170.222 37.6372 176.198 37.5124 182.175ZM43.1072 193.506C44.3991 201.389 45.7887 209.255 47.1464 217.127C47.3432 218.267 47.8384 220.382 48.0901 221.628C47.2759 221.628 46.4627 221.628 45.6685 221.628C45.3356 219.868 45.0649 218.205 44.7027 216.562C42.7404 207.659 40.778 198.755 38.7658 189.863C38.1227 187.021 37.6968 184.178 37.9773 181.26C37.9942 181.084 38.0091 180.908 38.0271 180.711C38.8999 180.711 40.5145 180.719 41.3493 180.686C41.3493 180.686 41.3734 180.925 41.4546 181.546C41.9734 185.537 42.4563 189.536 43.1072 193.506ZM38.0543 180.331C38.0292 180.266 38.0276 178.217 38.0256 178.198C38.0256 178.198 39.3314 178.23 39.8811 178.173C44.0452 178.183 48.2098 178.195 52.3745 178.183L52.8912 178.189C52.9806 178.679 53.3767 179.811 53.5195 180.331C48.3398 180.331 43.2089 180.331 38.0543 180.331ZM73.3214 180.365C67.1178 180.365 60.1622 180.346 53.9587 180.373C53.9587 180.373 53.8477 180.219 53.7219 179.6C53.634 179.166 53.5082 178.699 53.4049 178.195C53.725 178.181 53.9849 178.195 54.2053 178.195C60.5322 178.199 67.5941 178.211 73.9209 178.198C73.9209 178.198 73.9687 178.355 73.9872 178.901C74.0021 179.348 74.076 179.793 74.1377 180.364C73.8038 180.365 73.5628 180.365 73.3214 180.365ZM75.9213 132.327C75.5879 135.99 75.3896 139.656 75.5447 143.341C75.6649 146.193 75.5683 149.055 75.7302 151.903C76.0713 157.909 76.4391 163.915 76.943 169.909C77.5682 177.339 78.8283 184.688 79.9837 192.052C81.5027 201.735 83.3505 211.349 85.485 220.912C85.5292 221.109 85.563 221.309 85.6262 221.635C84.4385 221.635 83.3145 221.654 82.1926 221.612C82.0493 221.607 81.8382 221.305 81.7924 221.109C81.4385 219.591 81.0784 218.072 80.7928 216.54C79.3333 208.708 77.8163 200.887 76.4776 193.034C75.5668 187.694 74.8538 182.318 74.1695 176.942C73.6409 172.789 73.2536 168.617 72.876 164.446C72.1825 156.788 71.9719 149.108 72.1203 141.423C72.1922 137.709 72.4743 133.999 72.6577 130.286C72.6752 129.937 72.7918 129.778 73.1817 129.681C74.0108 129.476 74.8106 129.154 75.6233 128.883C75.8319 128.813 76.0435 128.752 76.3174 128.668C76.1781 129.934 76.0302 131.129 75.9213 132.327ZM78.4282 117.619C78.946 119.72 79.1062 121.816 78.7276 123.957C78.2247 126.804 76.5285 128.528 73.7709 129.093C68.884 130.095 64.0099 130.104 59.1302 128.823C55.6098 127.9 52.2984 126.49 49.0004 125.013C48.8417 124.942 48.6804 124.877 48.5201 124.809C48.4954 124.86 51.873 126.667 53.2842 127.35C51.6183 127.266 49.9502 127.211 48.2863 127.101C46.1509 126.96 44.0395 126.656 41.9847 126.031C41.769 125.965 41.5511 125.903 41.339 125.827C39.0463 125.01 37.9429 122.894 38.5629 120.513C38.9451 119.044 39.8266 117.885 40.9275 116.905C41.7993 116.128 42.7655 115.458 43.6887 114.739C43.8608 114.605 44.0272 114.463 44.1962 114.324C44.152 114.259 42.0047 115.467 41.0035 116.119C41.7422 114.472 42.5133 112.842 43.4529 111.255C44.5096 109.471 46.2043 108.682 48.1672 109.1C49.9153 109.472 51.628 110.136 53.2657 110.873C55.9576 112.084 58.747 112.959 61.5888 113.704C61.747 113.746 62.1842 113.77 62.2772 113.634C61.3171 113.327 60.3564 113.019 59.3937 112.711C59.4194 112.654 63.6801 112.512 65.7905 112.605C68.8331 112.739 70.7493 114.535 72.0073 117.155C72.2965 117.757 72.4969 118.402 72.7568 119.077C72.9664 117.941 72.3788 116.588 70.8299 114.362C71.1094 114.563 71.397 114.753 71.6662 114.966C71.9395 115.183 72.2066 115.41 72.4548 115.655C72.7132 115.91 72.9448 116.192 73.1878 116.462C73.2464 116.412 73.0173 115.739 72.7841 115.514C70.6964 113.505 68.2506 112.28 65.3086 112.196C64.3027 112.167 63.2959 112.184 62.2895 112.181C62.0707 112.18 61.8519 112.181 61.5981 112.181C61.6833 110.391 61.8934 108.697 62.6044 107.128C63.4258 105.315 64.3469 103.549 65.2207 101.76C65.8603 100.451 67.3028 97.2497 67.2581 96.907C65.6564 99.9672 64.0546 103.027 62.4924 106.012C62.2674 104.545 61.6726 103.415 61.2975 102.066C60.9077 100.663 61.1476 99.2906 61.6572 97.9607C63.3606 93.5186 66.2389 90.0747 70.403 87.7368C70.7416 87.5468 71.1048 87.3968 71.4669 87.2555C71.7489 87.1461 72.0479 87.0798 72.4373 86.9653C72.6381 87.9793 72.8339 88.9348 73.0163 89.8929C73.588 92.8965 73.9794 95.9479 74.7644 98.8951C75.8689 103.042 76.4673 107.263 77.129 111.482C77.4521 113.55 77.9278 115.588 78.4282 117.619ZM77.8692 113.525C77.4845 110.986 77.0997 108.448 76.7088 105.87H79.0353C78.6398 108.468 78.2545 110.994 77.8692 113.525Z" fill="#1B2F57"/>
<path d="M38.4881 46.9993C40.3226 48.04 42.1427 48.3051 43.9324 46.8924C43.9622 46.9592 43.8626 47.4354 43.7316 47.5448C42.4853 48.5871 39.8305 48.5352 38.5965 47.4529C38.5267 47.3912 38.4696 47.0707 38.4881 46.9993Z" fill="black"/>
<path d="M36.1601 57.8477C35.0833 57.8035 34.2804 57.3885 33.7682 56.4396C33.6814 56.2783 33.4076 56.2115 33.2129 56.117C33.0028 56.0153 32.6514 55.9773 32.6011 55.8299C32.5323 55.6285 32.6237 55.3018 32.7614 55.1127C33.4163 54.2153 34.3261 53.7098 35.4337 53.6836C36.9095 53.6487 38.1538 54.1896 39.1015 55.3583C39.345 55.6583 39.3851 55.8946 39.1118 56.2162C38.3207 57.147 37.3791 57.7732 36.1601 57.8477Z" fill="#1B2F57"/>
<path d="M35.1353 50.6625C35.0022 51.0272 34.7027 51.3817 34.7146 51.7325C34.7243 52.0141 34.9971 52.425 35.3269 52.593C34.9139 52.8108 34.5692 52.5596 34.3375 52.3043C34.2024 52.1553 34.2106 51.7752 34.2933 51.5502C34.4972 50.9959 34.7803 50.4704 35.0356 49.9351C35.0505 49.9038 35.0998 49.8894 35.1332 49.8668C35.1944 49.8775 35.2247 50.4185 35.1353 50.6625Z" fill="black"/>
<path d="M27.8486 47.3661C28.6295 47.5546 29.4519 47.9276 30.2605 47.8988C31.0372 47.8716 31.799 47.4282 32.5788 47.1642C32.3574 47.9096 31.2134 48.3997 29.8603 48.3478C28.7435 48.3046 27.9658 47.8952 27.8486 47.3661Z" fill="black"/>
<path d="M51.3722 47.6362C51.608 47.3409 51.7791 47.1292 51.9471 46.9155C52.0606 46.7711 52.1798 46.6294 52.28 46.4758C52.6144 45.9636 52.658 45.2722 52.3421 44.9927C51.9085 44.6095 51.4601 44.8437 51.026 45.0266C50.9161 45.0728 50.8128 45.136 50.6685 45.1299C50.8991 44.7163 51.2885 44.4749 51.7426 44.5206C52.0878 44.555 52.5409 44.7014 52.7223 44.9572C53.3125 45.7869 52.5445 47.3881 51.3722 47.6362Z" fill="black"/>
<circle cx="40" cy="40" r="38.6014" stroke="#1B2F57" stroke-width="2.7972"/>
</g>
</svg>
