<svg width="770" height="170" viewBox="0 0 770 170" fill="none" xmlns="http://www.w3.org/2000/svg">
<path d="M277.176 13.0644V93.3778C277.176 106.721 272.989 117.274 264.614 125.034C256.295 132.795 244.906 136.675 230.445 136.675C216.208 136.675 204.903 132.906 196.528 125.369C188.153 117.832 183.882 107.475 183.715 94.299V13.0644H208.839V93.5452C208.839 101.529 210.737 107.363 214.534 111.048C218.386 114.677 223.69 116.492 230.445 116.492C244.571 116.492 251.745 109.066 251.968 94.2152V13.0644H277.176ZM377.756 90.5304C377.756 104.488 374.574 115.682 368.209 124.113C361.9 132.488 353.358 136.675 342.583 136.675C333.426 136.675 326.029 133.493 320.39 127.128V169.839H296.187V44.3858H318.631L319.468 53.263C325.331 46.2282 332.98 42.7108 342.415 42.7108C353.581 42.7108 362.263 46.8424 368.46 55.1054C374.658 63.3684 377.756 74.758 377.756 89.2742V90.5304ZM353.554 88.7717C353.554 80.3411 352.046 73.8368 349.031 69.2586C346.072 64.6805 341.745 62.3914 336.05 62.3914C328.457 62.3914 323.237 65.2946 320.39 71.1011V108.201C323.349 114.175 328.625 117.162 336.218 117.162C347.775 117.162 353.554 107.698 353.554 88.7717Z" fill="#4392F1"/>
<path d="M394.422 135V13.0644H431.941C442.66 13.0644 452.235 15.4931 460.666 20.3504C469.152 25.1519 475.768 32.0191 480.514 40.9522C485.26 49.8293 487.632 59.9348 487.632 71.2686V76.8796C487.632 88.2134 485.287 98.2909 480.598 107.112C475.964 115.934 469.403 122.773 460.917 127.63C452.431 132.488 442.856 134.944 432.192 135H394.422ZM419.546 33.4149V114.817H431.689C441.516 114.817 449.025 111.607 454.217 105.186C459.41 98.7655 462.062 89.5812 462.173 77.6333V71.1848C462.173 58.7903 459.605 49.4106 454.469 43.0458C449.332 36.6252 441.823 33.4149 431.941 33.4149H419.546ZM500.613 88.8554C500.613 79.8666 502.344 71.8548 505.805 64.82C509.267 57.7853 514.236 52.3417 520.712 48.4894C527.245 44.637 534.81 42.7108 543.408 42.7108C555.635 42.7108 565.601 46.4515 573.306 53.9329C581.066 61.4143 585.393 71.5756 586.286 84.4168L586.454 90.6141C586.454 104.516 582.574 115.682 574.813 124.113C567.052 132.488 556.64 136.675 543.575 136.675C530.511 136.675 520.07 132.488 512.254 124.113C504.493 115.738 500.613 104.349 500.613 89.9441V88.8554ZM524.816 90.6141C524.816 99.2121 526.435 105.8 529.673 110.378C532.912 114.901 537.546 117.162 543.575 117.162C549.438 117.162 554.016 114.929 557.31 110.462C560.604 105.94 562.251 98.7376 562.251 88.8554C562.251 80.4249 560.604 73.8926 557.31 69.2586C554.016 64.6246 549.382 62.3076 543.408 62.3076C537.49 62.3076 532.912 64.6246 529.673 69.2586C526.435 73.8368 524.816 80.9553 524.816 90.6141ZM639.047 117.162C643.513 117.162 647.142 115.934 649.934 113.477C652.726 111.02 654.177 107.754 654.289 103.679H676.984C676.928 109.82 675.254 115.459 671.959 120.596C668.665 125.676 664.143 129.64 658.392 132.488C652.698 135.279 646.389 136.675 639.466 136.675C626.513 136.675 616.296 132.571 608.814 124.364C601.333 116.101 597.592 104.712 597.592 90.1954V88.6042C597.592 74.6464 601.305 63.508 608.731 55.1891C616.156 46.8703 626.345 42.7108 639.298 42.7108C650.632 42.7108 659.705 45.9491 666.516 52.4255C673.383 58.8461 676.873 67.4162 676.984 78.1358H654.289C654.177 73.446 652.726 69.6494 649.934 66.7462C647.142 63.7872 643.458 62.3076 638.879 62.3076C633.24 62.3076 628.969 64.3734 626.066 68.5049C623.219 72.5806 621.795 79.2245 621.795 88.4367V90.9491C621.795 100.273 623.219 106.973 626.066 111.048C628.914 115.124 633.24 117.162 639.047 117.162ZM739.878 109.96C739.878 107.001 738.399 104.684 735.44 103.009C732.536 101.278 727.847 99.7425 721.37 98.4026C699.819 93.8802 689.044 84.7239 689.044 70.9336C689.044 62.8939 692.366 56.1941 699.01 50.8343C705.71 45.4187 714.447 42.7108 725.223 42.7108C736.724 42.7108 745.908 45.4187 752.775 50.8343C759.698 56.2499 763.16 63.2847 763.16 71.9385H738.957C738.957 68.477 737.84 65.6296 735.607 63.3963C733.374 61.1073 729.884 59.9627 725.139 59.9627C721.063 59.9627 717.909 60.8839 715.675 62.7264C713.442 64.5688 712.326 66.9137 712.326 69.7611C712.326 72.441 713.582 74.6184 716.094 76.2934C718.662 77.9125 722.961 79.3362 728.991 80.5645C735.021 81.7369 740.102 83.0769 744.233 84.5843C757.019 89.2742 763.411 97.3976 763.411 108.955C763.411 117.218 759.866 123.917 752.775 129.054C745.685 134.135 736.528 136.675 725.306 136.675C717.713 136.675 710.958 135.335 705.04 132.655C699.177 129.919 694.571 126.207 691.221 121.517C687.871 116.771 686.196 111.663 686.196 106.191H709.143C709.366 110.49 710.958 113.784 713.917 116.073C716.876 118.362 720.84 119.507 725.809 119.507C730.443 119.507 733.932 118.641 736.277 116.911C738.678 115.124 739.878 112.807 739.878 109.96Z" fill="#1B2F57"/>
<path fill-rule="evenodd" clip-rule="evenodd" d="M7.90812 56.6985C-2.63604 67.2426 -2.63604 84.3381 7.90812 94.8823L56.6985 143.673C67.2426 154.217 84.3381 154.217 94.8822 143.673L143.673 94.8822C154.217 84.3381 154.217 67.2426 143.673 56.6985L94.8822 7.90812C84.3381 -2.63604 67.2426 -2.63604 56.6985 7.90812L7.90812 56.6985ZM70.8208 38.2291C73.9153 35.6441 78.4162 35.6441 81.5107 38.2291L113.049 64.5737C116.582 67.5256 117.054 72.7833 114.102 76.3172C111.15 79.851 105.892 80.3228 102.359 77.3708L87.9236 65.3128C86.5665 64.1792 84.5031 65.1441 84.5031 66.9125V107.764C84.5031 112.369 80.7703 116.101 76.1658 116.101C71.5612 116.101 67.8285 112.369 67.8285 107.764V66.9124C67.8285 65.144 65.7651 64.1791 64.4079 65.3127L49.9728 77.3708C46.439 80.3228 41.1812 79.851 38.2293 76.3172C35.2773 72.7833 35.7491 67.5256 39.2829 64.5737L70.8208 38.2291Z" fill="#1B2F57"/>
</svg>
