<svg width="156" height="39" viewBox="0 0 156 39" fill="none" xmlns="http://www.w3.org/2000/svg">
<path d="M63.2172 23.9748L66.2165 8.12152H70.7919L65.8492 30.4018H61.2279L57.6012 15.4973L53.9746 30.4018H49.3533L44.4106 8.12152H48.986L52.0006 23.9442L55.6731 8.12152H59.5599L63.2172 23.9748ZM82.0698 30.4018C81.8657 30.0039 81.7178 29.5092 81.626 28.9175C80.5548 30.111 79.1623 30.7078 77.4484 30.7078C75.8264 30.7078 74.4798 30.2386 73.4086 29.3C72.3476 28.3615 71.8172 27.1781 71.8172 25.7499C71.8172 23.9952 72.465 22.6486 73.7606 21.71C75.0664 20.7715 76.9486 20.2971 79.4071 20.2869H81.4424V19.3382C81.4424 18.573 81.2434 17.961 80.8456 17.5019C80.4579 17.0428 79.8407 16.8133 78.994 16.8133C78.2493 16.8133 77.6627 16.9918 77.2342 17.3489C76.8159 17.7059 76.6068 18.1956 76.6068 18.8179H72.1844C72.1844 17.8589 72.4803 16.9714 73.0719 16.1553C73.6636 15.3391 74.5002 14.7015 75.5815 14.2425C76.6629 13.7732 77.8769 13.5386 79.2235 13.5386C81.2638 13.5386 82.8808 14.0537 84.0744 15.0841C85.2782 16.1043 85.88 17.5427 85.88 19.3994V26.5762C85.8902 28.1472 86.1096 29.3357 86.538 30.1417V30.4018H82.0698ZM78.4125 27.326C79.0654 27.326 79.6673 27.1832 80.2182 26.8975C80.769 26.6017 81.1771 26.2089 81.4424 25.7193V22.873H79.7897C77.576 22.873 76.3977 23.6381 76.2548 25.1684L76.2395 25.4285C76.2395 25.9794 76.4334 26.4334 76.821 26.7904C77.2087 27.1475 77.7392 27.326 78.4125 27.326ZM95.2145 24.1431L98.275 13.8446H103.019L96.3622 32.9726L95.9949 33.8448C95.0054 36.0076 93.3731 37.0889 91.0982 37.0889C90.4555 37.0889 89.8026 36.992 89.1395 36.7982V33.447L89.8128 33.4623C90.6493 33.4623 91.2716 33.3347 91.6796 33.0797C92.0979 32.8247 92.4244 32.4013 92.659 31.8096L93.1793 30.4477L87.3797 13.8446H92.1387L95.2145 24.1431ZM114.067 17.9916C113.465 17.9099 112.935 17.8691 112.476 17.8691C110.803 17.8691 109.706 18.4353 109.186 19.5677V30.4018H104.763V13.8446H108.941L109.063 15.8186C109.951 14.2986 111.18 13.5386 112.751 13.5386C113.241 13.5386 113.7 13.6049 114.128 13.7375L114.067 17.9916ZM120.877 30.4018H116.439V13.8446H120.877V30.4018ZM116.179 9.55994C116.179 8.89684 116.398 8.35105 116.837 7.92259C117.286 7.49412 117.893 7.27989 118.658 7.27989C119.413 7.27989 120.015 7.49412 120.463 7.92259C120.912 8.35105 121.137 8.89684 121.137 9.55994C121.137 10.2332 120.907 10.7841 120.448 11.2126C119.999 11.6411 119.402 11.8553 118.658 11.8553C117.913 11.8553 117.311 11.6411 116.852 11.2126C116.403 10.7841 116.179 10.2332 116.179 9.55994ZM133.501 25.8264C133.501 25.2857 133.231 24.8623 132.69 24.5563C132.16 24.24 131.303 23.9595 130.119 23.7146C126.181 22.8883 124.213 21.2153 124.213 18.6955C124.213 17.2264 124.82 16.0022 126.034 15.0229C127.258 14.0333 128.854 13.5386 130.823 13.5386C132.925 13.5386 134.603 14.0333 135.858 15.0229C137.123 16.0124 137.755 17.2978 137.755 18.8791H133.333C133.333 18.2466 133.129 17.7263 132.721 17.3183C132.313 16.9 131.675 16.6909 130.808 16.6909C130.063 16.6909 129.487 16.8592 129.079 17.1958C128.671 17.5325 128.467 17.961 128.467 18.4812C128.467 18.9709 128.696 19.3688 129.155 19.6748C129.624 19.9707 130.41 20.2308 131.512 20.4552C132.614 20.6695 133.542 20.9143 134.297 21.1898C136.633 22.0467 137.801 23.531 137.801 25.6427C137.801 27.1526 137.153 28.3768 135.858 29.3153C134.562 30.2437 132.889 30.7078 130.838 30.7078C129.451 30.7078 128.217 30.463 127.135 29.9733C126.064 29.4734 125.222 28.795 124.61 27.9381C123.998 27.071 123.692 26.1375 123.692 25.1378H127.885C127.926 25.9233 128.217 26.5252 128.757 26.9435C129.298 27.3617 130.022 27.5708 130.93 27.5708C131.777 27.5708 132.415 27.4127 132.843 27.0965C133.282 26.77 133.501 26.3467 133.501 25.8264ZM148.283 30.7078C145.855 30.7078 143.876 29.9631 142.346 28.4737C140.826 26.9843 140.066 25 140.066 22.5211V22.0926C140.066 20.4297 140.387 18.9454 141.03 17.6396C141.673 16.3236 142.58 15.3136 143.754 14.6097C144.937 13.8956 146.284 13.5386 147.793 13.5386C150.058 13.5386 151.838 14.2527 153.134 15.6809C154.44 17.1091 155.093 19.1341 155.093 21.7559V23.5616H144.549C144.692 24.643 145.121 25.5101 145.835 26.163C146.559 26.8159 147.472 27.1424 148.574 27.1424C150.278 27.1424 151.609 26.5252 152.568 25.2908L154.741 27.7239C154.078 28.6624 153.18 29.3969 152.048 29.9274C150.915 30.4477 149.66 30.7078 148.283 30.7078ZM147.778 17.1193C146.901 17.1193 146.187 17.4152 145.636 18.0069C145.095 18.5986 144.748 19.4453 144.595 20.5471H150.747V20.1951C150.726 19.2157 150.461 18.4608 149.951 17.9303C149.441 17.3897 148.717 17.1193 147.778 17.1193Z" fill="#1B2F57"/>
<path d="M16.4866 1.45118C18.3909 0.534127 20.6091 0.534127 22.5134 1.45118L31.7323 5.89077C33.6366 6.80782 35.0196 8.54212 35.49 10.6027L37.7668 20.5784C38.2372 22.639 37.7436 24.8016 36.4257 26.4541L30.0461 34.454C28.7283 36.1064 26.7297 37.0689 24.6161 37.0689H14.3839C12.2703 37.0689 10.2717 36.1064 8.95392 34.454L2.57425 26.4541C1.25644 24.8016 0.762837 22.639 1.23316 20.5784L3.51003 10.6027C3.98035 8.54212 5.36341 6.80782 7.2677 5.89077L16.4866 1.45118Z" fill="#4392F1"/>
<path fill-rule="evenodd" clip-rule="evenodd" d="M20.9587 9.08001C20.1094 8.37058 18.8741 8.37058 18.0249 9.08001L9.36928 16.3103C8.39941 17.1204 8.26995 18.5634 9.08011 19.5333C9.89027 20.5032 11.3333 20.6326 12.3031 19.8225L16.2648 16.5131C16.6373 16.202 17.2036 16.4668 17.2036 16.9522V27.9503C17.2036 29.214 18.2281 30.2385 19.4918 30.2385C20.7555 30.2385 21.78 29.214 21.78 27.9503V16.9522C21.78 16.4669 22.3463 16.202 22.7187 16.5132L26.6804 19.8225C27.6503 20.6326 29.0933 20.5032 29.9034 19.5333C30.7136 18.5634 30.5841 17.1204 29.6143 16.3103L20.9587 9.08001Z" fill="#FBFFFE"/>
</svg>
